<?xml version="1.0" encoding="utf-8"?>
<!-- Generator: Adobe Illustrator 25.0.1, SVG Export Plug-In . SVG Version: 6.00 Build 0)  -->
<svg version="1.1" xmlns="http://www.w3.org/2000/svg" xmlns:xlink="http://www.w3.org/1999/xlink" x="0px" y="0px"
	 viewBox="0 0 66 79" style="enable-background:new 0 0 66 79;" xml:space="preserve">
<style type="text/css">
	.st0{fill:none;}
	.st1{fill:none;stroke:#231815;stroke-width:2.5;}
	.st2{fill:none;stroke:#231815;stroke-width:0.5;}
	.st3{fill:none;stroke:#231815;stroke-width:0.75;}
	.st4{fill:none;stroke:#231815;}
	.st5{fill:none;stroke:#231815;stroke-width:1.25;}
	.st6{fill:none;stroke:#231815;stroke-width:1.5;}
	.st7{fill:none;stroke:#231815;stroke-width:1.75;}
	.st8{fill:none;stroke:#231815;stroke-width:2;}
	.st9{fill:none;stroke:#231815;stroke-width:2.25;}
	.st10{fill:url(#SVGID_1_);stroke:#000000;stroke-miterlimit:10;}
	.st11{fill:url(#SVGID_2_);}
	.st12{fill:#202020;}
	.st13{fill:url(#SVGID_3_);}
</style>
<pattern  x="-111" y="-86" width="60.75" height="72" patternUnits="userSpaceOnUse" id="가는_선_물결_모양" viewBox="1.25 -72 60.75 72" style="overflow:visible;">
	<g>
		<rect x="1.25" y="-72" class="st0" width="60.75" height="72"/>
		<g>
			<line class="st1" x1="62" y1="-72" x2="62" y2="0"/>
		</g>
		<g>
			<line class="st2" x1="31.62" y1="-72" x2="31.62" y2="0"/>
			<line class="st3" x1="27.83" y1="-72" x2="27.83" y2="0"/>
			<line class="st4" x1="24.03" y1="-72" x2="24.03" y2="0"/>
			<line class="st5" x1="20.23" y1="-72" x2="20.23" y2="0"/>
			<line class="st6" x1="16.44" y1="-72" x2="16.44" y2="0"/>
			<line class="st7" x1="12.64" y1="-72" x2="12.64" y2="0"/>
			<line class="st8" x1="8.84" y1="-72" x2="8.84" y2="0"/>
			<line class="st9" x1="5.05" y1="-72" x2="5.05" y2="0"/>
			<line class="st1" x1="1.25" y1="-72" x2="1.25" y2="0"/>
			<line class="st3" x1="35.42" y1="-72" x2="35.42" y2="0"/>
			<line class="st4" x1="39.22" y1="-72" x2="39.22" y2="0"/>
			<line class="st5" x1="43.01" y1="-72" x2="43.01" y2="0"/>
			<line class="st6" x1="46.81" y1="-72" x2="46.81" y2="0"/>
			<line class="st7" x1="50.61" y1="-72" x2="50.61" y2="0"/>
			<line class="st8" x1="54.41" y1="-72" x2="54.41" y2="0"/>
			<line class="st9" x1="58.2" y1="-72" x2="58.2" y2="0"/>
			<line class="st1" x1="62" y1="-72" x2="62" y2="0"/>
		</g>
		<g>
			<line class="st1" x1="1.25" y1="-72" x2="1.25" y2="0"/>
		</g>
	</g>
</pattern>
<g id="레이어_1">
	<pattern  id="SVGID_1_" xlink:href="#媛臾쇨껐_紐⑥뼇" patternTransform="matrix(1.168 0 0 1.168 1308.9908 1302.9728)">
	</pattern>
	<polygon class="st10" points="10.58,9.1 10.58,73.32 57.8,41.21 	"/>
</g>
<g id="레이어_2">
	<g>
		<pattern  id="SVGID_2_" xlink:href="#媛臾쇨껐_紐⑥뼇" patternTransform="matrix(1.168 0 0 1.168 1308.9908 1302.4728)">
		</pattern>
		<path class="st11" d="M12.5,69V12l1,56l4.24-54.53c0,0-4.24,53.03-2.24,54.03s7-50.5,7-50.5l-1,48.5l5-40.5l-1,37.5l6.73-39.17
			L30.5,59.5l6-31l-2,22l6-16l1,16.5l-4-4l7-11.5l-3,13.5l5-9.5l-2,8.5l8-8l-4,6l6-5"/>
		<g>
			<g>
				<g>
					<g>
						<path class="st12" d="M54.93,41.51c0.2-0.28-0.07-0.31-0.76,0.32l-0.3,0.68L54.93,41.51z"/>
						<path class="st12" d="M49.72,45.05c-0.39,0.44-0.8,0.93-0.97,1.25l-1.34,2.58l0.75-3.11c0.08-0.35,0.02-0.51-0.28-0.31
							c-0.01,0.05-0.03,0.09-0.03,0.11l0.3,2.17l0.82-1.16c0.6-0.85,0.89-0.95,1.52-1.95c0.69-0.63,1.32-0.96,1.27-0.77
							c0.2-0.28,1.16-0.87,1.41-1.35c-1.1,0.58-2.28,1.55-3.38,2.74C49.5,45.43,49.7,45.15,49.72,45.05z"/>
						<path class="st12" d="M39.92,34.73l0.25-0.55C40.11,34.28,40.02,34.48,39.92,34.73z"/>
						<path class="st12" d="M32.98,43.27c0.05-0.3,0.08-0.61,0.08-0.8C33.02,42.82,32.98,43.14,32.98,43.27z"/>
						<path class="st12" d="M32.38,44.49c0,0.05,0.01,0.04,0.01,0.06C32.41,44.27,32.42,44.14,32.38,44.49z"/>
						<path class="st12" d="M39.92,34.73l-0.69,1.53C39.19,36.68,39.59,35.53,39.92,34.73z"/>
						<path class="st12" d="M50.42,43.29c0.21-0.23,0.38-0.44,0.52-0.64c-0.17,0.19-0.34,0.38-0.52,0.57
							C50.42,43.24,50.42,43.26,50.42,43.29z"/>
						<path class="st12" d="M37.07,46.29l0.35-0.57c0.08-0.21,0.1-0.33,0.12-0.45l-0.08,0.2l-0.13,0.28L37.07,46.29z"/>
						<path class="st12" d="M44.27,40.15c0.16-0.67-0.22-0.26-0.36-0.17c0.11,0.02,0.1,0.33,0.02,0.8
							C44,40.7,44.1,40.51,44.27,40.15z"/>
						<path class="st12" d="M46.9,45.2l0.32-0.37C47.13,44.92,46.99,45.08,46.9,45.2z"/>
						<path class="st12" d="M41.85,43.62c0.04-0.03,0.07-0.11,0.09-0.18C41.9,43.45,41.87,43.52,41.85,43.62z"/>
						<path class="st12" d="M13.82,46.88c-0.02-0.02-0.03,0.01-0.05,0C13.8,46.99,13.82,47.03,13.82,46.88z"/>
						<path class="st12" d="M12.43,69l-0.02-0.31c-0.05-0.03-0.11-0.07-0.16-0.07L12.43,69z"/>
						<path class="st12" d="M32.89,38.22c0,0.02,0,0.02-0.01,0.04C32.92,38.17,32.92,38.16,32.89,38.22z"/>
						<path class="st12" d="M23.26,36.49c-0.15,1-0.23,1.29-0.32,1.43c-0.09,0.19-0.18,0.2-0.35,1.83c0.06-0.38,0.18-0.59,0.3-1.13
							C23.02,38.1,23.16,37.28,23.26,36.49z"/>
						<path class="st12" d="M50.04,43.61c-0.18,0.18-0.37,0.37-0.55,0.56C49.75,43.92,49.92,43.75,50.04,43.61z"/>
						<path class="st12" d="M22.59,39.75l0,0.01l-0.03,0.34C22.57,39.95,22.58,39.87,22.59,39.75z"/>
						<path class="st12" d="M27.78,42.16c0.06-0.07,0.13-0.23,0.19-0.39C27.94,41.78,27.89,41.87,27.78,42.16z"/>
						<path class="st12" d="M32.63,28.86l0.01-0.62C32.63,28.55,32.63,28.73,32.63,28.86z"/>
						<path class="st12" d="M27,49c-0.02-0.03,0.01-0.42-0.07,0.28c-0.01,0.1-0.01,0.19-0.02,0.32C26.97,49.05,27.01,48.73,27,49z"
							/>
						<path class="st12" d="M26.76,45.21c-0.02,0.23-0.05,0.52-0.08,0.78l0,0.08l0.01,0.15l0.03-0.39L26.76,45.21z"/>
						<path class="st12" d="M11.58,26.82c0.07-0.36,0.16-0.58,0.24-0.76C11.62,26.32,11.51,23.92,11.58,26.82z"/>
						<path class="st12" d="M50.3,43.18c-0.02,0.12-0.09,0.24-0.26,0.43c0.13-0.14,0.25-0.27,0.37-0.4
							C50.42,43.15,50.4,43.12,50.3,43.18z"/>
						<path class="st12" d="M26.08,62.14c-0.13,0.06-0.25,0.15-0.38,0.25C25.81,62.32,25.95,62.25,26.08,62.14z"/>
						<path class="st12" d="M15.06,34.73l0.01-0.6C15.04,34.36,15.04,34.57,15.06,34.73z"/>
						<path class="st12" d="M24.73,61.73c0.01-0.45,0-0.82-0.02-1.13c-0.03,0.08-0.06,0.14-0.09,0.28
							C24.65,61.21,24.69,61.49,24.73,61.73z"/>
						<path class="st12" d="M11.82,26.06C11.82,26.07,11.82,26.07,11.82,26.06C11.82,26.07,11.82,26.07,11.82,26.06z"/>
						<path class="st12" d="M14.1,15.06c0.01-2.48-0.36-1.16-0.57-1.69c-0.02-0.67-0.02-1.11,0-1.38l-2.04,0.02
							c-0.04,0.99-0.32,0.23-0.45,1c0.13,1.84,0.5,3.25,0.51,4.63c-0.06,0.1-0.08,0.37-0.16,0.06c0.33,1.94,0.12,5.79,0.53,8.05
							c-0.03,0.17-0.06,0.26-0.09,0.3c0.18-0.37,0.37-0.43,0.5-0.36c0.03,1.11,0.27,2.05,0.04,2.48c-0.01-0.68-0.1-0.73-0.18-1.05
							l0.13,1.16c-0.33,1.05-0.15-1.58-0.41-1.58c0.15,2.26,0.49,4.9,0.42,6.64c-0.33,0.37-0.19-4.06-0.45-1.74l0.08-2.69
							c-0.5,2.06,0.01-1.63-0.53,0.26c-0.02,1.77,0.04,2.76,0.1,3.74c0.01,0.25,0.03,0.49,0.04,0.75c0.01,0.35,0.03,0.73,0.04,1.13
							c0.03,1.06,0.05,2.28,0.05,3.92c0.1,0.56,0.17,0.3,0.24,0.07c0.07-0.24,0.13-0.44,0.23,0c0.12,1.73,0.13,2.96,0.09,4.19
							c-0.04,1.21-0.12,2.35-0.2,3.5c-0.08,1.14-0.16,2.28-0.18,3.42c-0.02,1.12,0.01,2.29,0.14,3.19c0.11,0.09,0.27-0.51,0.38-0.48
							c0.11,0.05,0.17,0.61,0.11,3.59c-0.12,0.71-0.23,1.35-0.35,1.92c0.05,4.11,0.25,2.11,0.35,2.28c0.07-0.42,0.12-0.19,0.13,1.24
							c-0.14,1.08-0.27,0.2-0.27,0.84c-0.04,1.92,0.04,1.39,0.13,0.68c0.09-0.74,0.2-1.77,0.25-1.34l-0.19,2.91
							c0.16,0.24,0.34,0.28,0.49,0.67c0.16,0.36,0.29,1.09,0.41,2.05c-0.02-0.05-0.08-0.12-0.02,0.27c0.03,0.12,0.06,0.23,0.09,0.36
							c0.21-0.74,0.44-1.68,0.66-2.1c0.23-0.45,0.46-0.38,0.69,0.18l0.12-3.24c0.03-0.07,0.06,0.43,0.07,1
							c0.01,0.06,0.01,0.17,0.01,0.32c0,0.2,0,0.39-0.01,0.55c0.01,0.04,0.02,0.07,0.02,0.09c0.12-1.04,0.1-1.53,0.07-2.1
							c-0.03-0.57-0.07-1.27-0.03-2.53c0.13-1.91,0.23-0.79,0.16,1.25c0.2-4.21,0.45-9.19,0.71-13.31c0.26-4.17,0.54-7.63,0.9-10.3
							l-0.01,1.29c0.24-2.26,0.2-3.81,0.16-4.92c-0.07-0.76-0.13-1.5,0.11-2.77l0.01,0.5c0.59-5.99,0.84-12.64,1.64-17.18
							c-0.08-0.21-0.09-0.66-0.06-1.23l-1.96-0.15c-0.1,1.8-0.58,4.8-0.15,5.13c-0.55,3.41-0.58,2.42-1.12,7.23
							c-0.12,1.29,0.23,1.95,0.18,3.55l-0.31,0.02l0.18,2.19l-0.44,1.13l-0.02,1.5c0.06-0.6,0.22-1.26,0.3-1.16
							c-0.02,2.35-0.58,5.68-0.74,5.73l-0.07,5.55c-0.12-0.13-0.11-1.06-0.14-1.8c0.15,2.97-0.36,0.52-0.22,3.24
							c0.09-0.36,0.17,0.21,0.23,0.27c-0.26,1.34-0.42,4.42-0.43,6.7l-0.19-0.45c-0.11,2.06-0.17,4.23-0.19,6.47
							c-0.01,2.25-0.02,4.54,0.13,6.95c0.01-1.73,0.39-1.34,0.51,0.04c-0.09,0.2-0.19,0.39-0.27,0.6c0.3,0.91-0.05-1.52,0.42,0.37
							c0.08,0.49,0.08,0.78,0.28,1.2c0.02,0.07,0.19,0.26,0.27,0.33c0.05,0.05,0.1,0.08,0.14,0.11c0.07,0.04,0.15,0.07,0.21,0.09
							c0.27,0.08,0.36,0.07,0.25,0.1c-0.05,0.01-0.16,0.02-0.31,0c-0.07-0.01-0.16-0.04-0.23-0.06c-0.05-0.02-0.1-0.05-0.16-0.08
							c-0.11-0.07-0.26-0.19-0.36-0.31c-0.05-0.06-0.11-0.14-0.17-0.23c-0.21-0.33-0.29-0.59-0.38-0.89
							c0.05,0.21,0.1,0.42,0.21,0.71c0.02,0.05,0.07,0.17,0.12,0.27l0.09,0.15l0.05,0.08c0.04,0.05,0.08,0.1,0.13,0.14
							c0.22,0.18,0.29,0.34,0.84,0.43c0.22,0.03,0.52-0.01,0.61-0.06c0.12-0.05,0.24-0.11,0.35-0.19c0.26-0.2,0.25-0.24,0.34-0.34
							c0.07-0.09,0.14-0.2,0.16-0.25c0.06-0.12,0.13-0.27,0.16-0.36c0.08-0.22,0.14-0.41,0.19-0.6c0.14-0.1,0.02,0.44,0.05,0.67
							c0.14-0.59,0.47-1.48,0.74-2.43c0.27-0.95,0.5-1.94,0.44-2.59l0.12-0.1c0.78-4.6,0.93-6.68,1.42-10.42
							c-0.27-0.11-0.02-1.56-0.1-2.7c0.44-2.73,1.02-5.75,1.38-9.06c0.13-2.34-0.16-0.71-0.21-1.77c0.28-0.14,0.62-3.45,0.61-1.71
							c0.4-3.97,0.51-5.07,0.83-10.12c-0.16,0.53-0.27,1.14-0.33,0.82c0.05-0.92,0.32-2.06,0.43-1.92l0,0.24
							c0.1-2.69,0.57-5.74,1.02-8.69l-2.21-0.13c-0.25,3.29-0.49,6.46-0.26,8.84l-0.02-0.25l0.18,4.68
							c-0.09,2.15-0.17-1.29-0.36,0.29c0.04,0.63,0.07,1.23,0.08,1.8c0.01,0.29,0.01,0.56,0.02,0.84c0,0.3,0,0.59,0,0.88
							c-0.02,1.76-0.06,3.38-0.11,5c-0.05,1.64-0.09,3.22-0.14,4.85c-0.03,1.6-0.04,3.18,0,4.52c-0.45,4.48-0.57,9.95-0.63,14.76
							c0.16,0,0.33,0,0.44,0.3c0.12,0.28,0.2,0.83,0.23,1.48l0.08-0.83c0.09-0.28,0.1-0.05,0.1,0.2c0,0.26-0.01,0.58,0.02,0.68
							c0.04-0.43-0.03-0.78,0.06-0.96c0.15,0.35,0.27,0.93,0.4,1.5c0.28-0.75,0.56-1.45,0.84-1.76c0.28-0.32,0.55-0.26,0.81,0.16
							c0.27-1.66,0.54-3.31,0.81-5.13c0.01-0.1,0.03-0.2,0.03-0.25c0.12-2.88,0.15-3.77,0.2-4.94c0.04-0.71,0.08-1.48,0.14-2.68
							c0.04-0.52,0.07-0.58,0.03,0.54l-0.26,4.83c0.1-1.66,0.2-2.86,0.27-3.6c0.07-0.76,0.12-1.07,0.16-1.36
							c0.04-1.31,0.08-2.62,0.11-3.91c0.06-1.46,0.14-3.12,0.25-4.58c-0.1,0.78-0.22,1.59-0.23,2.13c-0.13,0.45-0.09-1.09-0.01-2.37
							c0.04-0.65,0.1-1.22,0.15-1.61c0.06-0.39,0.11-0.59,0.16-0.64c0-0.29-0.05-0.33-0.1-0.33c-0.03,0-0.06,0.01-0.08-0.01
							c-0.01-0.01-0.03-0.03-0.04-0.07c-0.02,0.4-0.05,0.94-0.08,1.69c-0.16,4.44-0.29,9.81-0.38,14.56
							c0.08-0.19,0.25-0.94,0.04,0.86c-0.05,0.43-0.09,0.51-0.11,0.56c0.13-0.6-0.1,2.47,0.26-0.3c-0.1,1.23-0.08,1.67-0.07,2.15
							c0.16,0.13,0.28,0.4,0.32,1.11c0.19-0.55,0.25,0.07,0.34,0.44c0.08,0.39,0.17,0.61,0.25,0.34c-0.04,0.2-0.04,0.46,0,0.66
							c0.04,0.21,0.11,0.38,0.19,0.56c0.2-0.26,0.41-0.65,0.54-1.14c-0.05,0.24,0.01,0.2,0.06,0.23c0.05,0.02,0.1,0.12,0.04,0.43
							c0.14-0.11,0.27-0.29,0.37-0.61c0.1-0.31,0.16-0.8,0.15-1.32c0.16,0.54,0.33,0.51,0.51-0.07c0.46-2.82,0.9-5.57,1.33-8.22
							c0.1-0.62,0.2-1.23,0.29-1.84l0.09-0.59l0.02-0.18c0.03-0.24,0.07-0.48,0.1-0.71c0.14-0.92,0.32-1.71,0.66-2.31
							c0.23-1.73,0.45-3.42,0.66-5.05l0.08-0.61l0.01-0.08c0.01-0.04-0.01,0.04-0.01,0.06l-0.04,0.19l-0.07,0.36
							c-0.09,0.44-0.18,0.87-0.27,1.3c-0.14,0.68-0.28,1.34-0.42,1.99c0.2-1.5,0.38-2.84,0.56-4.17c-0.25,2.77-0.33,3.34-0.42,3.93
							c-0.09,0.59-0.17,1.16-0.27,3.15c0.11-1.18,0.32-3.23,0.56-5.27c0.24-2,0.52-4.05,0.61-4.26c0,0.02,0,0.03,0,0.03
							c-0.07,0.76-0.15,1.43-0.23,2.1c-0.1,0.85-0.25,2.14-0.31,2.6c0.04-0.32,0.08-0.64,0.12-0.94c0.07-0.23,0.01,0.77-0.03,1.44
							c-0.04,0.72-0.04,1.11,0.08,0.93c-0.06,0.35-0.12,0.57-0.16,0.74c0,0.11-0.06,0.66,0,0.37c0.17-3.06,0.27-4.44,0.32-4.24
							l-0.18,3.42l-0.05,0.1c0.18-1.22,0.35-2.17,0.48-2.65c0.09-1.37,0.18-2.84,0.27-4.38L31,37.08l0.01-0.12l0,0.02l0,0.08
							l0.01,0.15l0.02,0.31c0.02,0.38,0.04,0.78,0.06,1.13c0.04,0.67,0.08,1.1,0.13,1.09c-0.14-0.2-0.23-0.03-0.3,0.44
							c-0.08,0.46-0.13,1.19-0.2,1.9C30.67,42.8,30.6,43.51,30.5,44c-0.1,0.48-0.22,0.77-0.39,0.32c0,0.85,0.06,1.66,0.23,0.98
							c-0.11,1.36-0.22,2.18-0.34,1.35c-0.06,2.36,0.01,2.73,0.06,3.1c0.05,0.37,0.09,0.69-0.01,2.73
							c-0.13,0.63-0.14,0.02-0.27,0.24c0.05,0.43,0.11,0.79,0.14,1.28c0.1-1.3,0.2-2.7,0.32-4.27c0.03,0.57,0.05,1.21,0.05,1.94
							c-0.05-0.14-0.1,0.13-0.13-0.57c0.17,3.1,0.36,5.48,0.34,8.42c0.15-0.58,0.32-1.23,0.49-1.81c-0.26,1.47,0.24-0.62,0.23,0.37
							c0.13-0.36,0.26-0.78,0.4-1.25c-0.04-0.14-0.08-0.24-0.12-0.3c0.16-0.47,0.33-1.19,0.49-1.98c0.16-0.77,0.32-1.6,0.46-1.86
							l0.08-0.31l-0.1,0.66l-0.24,1.46l0.21-0.76l0.74-4.08l-0.56,2.13c0.29-2.02,0.29-2.61,0.31-3.15
							c0.02-0.54,0.05-0.89,0.33-2.11c-0.11,0.77,0.42-2.13,0.75-2.71l0,0.01c0.21-1.69,0.34-3.03,0.74-4.62
							c0.09-0.16,0.16,0.03,0.21,0.27c0.05,0.23,0.09,0.52,0.16,0.38c0.01-0.46,0.09-1.08,0.2-1.8c0.09-0.56,0.2-1.22,0.31-1.89
							c0.21-1.22,0.43-2.48,0.39-3.13c0,0.43,0.18,0.49,0.25,0.36l-0.09-0.88c0.26-0.92,0.33-1.05,0.45-0.87
							c0.59-2.81-0.64,0.81,0.21-2.5c-0.03,0.27,0.03,0.15-0.04,0.7c0.09-0.43,0.18-0.85,0.27-1.26l-1.05-0.15
							c-0.29,2.93-0.35,5.72-0.71,8.44c-0.46,0.89,0.16-2.74-0.25-1.72c-0.17,2.73-0.35,5.56-0.52,8.37
							c-0.19,3.07-0.34,5.59-0.67,8.73l0.16-1.32c0.4-1.23,0.17,0.25-0.15,2.46c0.25-0.39,0.68-1.23,1.28-3.17
							c-0.28,0.86-0.66,2.6-0.52,2.06c0.36-0.9,0.75-1.94,1.16-3.06c0.45-1.26,0.92-2.56,1.41-3.95c0.25-0.71,0.51-1.45,0.77-2.21
							c0.2-0.6,0.41-1.21,0.63-1.85c0.15-0.47,0.31-0.95,0.48-1.45l0.12-0.36l0.01-0.07l0.04-0.21c-0.01,0.15,0,0.26,0.02,0.33
							c-0.07,0.29,0.18-0.3,0.32-0.63c0.16-0.39,0.32-0.81,0.48-1.21c0.02,0.5,0.04,0.97,0.05,1.41c0.13-0.15,0.16,0.71,0.29-0.3
							c-0.08,1.33-0.1,2.1-0.09,2.81l0.02,0.51l0.05,0.81c0.05,0.56,0.09,1.12,0.14,1.67c0.1,1.07,0.24,2.33,0.32,2.95
							c0.09,0.78,0.17,1.66,0.21,2.41c-0.57-0.59-1.19-1.28-1.63-1.91c0.3,0.29,0.62,0.45,0.41,0.24l-1.5-1.36l0.27-0.5
							c-0.26,0.09-0.33,0.22-0.6,0.54c0.06,0.09,0.13,0.21,0.21,0.34c-0.12-0.07-0.28-0.18-0.46-0.32c0.18-0.46,0.6-1.25,1.02-1.96
							c-0.91,1.79,0.33,0.18,0.89-0.49c-0.14,0.09-0.05-0.21-0.15-0.18c0.17-0.2,0.3-0.35,0.4-0.47c0.08-0.1,0.13-0.18,0.16-0.25
							c0.06-0.14,0.06-0.25,0.07-0.4c0.01-0.14,0.04-0.32,0.17-0.62c0.13-0.28,0.39-0.71,0.76-1.19l-0.09,0.39
							c0.5-0.95,1.18-2.36,1.8-3.31c-0.1,0.67-0.74,1.46-0.96,2.24c0.3-0.51,0.71-1.36,1.19-2.31c0.47-0.93,1-1.95,1.27-2.32
							c-0.07,0.27-0.17,0.59-0.29,0.97c0-0.07,0.01-0.17,0.03-0.32c-0.36,0.66-0.73,1.29-1.06,1.94c0.11,0.16,0.13,0.23,0.25,0.07
							c-0.07,0.29-0.15,0.57-0.26,1.01l0.03-0.11l-0.66,2.31l0.25-0.71c0.48-0.55,0.27,0.52,0.06,1.48
							c-0.23,1.05-0.46,1.95-0.59,3.59c0.05-0.74,0.07-1.15,0.07-1.34c-0.01-0.16-0.05-0.14-0.09-0.06
							c-0.09,0.18-0.24,0.74-0.36,0.59c-0.25,0.74-0.6,1.87-0.61,1.52c-0.03,0.66-0.18,1.2-0.35,1.78L39,54.83l3.24-5.44
							c0.37-0.62,0.77-1.3,1.11-2.36c0.13-0.03,0.72-1.35,0.79-0.95c0.8-1.69-0.36,0.31-0.39,0.12c0.73-1.87,2.13-3.94,3.44-6.33
							l-1.46-0.55c-0.15,0.58-0.28,1.17-0.4,1.78c-0.12,0.62-0.2,1.14-0.36,2.11c-0.64,3.27-0.65,4.16-0.74,5.28
							c0.66-0.76,1.32-1.52,2.08-2.36c0.34-0.23,0.15,0.08-0.19,0.52c-0.34,0.44-0.82,0.99-0.82,0.99c0.68-0.58,1.39-1.25,2.08-1.94
							c0.67-0.68,1.42-1.47,1.91-2.05c-0.18,0.3,0.12,0.1,0.56-0.19c0.95-0.98,0.39-0.9,1.77-2.07c-0.14,0.3-0.3,0.7-0.69,1.24
							c0.66-0.74,1.29-1.5,1.95-2.27l-0.83-0.68c-0.3,0.54-0.61,1.09-0.93,1.64c-0.39,0.27,0.34-0.98,0.58-1.53
							c-0.97,1.6-2.56,4.12-2.66,4.75l0.75-0.94c-0.37,0.57-0.39,0.16-0.15-0.28c0.71-1.45,1.36-1.87,1.49-1.89l-0.61,1.02
							c0.58-0.35,1.22-1.35,1.89-2.52l0.17,0.14c-0.88,1.01-1.81,2.16-2.67,2.99l0.41-1l-1.49,1.97c-0.48,0.33-0.84,0.36-0.07-0.5
							c-0.35,0.28-0.55,0.45-0.7,0.6c-0.15,0.15-0.26,0.28-0.36,0.41c-0.2,0.25-0.45,0.54-0.87,0.8c-0.08,0.03-0.03-0.05,0.06-0.17
							l-1.11,1.28c0.29-0.41,0.16-0.58,0.65-0.98c-0.41,0.31-0.76,0.65-1.15,1.08c0.09-0.5,0.1-0.86,0.17-1.28
							c0.06-0.41,0.17-0.84,0.38-1.25l-0.01,0.15c0.26-1.42,0.23-1.6,0.11-1.58c-0.11,0.01-0.28,0.15-0.09-1.42l1.05-1.62l1.58-2.44
							l-2.35,2.16l-0.23,0.21l0.08,0.5c-0.21,0.37-0.63,1.12-0.66,0.92c-0.56,1.51,0.24-0.18-0.01,0.73
							c-1.21,1.7-2.54,5.1-3.19,5.29c-0.14,0.76,1.08-1.67,0.19,0.36c-0.4,0.16-0.68,0.79-1.02,1.57l0.42,0.15
							c0.11-0.76,0.23-1.66,0.54-2.51c0.14,0.62-0.39,2.34,0.26,0.55c-0.05-0.3-0.02-0.68,0.06-1.09c0.08-0.43,0.19-0.82,0.37-1.47
							c0.34-1.19,0.8-2.73,0.98-3.74c-0.24,0.25-0.07-0.7,0.23-2.09c0.3-1.37,0.75-3.32,0.97-4.56c0.04-0.08,0.11-0.33,0.22-0.73
							c-0.51,0.66-3.06,4.71-4.59,7.01l0.05-0.21c-0.19,0.66-0.68,1.61-1.26,2.64c-0.5,0.86-1.08,1.88-1.58,2.74
							c-0.15-0.18-0.05-0.51,0.39-1.42l-0.95,1.56c-0.13,0.35-0.3,0.74-0.64,1.36c0.24,0.2,0.58,0.52,0.99,0.9
							c-0.21-0.08-0.44-0.19-0.69-0.3c0.86,0.86,1.73,1.66,2.57,2.45c0.85,0.79,1.66,1.54,2.54,2.39c-0.08-1.15-0.14-2.26-0.16-3.48
							c-0.14-0.22-0.28,0.37-0.45,0.35c-0.17,0.01-0.35-0.49-0.52-1.88c0.14-0.02,0.37-0.11,0.49,0.88
							c-0.04-0.34-0.18-1.12-0.16-1.69c0.1,0.45,0.21,0.96,0.33,1.53c0-1.63-0.26-1-0.3-2.08c0.2,0.01,0.09-0.82,0.26-0.67
							c0.04,0.3-0.03,0.91,0.08,1.41c-0.04-1.32-0.01-2.75,0.1-3.27c-0.11,0.11-0.27,0.02-0.35-0.88c-0.02-0.29-0.03-0.53-0.04-0.71
							c-0.01-0.24-0.01-0.42-0.01-0.56c0.01-0.28,0.03-0.39,0.07-0.47c0.06-0.15,0.16-0.12,0.14-1.2c-0.18-0.68-0.18-3.13-0.44-2.52
							c-0.05-0.91,0.05-1.45,0.09-2.08c-0.1-0.67-0.23-2.5-0.34-3.86c-0.61,1.72-1.02,2.97-0.76,2.75l0.13-0.28
							c-0.03,0.08-0.06,0.18-0.09,0.28c0-0.01,0,0,0-0.01l0,0.01c-0.22,0.66-0.44,1.32-0.66,1.98c-0.23,0.62-0.45,1.25-0.68,1.88
							c-0.24,0.61-0.47,1.23-0.71,1.85l-0.58,1.43c-0.24,0.55-0.48,1.11-0.71,1.65l-0.14,0.35l-0.19,0.49
							c-0.13,0.38-0.27,0.75-0.4,1.12l0.09-0.51c-0.33,1.04-0.69,2.05-1.05,3.1c0.03-0.69,0.04-1.26-0.05-1.4
							c0.03-0.3,0.12-0.87,0.23-1.37c0.11-0.51,0.22-0.94,0.29-1.1c0-0.43-0.03-0.61-0.01-0.99c0.02-0.37,0.09-0.98,0.26-2.01
							c0.1,0.82,0.21-0.67,0.05,0.89c0.12-0.76,0.2-1.23,0.28-1.71c0.03-0.2,0.04-0.39,0.04-0.61c0-0.23-0.03-0.41-0.03-1.14
							c0.17,0.87,0.48-1.72,0.5-2.83l-0.33,1.61c0.08-1.24,0.2-2.33,0.32-3.43l0.28,0.63c0.34-1.92,0.42-3.7,0.46-5.38l-1.96-0.28
							c-0.31,2.44-0.51,4.67-1.32,6.71c-0.01,1.28,0.65-2.51,0.71-1.35c-0.23,1.07-0.57,2.15-0.87,3.04
							c-0.04,0.11-0.07,0.22-0.11,0.33l-0.05,0.16c-0.01,0.03-0.02,0.04-0.04,0.07c-0.04,0.07-0.08,0.13-0.12,0.18
							c-0.07,0.1-0.11,0.15-0.12,0.2c-0.16,0.32-0.1,0.68-0.11,1.38c0.01,0.64-0.04,1.61-0.22,2.2c0.04,0.41,0.2,1.27-0.2,3.94
							c-0.19,0.85-0.26,0.58-0.25-0.18c0.01-0.75,0.09-1.87,0.17-2.52c0.05-0.33,0.07-0.23,0.06,0.02c0.09-0.67,0.16-1.34,0.09-1.65
							l-0.03,0.79c-0.04-0.07-0.11,0.15-0.16,0.24c-0.06,0.12-0.08,0-0.01-0.95c-0.16,1.42-0.17,1.89-0.08,1.75
							c-0.08-0.02-0.15,0.34-0.25,0.86c-0.09,0.49-0.2,1.14-0.24,1.03c-0.05,0.61-0.18,1.98-0.22,2.2c-0.17,0.22-0.4,2.65-0.74,4.99
							c-0.04,0.29-0.06,0.46-0.07,0.43c0.43-3.3,0.38-2.94,0.42-3.21c0.01-0.07,0.02-0.15,0.09-0.65c0.01-0.02-0.02,0.23-0.08,0.66
							c0.08-0.45,0.18-0.93,0.29-1.63c0.11-0.68,0.23-1.62,0.31-2.34c-0.11,1.01-0.15,1.5-0.16,1.84c-0.01,0.34,0.01,0.52,0.03,0.75
							c0.05,0.41,0.12,1.11,0.11,1.87l0.17-1.59c-0.05,0.53-0.09,0.94-0.11,1.32c-0.01,0.19-0.02,0.37-0.03,0.55
							c0.06-1.3,0.12-2.59,0.19-3.89l-0.27,3.15l-0.06,0.72c-0.01,0.05-0.02-0.03-0.03-0.04l-0.05-0.13c0,0.05,0,0.19,0.01,0.16
							c0.04-0.66,0.07-1.3,0.1-1.9c0.07-1.25,0.13-2.38,0.18-3.33c0.11-1.94,0.2-3.29,0.26-3.52c0.02-1.18-0.01-1.4-0.06-1.16
							c-0.03,0.15-0.04,0.21-0.07,0.35c-0.12,0.78-0.28,2.13-0.36,1.84c-0.08,0.36-0.15,0.66-0.21,0.78
							c0.09-0.68,0.07-0.9,0.08-1.26c0.01-0.36,0.05-0.81,0.24-1.54c-0.1,1.01,0,0.57,0.12,0c0.13-0.57,0.27-1.16,0.29-1.01
							c-0.04,0.1-0.03-0.1,0.03-0.45c0.04-0.18,0.08-0.27,0.1-0.32c0.36-1.53-0.41,1.21-0.34-0.18c0.09-0.07,0.19-0.29,0.25-0.44
							c0.06-0.16,0.1-0.26,0.08-0.29c-0.01,0.22-0.33,0.63-0.44,0.07c0.02-0.12,0.03-0.22,0.05-0.31c0.15-3.05,0.28-5.73,0.4-8.09
							c-0.06-0.41-0.25,0.44-0.26-0.11l-0.04,1.15c-0.24,1.08-0.22,0.19-0.29-0.49c0.13-0.85,0.12,0.31,0.17-0.39
							c-0.18,0.45-0.09-0.75-0.05-1.73c0.05-1.04,0.05-1.82-0.05-2.13c0.01-0.42,0.03-0.59,0.06-0.76c0.03-0.16,0.06-0.33,0.03-0.52
							c-0.13-0.18-0.16-0.57-0.22-0.73c-0.1,0.18-0.19,0.17-0.37,0.58c0.08,0.27,0.12-0.15-0.18,1.21c0.19-0.7,0.37-1.29,0.55-1.77
							l0.04,0.27c-0.02-0.08-0.03-0.17-0.04-0.27c-0.1,0.31-0.22,0.73-0.33,1.27c0.11-0.42,0.23-0.87,0.33-1.26
							c0.02,0.32,0.04,0.59,0.05,0.79c-0.07-0.59-0.03-0.7-0.05-0.1c0-0.23,0-0.46,0-0.68c-0.12,0.49-0.24,1-0.37,1.66
							c-0.13,0.64-0.27,1.44-0.4,1.77l0.1-1.87c-0.17,0.08-0.35,0.43-0.55,1.27c-0.2,0.79-0.43,2.06-0.67,2.89
							c-0.26,1.47-0.54,3.04-0.83,4.71l0.63-3.07c-0.16,1.62-0.41,3.13-0.72,4.89c-0.16,0.89-0.33,1.84-0.49,2.76
							c-0.08,0.48-0.16,0.94-0.24,1.4c-0.03,0.19-0.06,0.38-0.09,0.57c-0.01,0.09-0.02,0.18-0.03,0.26
							c-0.17-0.16-0.39,0.67-0.61,1.23c0.16-0.05-0.54,3.06-0.22,3.51l-0.58,1.82c-0.1,0.5-0.18,0.94-0.23,1.33
							c-0.02,0.2-0.05,0.38-0.07,0.56l-0.01,0.13l-0.01,0.06l0.02-0.1c0.04-0.16,0.07-0.32,0.1-0.47c0.27-1.19,0.45-1.65,0.54-1.71
							c-0.1,1.25-0.25,2.65-0.4,3.37c0.11-1.29,0.13-1.94,0.18-2.66c0.04-0.7,0.09-1.46,0.2-2.5c-0.08,0.43-0.12,0.47-0.2,1.73
							c0.01-0.42-0.08,0.5-0.2,1.51c-0.11,0.99-0.25,2.07-0.2,1.25c-0.12,1.23-0.35,3.79-0.48,4.45c0.11-1.22,0.11-1.24,0.11-1.24
							c-0.01,0.13-0.15,1.31-0.25,2.23c-0.1,0.87-0.22,1.92-0.28,2.93c0.03-0.53,0.04-0.9,0.05-1.14c0.14-1.84,0.2-2.92,0.23-3.72
							c0.03-0.8,0.03-1.33,0.04-1.93c0.01-1.14,0.05-2.66,0.34-5c0.01-0.07,0.01-0.12,0.02-0.18c0-2.6,0.02-5.6,0.07-8.1
							c0.07-0.4,0.12-0.94,0.08-0.23c0.15-2.51,0.03-2.11-0.11-1.35c-0.11,1.37-0.22,2.39-0.28,2.99c-0.03,0.31-0.05,0.5-0.06,0.71
							c0-0.24,0.01-0.68,0.04-1.13c0.28-1.74,0.17,1.82,0.28,0.73c0.32-0.23,0.25-1.27,0.16-2.53c-0.09-1.27-0.16-2.76-0.09-3.92
							l0.04,0.56c0.03-1.77-0.26-4.31-0.28-7.19c0,0,0.01,0.14,0.01,0.01c-0.01-0.44-0.03-0.97-0.05-1.57
							c-0.23,1.2-0.55,3.52-0.81,5.54c0.13-1.74,0.16-1.41,0.13-2.1c-0.07,0.42-0.07,0.81-0.09,1.3c-0.02,0.5-0.06,1.13-0.21,2.39
							c-0.08,0.01-0.26,0.57-0.24-1.26l0.26-1.32c-0.04-0.67-0.12-0.43-0.21,0.19c-0.09,0.59-0.19,1.56-0.25,1.63l0.05-1.32
							c-0.22,0.99-0.35,2.65-0.5,4.4c-0.13,1.78-0.27,3.49-0.49,5.12l0.02,0.8c-0.36,6.08-0.17-0.4-0.5,4.65l0-3.25
							c-0.02,0.2-0.04,0.42-0.08,0.92c-0.07,1.01-0.18,2.61-0.31,4.36c-0.14,1.81-0.31,3.86-0.45,5.25
							c0.36-5.26,0.63-8.7,0.76-11.22c-0.07,0.56-0.25,2.24-0.43,5.33c0.07-0.85,0.16-2.42,0.16-1.93
							c-0.27,4.69-0.63,8.86-0.9,10.97c0.25-3.9,0.31-5.29,0.31-5.75c0-0.45-0.08,0.15-0.13,0.45c0.05-1.35,0.14-3.2,0.47-7.44
							C22.94,43.92,22.95,43.11,23,42c0.07-1.15,0.14-2.32,0.21-3.55c0.03-0.55,0.05-0.95,0.05-1.21c-0.24,1.72-0.28,2.02-0.31,2.24
							c-0.04,0.28-0.05,0.18-0.05,0.07c0-0.23,0-0.56-0.35,1.56c-0.03-0.62-0.01-1.05,0.04-1.34c0.15-1.54,0.3-2.78,0.44-3.72
							c0.2-0.88,0.13,0.04,0.28-0.54c0.03-0.47,0.1-0.7,0.19-0.93c0.08-0.22,0.18-0.5,0.27-0.65c-0.11,0.21-0.2,0.36-0.24,0.34
							c-0.04-0.01-0.04-0.17,0-0.29c-0.1,0.13-0.2,0.39-0.3,0.79c-0.08-0.19-0.08-0.51-0.05-0.72c0.01-0.06,0.02-0.11,0.03-0.17
							c0.02-0.13,0.03-0.25,0.04-0.37c0.04-0.23,0.07-0.45,0.11-0.67c0.15-0.87,0.29-1.74,0.17-3.77l0.17,1.29
							c-0.07-2.08,0.16-7.67-0.29-9.72c0.08-0.37,0.26-0.85,0.28,0.07c0.04-1.17,0.05-2.41,0.04-3.66l-2.48-0.15
							c-0.28,4.04-0.42,8.3-0.96,11.21l-0.11-0.39c-0.05,0.93,0.11,1.63-0.16,2.77c-0.06-0.07-0.11-0.39-0.16,0.04
							c0,0.49,0,2.48-0.23,3.69l-0.05-1.06c-0.72,4.79-0.42,7.43-0.8,11.48c-0.43-0.06-1.03,3.7-1.35,5.58l-0.05-0.07
							c-0.8,5.56-0.86,9.55-1.73,14.62c-0.14,0.37-0.3,0.79-0.47,1.27c-0.08,0.23-0.18,0.46-0.27,0.63
							c-0.02,0.02-0.04,0.05-0.05,0.08l0-0.01c0.01,0,0.07,0.03,0.1,0.05c0.08,0.05,0.15,0.1,0.22,0.15
							c0.07,0.06,0.13,0.12,0.19,0.19c0.06,0.06,0.08,0.05,0.12,0.1c0.03,0.03,0.05,0.08,0.07,0.13c0.01,0.07,0.01,0,0.01,0.02
							c0.01-0.01,0.01,0.02,0.01,0c0.02-0.05,0.05-0.09,0.08-0.12c0.04-0.03,0.08-0.05,0.12-0.07c0.07-0.06,0.15-0.11,0.23-0.16
							c0.08-0.05,0.16-0.09,0.25-0.12l0.13-0.05c0,0,0.01,0.01,0.01,0.01c-0.02-0.07-0.07-0.41-0.1-0.68
							c-0.03-0.3-0.05-0.62-0.06-0.96c-0.03-0.67-0.04-1.39-0.05-2.13c-0.01-2.95,0.1-6.18,0.33-8.77
							c-0.11,0.79-0.34-0.14-0.35-1.07c0.14-1.22-0.15-3.39,0.24-3.18l-0.03,0.43c0.44-0.9,0.46-3.41,0.58-5.37l-0.51-0.35
							c1.04-5.08,0.54-13.44,1.43-16.19c-0.05-1.24,0.06-2.78,0.02-4.01l0.28,0.09c0.32-3.42,0.48-5.13,0.74-9.36l0.14,0.88
							c0.1-1.14-0.03-1.9-0.18-2.61l-2.27-0.18c0.16,0.78,0.33,1.52,0.25,2.67l-0.47,0.63c-0.32,4.17-1.01,8.35-0.95,12.5
							c-0.06-0.07-0.17-0.2-0.13-0.88c-0.08,0.98-0.3,2.87-0.42,4.43c-0.02,0.39-0.05,0.76-0.07,1.09c0,0.08-0.01,0.16-0.01,0.24
							c0,0.08,0,0.04,0.01,0.07c0.01,0.03,0.02,0.06,0.03,0.09c0.05,0.11,0.13,0.27,0.27,0.32c-0.18-0.09-0.21,0.11-0.19,0.63
							c0.02,0.51,0.06,1.56,0.07,2.52l-0.17-1.44c0.09,1.11,0.14,2,0.16,2.76c0.02,0.78,0.02,1.49-0.03,2.69
							c-0.05,0.13-0.12-1.38-0.05-1.28c-0.07,0.01-0.06,0.7-0.06,1.53c0,0.8-0.01,1.78-0.09,1.86l-0.01-2.22
							c-0.05,0.49-0.06,0.97-0.07,1.83c-0.01,0.83-0.01,1.53-0.02,2.92c-0.03,1.08-0.09,1.66-0.14,1.44
							c-0.05-0.2-0.07-1.25-0.07-2.94c-0.01,0.6-0.03,1.98-0.07,3.79c-0.03,1.19-0.07,2.13-0.1,1.99c0.02-0.98,0.04-1.97,0.06-3.14
							c-0.05-0.53-0.12,1.37-0.2,3.37c-0.08,1.93-0.17,3.9-0.15,1.89c0.02-0.72,0.04-1.73,0.08-3.15c0.1-1.2,0.18-2.04,0.17-1.59
							c0.03-1.43,0.02-0.88,0.22-11.34c-0.04,1.5-0.09,3.39-0.15,5.43c-0.06,1.75-0.13,3.62-0.2,5.4c-0.02,0.3-0.03,0.11-0.01-0.73
							c0.02-0.67,0.04-1.32,0.06-1.86l0.02-0.49c0.01-0.67,0-0.34-0.04,0.32c0.02-0.78,0.03-1.27,0.04-2.02
							c0.14-3.85,0.07-2.59,0.07-3.07c-0.05,0.93-0.12,2.47-0.19,3.7c-0.04,0.91-0.01,0.17-0.15,3.51c0.01-0.4,0.03-0.4,0.04-0.22
							c0.01-0.05,0.01-0.02,0.02-0.24c-0.01,0.1-0.01,0.23-0.02,0.36c0.01,0.28,0.02,0.64,0.04,1.04c-0.1,2.18-0.2,3.48-0.1,0.24
							c-0.13,2.21-0.27,4.63-0.35,5.97c0.09-2.38,0.21-5.78,0.32-8.77c0.09-2.28,0.17-3.97,0.27-5.47
							c-0.03,0.18-0.05,0.19-0.08,0.13c-0.04-0.1-0.08-0.37-0.16-0.41c-0.08-0.04-0.19,0.09-0.39,0.62c-0.07-0.36,0.12-1.54,0.2-2.1
							c0.05,0.07,0.05,0.46,0.12,0.19c-0.07-0.1-0.1-0.82-0.15-1.37c-0.05-0.56-0.13-1.06-0.32-0.98c0.07-1.02,0.15-0.79,0.21-0.73
							c0.06,0.07,0.09,0.11,0.04-0.82c0.04,0.08,0.08,0.14,0.12,0.2c0.07-0.23,0.09-1.3,0.09-2.04c0-0.79-0.02-1.54-0.06-2.28
							c-0.08-1.48-0.21-2.89-0.35-4.32c-0.27-2.87-0.51-5.83-0.2-9.63c-0.04,0.53-0.05,0.79-0.11,0.9c0.04-1.69,0.03-3.4,0.01-5.12
							L11.88,12c-0.03,7.08,0.31,14.36-0.12,21.22c-0.11,2.42,0.13,2.69,0.31,4.17l-0.3,0.53l0.35,2.53
							c0.26,3.59-0.74,6.21-0.26,10.75l0.2-0.59c-0.04,1.63,0.12,5.17-0.11,4.89c0.04,0.17,0.21,0.53,0.11,1.17l-0.16,0.05
							l0.27,4.01c-0.11,3.11-0.63-0.49-0.66,4.05c0.06,1.68,0.46,4.8,0.57,4.16c0.01-0.68,0.1-1.74,0.26-1.79l0.08,1.54
							c0.47,0.28,0.94,1.46,1.27-2.32l-0.28-2.64l0.23-0.85l0.01,2.22c0.21-1.26,0.02-2.06-0.1-2.95c0.12-0.21,0.2-0.58,0.25-1.1
							l-0.44-2.59c0.18-0.31,0.36,1.16,0.46-0.58c-0.21-1.21-0.41,1.16-0.54-0.84c0.21-1.26,0.38-0.89,0.2-2.37
							c0.12-0.21,0.2,0.11,0.25,0.69c-0.14-1.32-0.06-3.49-0.31-4.17c0.26-1.31-0.07-4.45,0.37-4.32c-0.11-0.41-0.35-2.32-0.36-3.53
							c0.53,2.21,0.03-4.53,0.6-3.95c-0.47-1.64-0.21-5.91-0.47-8.81c0.04,0.16,0.11,0.48,0.09,0.74c0.04-1.63,0.18-2.11,0.27-3.15
							c-0.39-0.21-0.48-2.75-0.72-4.12c0.38-2,0.46,1.21,0.82,0.59c-0.32,0.1-0.32-3.47-0.58-2.79c0.23-1.53,0.11-1.32,0.44-2.11
							c-0.49-0.27-0.08-1.42-0.38-2.69c0.24-2.21,0.46-0.57,0.31-3C13.92,12.9,14.1,15.06,14.1,15.06z M13.43,67.36L13.43,67.36
							c-0.03-0.25-0.05-0.47-0.07-0.61C13.38,66.87,13.4,67.05,13.43,67.36z M13.81,66.11c-0.05,0.31-0.11,0.71-0.18,1.12
							c-0.02,0.01,0-0.19,0.04-0.52C13.64,66.95,13.74,66.3,13.81,66.11z M14.22,41.06c0.03-0.49-0.01,0.52-0.04,1.57
							c-0.01-0.02-0.01,0.01-0.03,0.16c-0.01,0.14-0.02,0.4-0.02,0.54C14.15,42.71,14.18,42.08,14.22,41.06z"/>
						<path class="st12" d="M13.95,46.6c-0.01,0.05-0.01,0.2-0.02,0.17c-0.01,0.43-0.03,0.83-0.04,1.24
							c0.02-0.44,0.05-0.89,0.07-1.29C13.96,46.68,13.95,46.64,13.95,46.6z"/>
						<path class="st12" d="M40.21,34.08l-0.04,0.1c0.03-0.06,0.06-0.1,0.08-0.09C40.22,34.11,40.23,34.07,40.21,34.08z"/>
						<polygon class="st12" points="15.28,29.32 15.35,29.31 15.32,28.89 						"/>
						<path class="st12" d="M39.65,44.52c0.05-0.03,0.12-0.1,0.24-0.26C39.87,44.26,39.77,44.37,39.65,44.52z"/>
						<path class="st12" d="M42.93,39.78l-0.41,1.38C42.71,40.55,42.84,40.1,42.93,39.78z"/>
						<path class="st12" d="M41.55,45.32c0.02,0.12,0.05,0.16,0.08,0.2l0.01-0.02L41.55,45.32z"/>
						<path class="st12" d="M30.13,44.72c0-0.03,0-0.03-0.01,0C30.05,44.99,30.07,44.94,30.13,44.72z"/>
						<path class="st12" d="M33.96,43.84c-0.09,0.72-0.18,1.48-0.3,2.22C33.86,45.16,34.02,44.39,33.96,43.84z"/>
						<path class="st12" d="M26.12,62.13c0-0.01,0,0,0-0.01l-0.04,0.03L26.12,62.13z"/>
						<path class="st12" d="M33.17,48.62c0.19-0.69,0.36-1.63,0.5-2.55C33.5,46.8,33.32,47.58,33.17,48.62z"/>
						<path class="st12" d="M49.48,42.95l-0.25,0.35c0.02,0,0.02,0.03,0.01,0.07L49.48,42.95z"/>
						<path class="st12" d="M49.24,43.36l-0.24,0.41C49.13,43.6,49.23,43.44,49.24,43.36z"/>
						<path class="st12" d="M48.51,44.65l0.5-0.87C48.81,44.07,48.57,44.42,48.51,44.65z"/>
						<path class="st12" d="M46.97,46.58l-0.16,0.31C46.89,46.78,46.95,46.67,46.97,46.58z"/>
						<path class="st12" d="M43.23,50.37c0.42-0.41,0.91-0.81,1.49-1.34c0.58-0.52,1.27-1.17,1.95-1.89l0.14-0.26
							c-0.32,0.43-1.04,1.06-1.71,1.65C44.42,49.14,43.79,49.68,43.23,50.37z"/>
						<path class="st12" d="M43.24,44.66l1.47-2.61c-0.34,0.41-0.79,0.95-0.18-0.26C42.48,44.98,45.1,41.21,43.24,44.66z"/>
						<path class="st12" d="M43.18,44.38c-0.23,1.13-0.15,0.99-0.08,0.84c0.1-0.25,0.27-0.83,0.29-0.77
							C43.63,42.94,43.65,42.72,43.18,44.38z"/>
						<path class="st12" d="M35.85,42.69l0.35-0.98C36.2,41.3,36.07,42.1,35.85,42.69z"/>
						<polygon class="st12" points="35.46,32.48 35.19,33.67 35.37,34.26 						"/>
						<polygon class="st12" points="34.71,31.74 34.78,31.2 34.47,33.25 						"/>
						<path class="st12" d="M27.02,44.86l-0.39,2.88C26.69,47.72,27.13,44.45,27.02,44.86z"/>
						<path class="st12" d="M24.25,37.27c-0.03-1.06-0.19-0.61-0.33,1.83C24.06,38.16,24.17,38.26,24.25,37.27z"/>
						<polygon class="st12" points="16.98,42.36 17.03,43.34 17.05,41.49 						"/>
					</g>
				</g>
			</g>
		</g>
	</g>
	<g>
		<pattern  id="SVGID_3_" xlink:href="#媛臾쇨껐_紐⑥뼇" patternTransform="matrix(1.168 0 0 1.168 1308.9908 1302.4728)">
		</pattern>
		<path class="st13" d="M11.5,14.5h5.52l-4.52,3.44l9-0.44l-8,3h12l-11,4l13-1l-14.68,6.29L30.5,25.5c0,0-19,8.45-19,8.72
			c0,0.28,24-6.72,24-6.72l-21,9l25-6l-25.61,10l29.46-9.12L12.5,44.77l32-11.27L15.15,46.78L48.5,36.5l-37,15l41-13l-40,17.43
			L53.1,40.5L13.94,62.36L52.5,43.5l-40,27l24-18"/>
		<g>
			<g>
				<g>
					<g>
						<path class="st12" d="M36.9,53.03c0.25-0.3-0.04-0.32-0.85,0.34l-0.4,0.71L36.9,53.03z"/>
						<path class="st12" d="M30.89,56.78c-0.89,0.87-1.86,1.95-1.04,1.71c0.79-0.99,1.1-1.06,1.93-2.15
							c0.82-0.66,1.53-1.01,1.46-0.81c0.25-0.29,1.35-0.92,1.68-1.43c-1.25,0.61-2.64,1.64-3.95,2.9
							C30.6,57.17,30.85,56.88,30.89,56.78z"/>
						<path class="st12" d="M24.14,56.85l0.61-0.25C24.58,56.66,24.37,56.75,24.14,56.85z"/>
						<path class="st12" d="M48.97,41.62c0.32-0.1,0.55-0.19,0.67-0.25C49.32,41.47,49.02,41.58,48.97,41.62z"/>
						<path class="st12" d="M38.39,45.01c0.33-0.12,0.61-0.22,0.92-0.32C39.02,44.76,38.67,44.87,38.39,45.01z"/>
						<path class="st12" d="M24.14,56.85l-1.57,0.65C22.51,57.66,23.39,57.2,24.14,56.85z"/>
						<path class="st12" d="M20.05,65.9c0.27-0.23,0.49-0.43,0.69-0.62c-0.23,0.18-0.45,0.36-0.67,0.55
							C20.06,65.85,20.06,65.87,20.05,65.9z"/>
						<path class="st12" d="M50.8,44.1l0.27-0.1c0.14-0.07,0.27-0.13,0.4-0.2L50.8,44.1z"/>
						<path class="st12" d="M39.93,52.93c0.65-0.43-0.12-0.25-0.38-0.22c0.13,0.05-0.09,0.27-0.5,0.57
							C39.21,53.24,39.47,53.14,39.93,52.93z"/>
						<path class="st12" d="M15.52,67.88l0.46-0.39C15.86,67.59,15.65,67.76,15.52,67.88z"/>
						<path class="st12" d="M37.34,50.03c0.04-0.07,0.01-0.09-0.06-0.08C37.2,50.03,37.24,50.04,37.34,50.03z"/>
						<path class="st12" d="M16.63,17.92c-0.01,0.02,0.02,0.03,0.02,0.05C16.76,17.89,16.79,17.86,16.63,17.92z"/>
						<path class="st12" d="M11.5,14.43l0.36-0.02c0.05-0.05,0.1-0.11,0.11-0.16L11.5,14.43z"/>
						<path class="st12" d="M17.27,52.65c0.04-0.01,0.05-0.02,0.08-0.03C17.83,52.41,17.56,52.52,17.27,52.65z"/>
						<path class="st12" d="M36.84,38.24c-1.37,0.48-1.54,0.47-1.66,0.43c-0.16-0.02-0.24-0.08-2.24,0.67
							c0.46-0.15,0.71-0.14,1.29-0.28C34.79,38.95,35.67,38.68,36.84,38.24z"/>
						<path class="st12" d="M19.58,66.2c-0.23,0.17-0.47,0.35-0.7,0.53C19.21,66.5,19.42,66.34,19.58,66.2z"/>
						<path class="st12" d="M32.94,39.35l-0.01,0l-0.4,0.15C32.69,39.44,32.79,39.4,32.94,39.35z"/>
						<path class="st12" d="M51.82,39.09c-0.09,0.04-0.23,0.1-0.39,0.18C51.5,39.24,51.62,39.19,51.82,39.09z"/>
						<path class="st12" d="M18.36,54.25l0.79-0.3C18.83,54.06,18.58,54.16,18.36,54.25z"/>
						<path class="st12" d="M45.49,39.95c-0.06-0.03,0.21-0.16-0.42,0.04c-0.06,0.03-0.13,0.07-0.21,0.11
							C45.31,39.94,45.59,39.85,45.49,39.95z"/>
						<path class="st12" d="M21.18,47.59c0.1-0.01,0.23-0.03,0.34-0.05c0.17-0.06,0.37-0.13,0.55-0.19L21.18,47.59z"/>
						<path class="st12" d="M12.89,28.47c0.4-0.09,0.67-0.1,0.88-0.1C13.43,28.29,15.89,27.16,12.89,28.47z"/>
						<path class="st12" d="M19.95,65.78c-0.04,0.12-0.15,0.24-0.37,0.43c0.17-0.13,0.33-0.26,0.48-0.38
							C20.08,65.76,20.07,65.72,19.95,65.78z"/>
						<path class="st12" d="M25.22,48.63l0-0.01c0-0.01-0.01-0.02-0.04-0.02c-0.07,0.04-0.08,0.06-0.02,0.05
							C25.18,48.64,25.2,48.64,25.22,48.63z"/>
						<path class="st12" d="M17.19,37.98l0.14-0.09C17.2,37.93,17.14,37.97,17.19,37.98z"/>
						<path class="st12" d="M23.82,49.08c0.17-0.16,0.16-0.21,0.08-0.23c-0.06,0.04-0.11,0.08-0.17,0.13
							C23.81,48.99,23.84,49.03,23.82,49.08z"/>
						<path class="st12" d="M13.78,28.37C13.77,28.37,13.77,28.37,13.78,28.37C13.77,28.37,13.77,28.37,13.78,28.37z"/>
						<path class="st12" d="M16.77,25.93c0.33-0.02,0.83-0.15,1.4-0.31c0.57-0.16,1.12-0.35,1.76-0.51
							c1.14-0.14,1.01-0.06,0.45,0.09c-0.55,0.15-1.39,0.35-1.76,0.48c0.04-0.01,0.07-0.01,0.1-0.02c0.25-0.05,0.68-0.12,0.89-0.11
							c0.22,0,0.24,0.08-0.03,0.19c-0.23,0.03-0.36,0.06-0.5,0.04c0.19,0.08-0.4,0.34-0.91,0.57c-0.33,0.15-0.66,0.29-0.99,0.44
							c-0.38,0.17-0.75,0.35-1.12,0.51c-0.72,0.34-1.39,0.69-1.94,1.02c-0.19,0.04-0.29,0.05-0.34,0.05
							c0.45,0.01,0.59,0.15,0.56,0.31c-0.64,0.28-1.19,0.59-1.65,0.81l0.2,0.61c0.4-0.12,0.72-0.18,0.95-0.12
							c-0.56,0.13-0.72,0.22-0.9,0.33l-0.34-1.01c0.06-0.04,0.12-0.09,0.19-0.15l-0.21,0.11l0.36,1.09l1.02-0.34
							c0.83,0.04-0.23,0.27-0.99,0.49l-0.46-1.39c0.36-0.17,0.63-0.33,0.6-0.4c-0.21,0.1-0.42,0.21-0.64,0.31l0.52,1.57
							c2.28-0.68,4.77-1.52,6.52-1.86c0.48,0.23-4.42,1.19-1.81,0.87l-2.97,0.59c2.38-0.02-1.8,0.4,0.4,0.45
							c3.9-0.84,4.29-1.22,8.18-2.06c0.83-0.39-0.35-0.2,0.47-0.6c4.62-1.42,4.65-0.57,7.01-1.18l-0.87-2.55
							c-0.37,0.17-0.81,0.4-1.33,0.71c-0.89,0.65-1.1,1.21-3.89,2.21l0.76-0.76c-3.54,1.55-1.78,1.4-5.58,2.83
							c0.59-0.43,2.71-1.36,2.16-1.17c-2.51,0.8-1.6,0.96-3.43,1.79l-0.52-0.14c-1.86,0.88-3.79,1.84-5.78,2.87l-0.75,0.4
							l-0.41,0.23l-0.13,0.08l-0.03,0.02l-0.02,0.01c-0.04,0.03-0.09,0.06-0.13,0.1c-0.18,0.16-0.32,0.44-0.35,0.66
							c0.01,0.08-0.05,0.01,0.04,0.41c0.05,0.16,0.18,0.36,0.35,0.48c0.17,0.12,0.34,0.17,0.46,0.19c0.15,0.01,0.11,0.01,0.17,0.01
							l0.12-0.01l0.04-0.01l0.15-0.03c0.63-0.15,1.14-0.31,1.69-0.47c1.09-0.32,2.18-0.65,3.27-0.97c-0.22,0.16-0.94,0.48,0.12,0.29
							c5.49-1.71,11.8-3.31,17.18-4.66l1.69-0.76l-0.77-2.15l-0.37,0.2c-0.66,0.28-1.37,0.44-0.65,0.07
							c-1.61,0.63-1.61,0.68-1.37,0.66c0.25-0.02,0.67-0.09,0.05,0.24c-1.56,0.69-2.46,0.87-1.49,0.36c-1.79,0.86-3.97,1.9-6.2,2.93
							c-2.24,1.04-4.54,2.07-6.93,3.09c-0.63,0.42-1.4,0.86-2.06,1.22c-0.02-0.04-0.05-0.08-0.09-0.11
							c-0.55,0.39-0.31,0.49-0.42,0.65c-0.05,0.15-0.42,0.38-1.08,0.76c0.04,0,0.1-0.01,0.15-0.01l-0.16,0.01l0.11-0.07l-0.11,0.07
							c1.5-0.07,3.06-0.14,4.55-0.2c1.05-0.25,2.04-0.48,2.83-0.65c2.04-0.46,4.01-0.91,5.89-1.33c1-0.22,1.97-0.43,2.92-0.63
							c0.5-0.11,0.99-0.21,1.48-0.31c0.25-0.05,0.5-0.1,0.75-0.16l0.38-0.08c0.02,0,0.09-0.02,0.07-0.01l-0.05,0.02l-0.11,0.03
							c-0.64-0.03-1.73,0.24-3.42,0.66c-0.85,0.21-1.73,0.43-2.52,0.63c-0.72,0.17-1.19,0.27-0.82,0.12
							c1.28-0.39,2.04-0.62,2.49-0.76c-2.93,0.99-4.32,1.42-5.64,1.84c-0.72,0.23-1.6,0.51-3.8,1.2c-0.34,0.11,1.57-0.37,2.07-0.42
							c0.1,0,0.11,0.02,0,0.08l-2.1,0.49c0.4-0.04,0.68-0.03,0.84,0.02l-2.59,0.62c-0.08,0.06-0.18,0.13-0.31,0.2
							c0.34-0.12,1.28-0.35,1.68-0.41c-0.35,0.21-1.52,0.61-2.42,0.86c-0.92,0.26-1.57,0.38-1.74,0.36
							c-0.36,0.2-0.83,0.44-1.39,0.73l0.76,2.18l0.79-0.34c-0.17,0.18-0.52,0.34-0.71,0.48c0.2-0.14,0.37-0.22,0.43-0.22
							c0.07-0.01,0.05,0.04,0.03,0.09c-0.02,0.09-0.17,0.23,0.36-0.08c0.02-0.08,0.38-0.31,0.54-0.42c0.21,0.13,0.79-0.05,2.04-0.52
							l-1.37,0.65c0.18-0.04,0.47-0.13,0.92-0.29c0.41-0.15,0.83-0.3,1.26-0.45c0.49-0.17,1.01-0.35,1.29-0.44
							c2.52-0.98,3.2-1.25,3.54-1.38c1.5-0.58,3.1-1.18,3.72-1.39l-4.52,1.74c1.64-0.61,1.98-0.75,2.41-0.92
							c0.45-0.18,0.93-0.37,3.26-1.22c0.43-0.09-5.34,2.04-7.12,2.7l2.38-0.85c-1.23,0.46-3.19,1.18-4.57,1.7
							c1.17-0.44,1.01-0.37,0.44-0.15c-0.62,0.23-1.33,0.5-1.99,0.74c-0.32,0.12,0,0,1.66-0.59l-1.46,0.53
							c-0.19,0.08-0.01,0.03,0.12,0c0.14-0.03,0.25-0.05,0.11,0.03c-0.06,0.03-0.15,0.07-0.25,0.12c2.31-0.7,1.19-0.28,2.19-0.46
							c-1.08,0.4-2.22,0.83-3.41,1.28c-1.05,0.39-1.88,0.69-2.56,1c-0.34,0.22-0.36,0.3-0.25,0.32c0.1,0.03,0.32,0,0.13,0.18
							c-0.27-0.02-0.83,0.16-1.19,0.26c-0.38,0.11-0.53,0.13-0.21-0.1c-0.1,0.05-0.2,0.09-0.24,0.11l0.88,2.24
							c3.79-1.37,5.12-1.86,10.09-3.82c-0.62,0.11-1.29,0.29-0.98,0.09c0.96-0.38,2.25-0.68,2.15-0.51l-0.25,0.12
							c5.89-2.48,14.13-4.19,18.75-6.38l-0.26,0.12l2.45-1.01l-0.8-1.98l-3.24,1.62c-1.56,0.68-1.2,0.47-0.72,0.18
							c0.47-0.28,1.11-0.66-0.24-0.13c-1.81,0.93-3.35,1.69-4.86,2.39c-1.51,0.7-2.97,1.35-4.45,2c-2.92,1.28-6.03,2.63-8.19,3.77
							c-1.92,0.7-3.84,1.48-5.8,2.31c-0.83,0.49-0.68,0.74-0.81,1.08c-0.07,0.32-0.43,0.73-0.67,1.07c0.15,0.04,0.25,0.09,0.24,0.18
							l0.16-0.11c0.24-0.02,0.34-0.01,0.31,0.05c-0.02,0.06-0.14,0.15-0.13,0.21c0.35-0.18,0.07-0.22,0.47-0.29
							c0.98-0.03,2.11-0.13,2.85-0.04c5.93-1.76,11.93-3.54,17.93-5.33l4.1-1.2l2.66-0.75c1.77-0.51,3.54-1.01,5.29-1.51l-1.06-2.99
							c-0.6,0.23-1.19,0.46-1.77,0.69c-3.74,1.46-1.77,1.71-6.61,3.22l1.21-0.85c-7.36,3.41-15.35,6.21-22.58,9.5
							c0.41-0.25,0.38-0.35,1.1-0.63c-1.64,0.41-5.74,2.32-5.7,2.51c-1.15,0.44-0.33-0.06-1.07,0.14c-0.47,0.15-0.99,0.36-1.51,0.6
							l0.95,2.64c1.31-0.48,2.65-1.09,3.3-1.12c0.16-0.01-0.43,0.22-0.71,0.33c1.01-0.44,4.87-1.51,3.79-1.46
							c1.44-0.39,2.79-0.85,4.06-1.28c0.39-0.13,0.76-0.26,1.12-0.38c0.17-0.05,0.33-0.09,0.41-0.07c0.42-0.29,0.83-0.39,1.07-0.44
							c0.27-0.06,0.46-0.12,1.61-0.71c-1.94,1.08-1.1,0.73,1.46-0.3c0.03-0.01,0.05-0.02,0.06-0.03c-0.14,0.06-0.18,0.08-0.23,0.1
							c-0.26,0.11-0.17,0.08-0.4,0.17c-0.6,0.27-0.67,0.33-2.2,0.97c0.16-0.05,0.5-0.19,1.19-0.46c2-0.8,2.4-0.97,3.02-1.21
							c-1.27,0.55-1.64,0.71-1.37,0.61c0.72-0.26,1.42-0.52,2.08-0.76c0.43-0.16,0.85-0.31,1.25-0.46c0.34-0.12,0.57-0.2,0.57-0.2
							s-0.24,0.11-0.85,0.34c-1.09,0.42-2.11,0.8-3.07,1.17c0.21-0.08,0.42-0.15,0.6-0.22c2.75-0.97,2.69-0.79,1.56-0.18
							c-0.18,0.09-0.33,0.17-0.48,0.25c-1.2,0.36-1.41,0.39-1.33,0.33c0.1-0.09,1.74-0.73-2.01,0.56c0.4-0.12,0.87-0.24,1.19-0.3
							c0.38-0.07,0.53-0.04,0.28,0.12c-0.24,0.16-0.89,0.47-1.83,0.84c-0.4,0.14-0.47,0.12-0.51,0.08
							c-0.04-0.04-0.07-0.08-0.18-0.08c-0.15,0.11-0.5,0.29-0.87,0.46c-0.55,0.24-1.09,0.48-1.63,0.71
							c-2.34,1.02-4.61,2.01-6.78,3.09c0-0.04,0.46-0.29,0.89-0.52c-0.87,0.39-2.06,0.83-1.88,0.97l0.83-0.42
							c1.51-0.34-3.22,2.08-3.32,2.29c0.36-0.34,0.15-0.34-0.32-0.19l0.39,0.97c1.08-0.27,3.6-1.31,2.07-0.16
							c0.57-0.26,1.27-0.63,1.09-0.71c0.88-0.29,1.19-0.32,0.36,0.16c3.15-1.32,1.94-1.09,4.84-2.19c0.03,0.1-0.55,0.35-0.8,0.58
							c1.4-0.74,2.8-1.48,5.27-2.33c-0.13,0.11,0.19,0.08-0.54,0.35c2.09-0.81,3.84-1.61,5.64-2.41c2.01-0.87,3.21-1.41,4.65-1.86
							c-1.67,1.1,0.65-0.1-0.47,0.73l1.39-0.65c0.15-0.12,0.27-0.23,0.34-0.32c0.53-0.2,1.37-0.59,2.27-0.98
							c0.91-0.4,1.88-0.81,1.98-0.79l-2.04,0.94l2.77-1.13c0.01-0.05-0.05-0.08-0.17-0.09c1.49-0.67,2.53-1.19,3.23-1.54
							c0.71-0.36,1.22-0.6,2.02-0.85c-0.91,0.39,1.99-0.75,0.29,0.13l-0.02,0.01c0.83-0.36,1.67-0.73,2.6-1.13
							c0.14-0.02-0.26,0.24-1.64,0.94c-3.74,1.7-2.96,1.34-5.39,2.45c1.47-0.64,0.9-0.3,0.34,0.04c-0.58,0.35-1.15,0.7-0.43,0.49
							c-0.24,0.05-1.75,0.66-2.13,0.83c0.47-0.17,0.9-0.31,1.29-0.43c-0.72,0.35-1.12,0.54-1.49,0.69c-0.3,0.13-0.58,0.23-0.98,0.38
							c-0.94,0.5-0.15,0.2,0.53-0.07c0.71-0.28,1.19-0.46-0.62,0.43c0.09-0.07-0.18,0.04-0.01-0.11c-1.42,0.73-2.25,1.24-3.3,1.87
							c-0.55,0.32-1.08,0.64-1.62,0.95l-1.01,0.56l-1.18,0.62c-1.1,0.18,2.66-1.59,1.46-1.28c-4.43,2.55-9.02,5.55-13.37,7.88
							l0.82-0.41c-0.34,0.8-3.34,1.57-5.4,3c0.52-0.33,0.56-0.65,0.44-0.52c-0.72,0.38-1.44,0.78-2.18,1.2l0.69,1.31
							c2.4-1.21,5-2.65,8.45-4.48l-0.51,0.4c1.85-0.77,4.75-2.25,6.71-3.14c0.51-0.4,1.63-0.92,0.87-0.77
							c0.58-0.2,1.15-0.42,1.7-0.65c0.39-0.16,0.77-0.31,1.15-0.47c0.63-0.27,1.22-0.57,1.92-0.94c0.8-0.44,1.59-0.87,2.37-1.29
							c0.87-0.47,1.81-0.98,2.61-1.38c1.14-0.58,2.04-0.97,1.44-0.48c-0.43,0.21-1.86,1.04-1.58,0.9l3.81-2
							c1.13-0.68,1.39-0.85,1.53-0.95c0.13-0.1,0.16-0.13,0.66-0.48c1.79-1.03,4.16-2.31,5.27-2.85c-1.88,1-2.83,1.57-3.55,2.02
							c-0.41,0.27-1.22,0.79-1.7,1.1c2.02-1.17,1.53-0.88,2.77-1.6c-0.15,0.09-0.28,0.18-0.39,0.25c-2.36,1.43-0.84,0.55,0.49-0.19
							c0.67-0.38,1.31-0.73,1.4-0.75c0.11-0.03-0.35,0.27-1.7,1.11l-1.15,0.63c-0.13,0.13-0.03,0.12-0.11,0.23
							c-0.08,0.1-0.34,0.32-1.07,0.79c-2.74,1.53-0.02-0.13-2.04,0.96c-0.52,0.36-0.08,0.21-0.07,0.31c0.05,0.08-0.32,0.4-1.66,1.18
							l-0.33,0.19c0.01-0.01,0.03-0.03,0.06-0.06c0.2-0.21,0.95-0.72,0.94-0.8c-1.17,0.67-1.96,1.13-2.6,1.5
							c-0.47,0.28-0.69,0.41-0.93,0.57c-0.18,0.11-0.38,0.24-0.64,0.4l0.12-0.07l-2.4,1.45l0.8-0.44c0.52-0.14,0.5-0.01,0.27,0.2
							c-0.24,0.22-0.69,0.54-1.16,0.86c-0.48,0.33-0.99,0.66-1.48,1.02c-0.51,0.37-0.98,0.74-1.63,1.32
							c0.64-0.56,0.84-0.78,0.93-0.9c0.09-0.12,0.03-0.11-0.08-0.07c-0.21,0.09-0.61,0.32-0.65,0.16c-0.18,0.07-0.73,0.39-1.07,0.56
							c-0.35,0.18-0.57,0.28-0.44,0.14c-1.2,1.11-2.35,1.35-4.04,2.92c-0.14-0.02-1.44,0.96-1.27,0.55
							c-1.7,1.24,0.51-0.14,0.43,0.06c-2.5,2.09-6.54,3.93-10.15,6.92c-2.05,1.53-2.97,2.36-4.16,3.35l0.22,0.3
							c0.62-0.58,1.34-1.22,2.4-2.08c1.1-0.63-0.61,0.9-0.61,0.9c1.71-1.1,2.92-2.04,4.38-3.28c-0.26,0.3,0.1,0.12,0.64-0.14
							c1.21-0.94,0.61-0.9,2.32-2c-0.21,0.3-0.47,0.7-0.99,1.23c1.39-1.16,2.72-2.38,4.16-3.57c0.5-0.16-0.75,0.88-1.21,1.37
							c1.64-1.33,4.27-3.4,4.63-4l-1.14,0.73c0.61-0.47,0.45-0.05,0.03,0.33c-1.32,1.25-2.14,1.49-2.28,1.47l1.03-0.85
							c-1.44,0.36-4.23,3.29-6.4,4.88l0.65-1l-2,1.93c-0.53,0.27-0.99,0.32,0.03-0.53c-1.66,0.99-1.28,1.14-2.74,1.95
							c-0.17,0.08-0.11,0.02,0.01-0.1l-1.43,1.23c0.24-0.29-0.43-0.05,0.53-0.69c-0.95,0.61-1.73,1.21-2.38,1.74l0.51,0.71
							c1.39-1.02,2.29-1.84,3.11-2.14l-0.22,0.18c3.81-2.74,0.2-0.51,2.92-2.77l2.38-0.7l0.21-0.51c0.41-0.26,1.21-0.78,1.13-0.58
							c1.37-1.18-0.33,0.06,0.43-0.69c2.08-1.07,5.25-3.7,5.95-3.59c0.56-0.66-1.94,1.1,0.02-0.43c0.88,0.04,2.33-1.68,4.23-2.67
							c-0.39,0.59-2.14,1.6-0.24,0.61c0.22-0.28,0.49-0.53,0.94-0.85c0.48-0.34,1.04-0.69,1.67-1.07c1.23-0.75,2.87-1.71,3.77-2.37
							c-0.48,0.11,0.35-0.5,1.62-1.37c1.27-0.86,3.11-2.08,4.25-2.92l0.07-0.06c0.34-0.15,1.56-0.97,2.8-1.85
							c1.26-0.89,2.55-1.86,3.32-2.45l0.07-0.02c-0.29,0.09,0.44-0.47,1.34-1.13c-0.6,0.27-1.23,0.55-1.78,0.8
							c0.35-0.22,0.72-0.4,1.37-0.65L51.07,44c-0.42,0.21-0.91,0.43-1.84,0.85l0.99-0.58c-0.55,0.19-1.26,0.49-2.11,0.87
							c-0.84,0.37-1.81,0.83-2.51,1.09c-0.64,0.31-1.26,0.59-1.85,0.84c-0.74,0.51-0.87,0.77-1.57,1.3
							c-0.67,0.51-1.82,1.25-3.57,2.2c0.54-0.42,1.42-1.11,2.65-1.77c-0.42,0.22-1.6,0.91-1.94,1.01l2.51-1.49
							c-1.26,0.5-1.74,1.07-2.88,1.6c0.76-0.59-0.48,0.08,0.22-0.44c0.45-0.24,0.95-0.37,1.8-0.87c-1.45,0.67-3.15,1.37-3.62,1.43
							c-0.07,0.16-0.58,0.58-1.8,1.21c-1.55,0.76-1.77,0.81-1.84,0.76c-0.07-0.05,0.07-0.21-0.97,0.24
							c-0.22,0.15-0.52,0.31-0.85,0.48c-0.28,0.15-0.59,0.31-0.88,0.46c-0.45,0.24-0.82,0.46-0.77,0.6
							c-0.69,0.34-0.88,0.28-1.18,0.33c-1.17,0.72-5.7,2.83-4.18,2.44l0.32-0.13c-0.06,0.03-0.12,0.07-0.19,0.11c0.01,0,0,0,0.01,0
							l-0.01,0c-3.53,2.02-7.59,3.61-11.24,5.43l0.41,0.79c0.35-0.21,0.7-0.41,1.05-0.61l0.04,0.09c2.25-1.39,5.1-2.93,6.65-4.03
							c0.68-0.38,1.7-0.74,1.46-0.48c1.73-1.05,1.87-1.26,4.5-2.54c-1.69,1.14,0.69-0.21-1.76,1.13c2.33-1.21,2.93-1.36,5.26-2.97
							c-0.36,0.34,0.11,0.17,0.8-0.17c0.35-0.17,0.75-0.38,1.13-0.6c0.19-0.11,0.37-0.21,0.55-0.31c0.19-0.11,0.36-0.22,0.51-0.31
							l-1.75,0.77c0.3-0.18,0.6-0.35,0.88-0.51c0.32-0.18,0.64-0.36,0.95-0.53c0.8-0.44,1.58-0.86,2.36-1.29
							c-0.1,0.18-0.23,0.38-0.41,0.61c2.76-1.38,5.36-2.87,7.31-4.05c1.73-1.06,3.36-2.07,4.93-3.03c0.27-0.33,1.24-0.91,2.56-1.63
							c-0.24-0.02-0.61,0.24-1.13,0.55c-0.49,0.3-1.15,0.68-1.52,0.72c0.8-0.5,1.99-1.15,2.74-1.59c0.78-0.46,1.17-0.74,1.26-0.84
							c0.4-0.35,0.45-0.49,0.64-0.66c-0.2,0.03-0.45,0.09-0.81,0.19c-0.35,0.1-0.85,0.25-1.36,0.35c-0.02,0.05-0.09,0.12-0.42,0.28
							c-0.34,0.16-0.98,0.42-2.26,0.92c-0.98,0.34-1.07,0.27-0.65-0.01c0.41-0.27,1.21-0.67,1.78-0.87c0.34-0.09,0.35-0.05,0.2,0.03
							c0.61-0.21,1.22-0.37,1.16-0.5l-0.52,0.24c-0.22-0.08-1.64,0.15-0.28-0.48c-1.26,0.39-1.46,0.68-1.08,0.7
							c-0.14-0.04-0.3-0.06-0.49-0.06c-1.54,0.58-2.91,1.1-4.35,1.65c-1.48,0.57-2.98,1.13-4.76,1.76c0.64-0.17,0.88-0.12,0.17,0.15
							c-6.42,2.28-3.34,1.51-7.31,3.07c-1.79,0.49,0.46-0.64-2.54,0.66c-1.91,0.59-0.51-0.14,0.2-0.52c-2.7,1.27-5.25,1.84-6.86,2.4
							l1.43-0.65c-0.86,0.39-1.57,0.66-2.31,0.93l0.92-0.1c-0.87,0.29-1.6,0.56-1.62,0.47c-0.83,0.48,0.82,0.11-0.86,0.98
							c-1.19,0.32-3.45,1.45-3.96,1.3c3.65-1.27-0.51-0.14,2.52-1.35c-0.58,0.26-1.29,0.53-2.17,0.82c-0.14,0.02,0.1-0.11,0.33-0.21
							c-3.55,1.05-1.46,0.94-5.04,2.29c0.14-0.12,0.06-0.15-0.15-0.12l0.9,2.21c0.29-0.03,0.98-0.26,1.35-0.45
							c-1.42,0.61-0.79,0.02,0.45-0.67c2.3-0.85,2.4-1.16,3.59-1.66l-1.37,0.53c0.38-0.36,1.52-0.83,3.06-1.56
							c0.19,0.07-1.39,0.71-0.8,0.52c0.81-0.52,1.82-0.88,2.93-1.26c0.55-0.19,1.13-0.39,1.71-0.61l0.45-0.18l0.67-0.29
							c0.45-0.2,0.89-0.41,1.31-0.62c0.92-0.33,1.11-0.33,1.25-0.3c0.15,0.02,0.24,0.06,1.18-0.3c2.12-1.05,3.43-1.56,5.03-2.18
							c1.54-0.6,3.35-1.31,5.42-2.31c-1.39,0.47-2,0.69-2.04,0.66c-0.05-0.02,0.53-0.33,1.36-0.82l-6.63,3.07
							c1.26-0.68,2.31-1.26,3.14-1.75c-1.01,0.44-1.89,0.86-2.76,1.28c-0.86,0.41-1.69,0.8-2.38,1.08c1.54-0.88,1.35-0.74-0.13-0.31
							c1.83-0.6,3.08-1.21,4.04-1.7c1.02-0.52,1.71-0.91,3.97-1.76l3.95-1.08c2.98-1.18,5-2.09,6.54-2.83
							c-0.14-0.07-0.34-0.12-0.22-0.29c0.11-0.16,0.55-0.44,1.33-0.84l-1.19,0.54c-0.56,0.14-0.2-0.05,0.28-0.3
							c0.49-0.25,1.04-0.53,1.27-0.68c0.6-0.17,1.23-0.48,1.7-0.7c-0.19,0.06,0.09-0.12,0.37-0.31c0.27-0.19,0.6-0.4,0.71-0.46
							l0.02-0.01c-0.38,0.09-0.66,0.13-0.84,0.13c-0.68,0.08-1.38,0.26-2.52,0.63c-1.08,0.35-2.57,0.88-3.7,1.16
							c1-0.37,1.37-0.55,1.85-0.76c0.46-0.2,1.01-0.41,1.88-0.65c-0.5,0.08-0.71,0.04-1.56,0.41c0.21-0.13-0.55,0.1-1.44,0.39
							c-0.87,0.27-1.86,0.6-1.34,0.31c-0.31,0.12-0.57,0.22-0.84,0.33c-1.32,0.52-2.77,1.1-3.99,1.48c0.12-0.08,0.77-0.35,0.77-0.35
							c-0.39,0.17-1.35,0.51-2.18,0.83c-0.85,0.32-1.53,0.6-1.63,0.75c0.06-0.18-0.92,0.05-2.3,0.46c-1.38,0.4-3.14,0.97-4.82,1.51
							c-1.69,0.55-3.31,1.08-4.77,1.52c-0.73,0.22-1.43,0.42-2.1,0.6c-0.38,0.1-0.57,0.14-0.81,0.19c-0.23,0.05-0.45,0.09-0.66,0.12
							c-2.56,0.88-5.64,1.93-7.98,2.68c0.13-0.1-0.02-0.1,0.43-0.22c-1.66,0.43-2.1,0.72-2.62,1.03l0.33,0.91
							c0.48-0.34,1.03-0.71,2.83-1.33c1.94-0.44-1.83,0.93-0.65,0.58c0.74,0.4,4.28-1.83,6.82-2.45l-0.57,0.27
							c1.92-0.54,4.39-2.04,7.41-3.22c0,0-0.12,0.11,0.02,0.1c1.93-1.14,5.77-2.82,8.62-4.07c-0.8,0.6-1.26,0.66-0.62,0.67
							c1.28-0.56-0.53-0.23,2.02-1.34c0.89-0.21,2.8-0.85,3.15-0.7l-2.43,1c1.38-0.18,3.15-1.29,4.46-1.75l-0.11,0.21
							c3.14-1.32,3.56-1.8,6.07-2.9l-0.38-1.07c-0.45,0.15-0.98,0.32-1.62,0.51l0.46-0.02c-2.15,1.07-1.96,0.37-4.13,1.35l-0.8-0.17
							c-0.37,0.14-0.87,0.33-1.46,0.56c-0.57,0.22-1.36,0.51-1.75,0.68c-0.98,0.4-2.4,0.93-3.6,1.34c1.04-0.47,2.07-0.91,2.87-1.25
							c0.35-0.16,0.71-0.31,1.05-0.47c0.55-0.22,1.07-0.42,1.52-0.6c-0.37,0.12-0.87,0.27-1.42,0.44c-0.26,0.09-0.54,0.19-0.81,0.28
							c-0.55,0.2-1.18,0.46-1.64,0.7c0.45-0.18,0.97-0.44,1.19-0.44c-1.28,0.72-3.92,1.69-6.3,2.42c0.95-0.46,1.31-0.67,1.42-0.77
							c0.09-0.1-0.1-0.07-0.42,0.01c-0.45,0.11-1.22,0.35-1.52,0.4c-0.3,0.05-0.06-0.1,1.8-0.85c-1.65,0.61-2.67,0.94-3.09,1.05
							c1.05-0.44,2.12-0.88,3.23-1.34c1.06-0.43,1.86-0.75,2.25-0.95c-1.3,0.44-1.92,0.64-2.12,0.71c-0.4,0.13-0.53,0.16-0.53,0.16
							c0.01-0.02,0.47-0.21,0.2-0.15c-0.13,0.01-0.59,0.14-1.81,0.52c0.76-0.39,1.26-0.6,1.61-0.72c1.86-0.71,3.52-1.33,4.98-1.85
							c1.45-0.46-0.07,0.18,0.77-0.05c0.89-0.37,1.34-0.51,1.79-0.63c0.44-0.11,0.93-0.23,1.6-0.45c-0.53,0.12-0.77,0.14-0.71,0.07
							c0.06-0.07,0.42-0.24,0.92-0.42c-0.63,0.18-1.35,0.4-2.16,0.67c0.24-0.2,0.68-0.41,1.1-0.57c0.43-0.16,0.85-0.28,1.24-0.39
							c0.39-0.1,0.73-0.19,1.05-0.3c0.32-0.12,0.6-0.25,1.01-0.52c-0.15,0.14-0.26,0.26-0.35,0.37c0.19-0.12,0.52-0.29,0.93-0.49
							l-1.06-2.65c-2.65,0.97-6.19,2.26-7.65,3.15c-0.41,0.07-0.99,0.1-0.03-0.29c-5.31,1.79-11.58,4.63-15.79,5.79l0.35-0.28
							c-0.97,0.39-1.62,0.87-2.91,1.16c0.04-0.08,0.35-0.28-0.11-0.13c-0.5,0.23-2.53,1.17-3.86,1.55l1.06-0.55
							c-1.12,0.35-2.11,0.69-3.01,1.03L13,45.93c2.66-1.19,4.76-2.23,6.55-3.13c1.81-0.91,3.32-1.7,5.35-2.62
							c1.01-0.2,3.15-0.97,5.69-1.96c2.52-0.98,5.34-2.15,7.25-2.94l0.36-0.09c1.49-0.65,2.91-1.27,4.18-1.82
							c-0.11-0.25-0.58-0.36-0.59-0.62c-0.04-0.24,0.37-0.62,1.3-1.2c0.09-0.06,0.19-0.11,0.31-0.19c-0.66,0.09-1.17,0.02-1.8-0.01
							c-0.6-0.05-1.39-0.05-1.54-0.29c-1.35,0.39-2.64,0.75-3.84,1.1c0.49-0.11-0.22,0.2-1.23,0.6c-1.02,0.4-2.33,0.89-3.24,1.19
							c-0.76,0.19-2.65,0.85-3.91,1.28c-1.27,0.43-2.04,0.67-1.01,0.14l0.72-0.22c0.13-0.25-1.23,0.1-3.05,0.63
							c-1.89,0.58-4.03,1.24-5.91,1.82c-0.44,0.32-0.85,0.63-1.22,0.93c-1.03,0.21-2.35,0.54-3.8,0.94l0.71,2.02
							c2.01-0.71,4.24-1.57,6.37-2.42c2.04-0.83,4.09-1.66,6.01-2.44c3.74-1.53,6.69-2.71,10.8-4c0.01,0,0.01,0,0.01,0
							c-0.35-0.01-0.37-0.12-0.36-0.23c0.01-0.11,0.06-0.23,0-0.31l1.25-0.29c0.69-0.55,0.89-0.85,1.23-1.33
							c-0.74,0.03-1.91,0.08-3.31,0.15c0.33-0.05,0.66-0.08,1-0.11c-1.41,0.01-2.27,0.13-3.08,0.36c-0.4,0.12-0.8,0.24-1.24,0.37
							c-0.17,0.04-0.07,0.04-0.08,0.06c0.01,0.02,0.01,0.03,0,0.04c-0.01,0.03-0.04,0.05-0.06,0.06c0.24-0.2,0.63-0.44,1.17-0.72
							c0.53-0.13,1.11-0.28,1.84-0.48l-5.25,1.16c-0.34,0.04-0.57,0.1-3.03,0.89c0.21-0.07,0.53-0.18,2.12-0.72
							c-0.14,0.03,0-0.05,0-0.07c0.35-0.13,0.48-0.19,0.15-0.1c-0.34,0.09-1.07,0.3-2.74,0.82c2.71-0.84,1.87-0.64,1.91-0.82
							c0.11-0.1,0.24-0.2,0.37-0.3l1.22-0.22c-0.42-0.01-0.59-0.07-0.54-0.17c0.06-0.11,0.36-0.3,1.22-0.72
							c0.59-0.21,1.05-0.21,0.27,0.05c0.95-0.33,1.01-0.42,1.2-0.58c0.17-0.14,0.49-0.35,1.56-0.73c-0.16,0.13-0.3,0.26-0.41,0.37
							c1.31-0.54,1.24-0.59,1.83-1.02l-0.4-1.1c-0.06,0.04-0.18,0.1-0.31,0.16c-1.44,0.54-4.45,1.22-4.87,1.08
							c-0.27,0.24-1.5,0.81-2.89,1.13c-0.21-0.04,0.27-0.24,0.52-0.34c-3.96,0.94-5.73,1.98-8.49,2.48
							c-0.08-0.07-0.27-0.07-0.5-0.03c3.11-0.87,5.62-1.58,5.39-1.49c-0.07-0.25-2.59,0.43-0.69-0.48
							c-1.96,0.76-5.29,2.15-7.77,2.71c-0.13,0.01-0.25,0.02-0.35,0l0.25-0.1c-0.57,0.13-1.07,0.29-1.54,0.46
							c-0.79,0.17-1.3,0.27-2.03,0.45c-0.07-0.04-0.32-0.01-0.56,0.02l-0.04,0l0,0c0,0.03-0.01-0.11,0.02,0.22
							c0.01,0.1,0.02,0.25,0.04,0.31c0.02,0.07,0.03,0.13,0.03,0.2c0.02,0.14,0.01,0.27,0,0.41c0.02,0.03,0.03,0.08,0,0.09
							c-0.04,0,0.1,0,0.14,0.02c0.12,0.03,0.23,0.12,0.29,0.26c0.03,0.06,0.05,0.14,0.05,0.21c0,0.07-0.02,0.14,0.1,0.27
							c0.23,0.33,0.15,0.21,0.17,0.23l0.03-0.01l0.08-0.04c0.16-0.08,0.34-0.17,0.52-0.26c0.78-0.37,1.67-0.8,2.25-1.08
							c-0.22-0.21,1.34-0.88-0.2-0.42c0.2-0.07-0.21,0.13-0.98,0.51c-0.17,0.09-0.38,0.19-0.49,0.26c0.02-0.02,0.04-0.04,0.07-0.06
							c-0.37,0.19-0.8,0.4-1.28,0.64l-0.16,0.09l-0.05,0.03l-0.01,0.01l-0.01,0l0,0c-0.03-0.03-0.02-0.07-0.02-0.1
							c0.01-0.24-0.12-0.47-0.32-0.54c-0.05-0.02-0.1-0.03-0.15-0.03c-0.07,0,0.03,0,0.01-0.04c-0.04-0.03,0-0.18-0.01-0.29
							c0-0.11-0.01-0.23-0.04-0.34l-0.02-0.09c0-0.05-0.01-0.11-0.01-0.09l0.01,0l0.06-0.01l0.19-0.04
							c0.28-0.07,0.57-0.14,0.87-0.22c-0.24,0.1-0.48,0.19-0.72,0.28c-0.11,0.04-0.23,0.08-0.35,0.11l-0.02,0.01c0,0-0.01,0-0.01,0
							c0.02,0.1,0.04,0.22,0.04,0.33c0.01,0.1-0.02,0.25,0,0.31c0.02,0.03,0.01,0.06-0.02,0.07c-0.02,0,0.08,0,0.12,0.01
							c0.2,0.03,0.36,0.24,0.37,0.48c-0.07,0.06-0.05,0.04-0.05,0.04l0.01-0.01L12,34.72l0.06-0.04c0.46-0.28,1.04-0.54,1.71-0.78
							c0.52-0.45,1.11-0.93,1.45-1.18c1.78-0.39,4.99-1.62,5.53-1.6c3.27-1.64,7.72-3.59,10-5.05l-0.4-1.18
							c-0.24,0.1-0.45,0.18-0.63,0.27c-1.08,0.33-1.3,0.16-1.73,0.18c0.62-0.21,1.38-0.38,1.7-0.54c-2.16,0.66-6.5,1.63-6.93,2.12
							c-2.81,0.51,1.48-0.71-2.31,0.27l0.49-0.23c-3.16,0.51-5.75,1.27-8.31,2.06l0.5,1.5c1.69-0.85,3.36-1.73,5.2-2.58
							c0.56-0.25,1.12-0.5,1.7-0.76c0.63-0.26,1.27-0.53,1.93-0.81c1.36-0.56,2.9-1.15,4.95-1.9c-0.94,0.35-1.38,0.52-1.74,0.61
							c1.97-0.79,4.01-1.63,5.99-2.47c-2.65,0.19-5.54,0.42-8.37,0.66c-2.77,0.24-5.55,0.47-8.32,0.71L14.68,25
							c2.34-0.87,4.61-1.7,7-2.54c2.39-0.84,4.9-1.7,7.87-2.68c-0.16-0.01-0.32-0.02-0.47-0.02c-3.18-0.11-4.76,0.13-7.33,0.31
							c0.09-0.1,0.15-0.2,0.18-0.3l-4.4,0.35c-1.54,0.08-2.71,0.04-4.04-0.03l0.15,0.81c2.44-0.73,4.91-1.25,8.08-2.78l3.92-1.88
							l-4.18,0.61c-0.05,0.01-0.1,0.01-0.15,0.02l0.15,0.04l3.7,0.94l-3.46,0.21l-0.53,0.03c0.14-0.05,0.3-0.11,0.48-0.17l2.84-1.03
							l-3.02,0.17c-0.97,0.05-2.29,0.13-3.33,0.19c-0.58,0.03-0.82,0.03-1.05,0.03c-0.21-0.01-0.29-0.04-0.21-0.1
							c-0.12,0.04-0.63,0.24-1.03,0.16l0.2-0.17l-2.14,0.26l1.12-0.99c2.88-2.06,1.69-0.58,4.89-2.91c-0.23,0-0.66-0.01-1.13-0.01
							c-1.55,0.03-3.8,0.15-5.3,0.27c-1.53,0.12-2.34,0.25-1.91,0.3c0.96,0.01,2.33,0.1,2.19,0.26l-1.91,0.08
							c-0.21,0.23-0.57,0.47-0.43,0.69c0.15,0.22,0.61,0.42,1.15,0.58c0.44-0.08,1-0.16,1.67-0.25l-0.22,0.22l-1.47,0.84l1.12-0.86
							l-0.46,0.01c0.01,0.06,0.06,0.09,0.16,0.1c-0.73,0.54-0.92,0.84-1.23,1.19c-0.56,0.28-1.17,0.63-1.8,1.06l-0.81,1.05
							l1.33-0.17c0.03,0.09-0.73,0.22-1.19,0.32c-0.44,0.1-0.56,0.18,1.08,0.15c1.46-0.17,1.05-0.26,0.93-0.34
							c-0.15-0.09-0.04-0.18,1.74-0.33c1.74,0.13,1.16,0.33,3.89,0.01c0.37,0.1-0.2,0.21-1.39,0.32c0.6-0.05,1.3-0.11,2.03-0.17
							c0.45-0.04,0.92-0.07,1.36-0.11c0.89-0.07,1.69-0.15,2.07-0.29c0.05,0,0.1,0.01,0.16,0.01l-0.37-1.78
							c-1.52,0.34-4.51,1.77-4.53,1.32c-0.39,0.25-2.21,1.18-3.47,1.69l-4.75,1.9l5.07-0.15c0.03,0,0.05,0,0.08,0
							c-0.04,0.01-0.07,0.02-0.08,0.04l-0.33-1.82c0.46-0.3,0.34-0.32-0.07-0.2l-4.44,1.31l4.84,0.92c0.47,0.09,2.44-0.06,1.33,0.35
							c0.59-0.18,1.29-0.25,1.98-0.29c0.68-0.02,1.46-0.05,2.2-0.07c-0.26,0.11-0.45,0.22-0.53,0.31c-0.08-0.01-0.29-0.02-0.05-0.08
							c-0.99,0.32-1.77,0.45-2.42,0.59c1.29-0.05,0.14,0.46-0.57,0.98c-0.91,0.13-0.7-0.07-0.6-0.22c0.13-0.17,0.19-0.31-0.2-0.36
							c0.35,0.09-0.12,0.34-0.53,0.58l-6.94,4.27l7.41-2.1c0.26-0.07,0.49-0.15,0.36-0.24c0.46,0.08,0.59,0.1,0.7,0.13
							c0.09,0.03,0.13,0.08,0.09,0.25c0.38-0.27,0.63-0.31,0.89-0.33c0.28-0.02,0.5-0.01,1.29-0.22c0.35,0.09-0.02,0.24-0.16,0.31
							c-0.14,0.08-0.16,0.1,0.7-0.05c-0.06,0.08-0.56,0.2-0.96,0.29C17.19,25.83,16.77,25.93,16.77,25.93z M16.82,33.63L16.82,33.63
							c-0.54,0.16-1,0.29-1.29,0.38C15.8,33.93,16.17,33.82,16.82,33.63z M22.1,32.14c-0.64,0.18-1.44,0.4-2.29,0.64
							c-0.21-0.04-0.04-0.19,0.49-0.34C20.03,32.58,21.29,32.29,22.1,32.14z M12.74,34.9c-0.17,0.1-0.32,0.17-0.44,0.24l-0.04,0.02
							l-0.02,0.01c-0.01-0.01,0.01,0.02-0.02-0.01l-0.17-0.24c-0.08-0.09-0.04-0.13-0.05-0.18c0-0.05-0.01-0.1-0.02-0.15
							c-0.05-0.2-0.2-0.33-0.37-0.36c-0.03-0.01-0.11-0.01-0.1-0.01c0.02,0,0.04-0.02,0.03-0.05c-0.03-0.02-0.01-0.14-0.01-0.22
							c0.01-0.19-0.02-0.32-0.06-0.53c-0.01-0.13-0.03-0.27-0.04-0.4l0,0c0.08,0,0.22,0,0.27,0.02c-0.08,0.02-0.16,0.04-0.25,0.06
							l-0.01,0l0,0l0,0l0.01,0.1c0.02,0.15,0.03,0.32,0.05,0.38c0.03,0.18,0.04,0.37,0.02,0.55c0.01,0.02,0.03,0.04,0.02,0.07
							c0,0.02-0.07,0.02,0,0.02c0.08,0,0.17,0.02,0.24,0.07c0.15,0.1,0.23,0.3,0.22,0.5c-0.03,0.04,0.06,0.13,0.11,0.2l0.07,0.11
							l0,0l0.01-0.01l0.04-0.02c0.15-0.09,0.4-0.23,0.67-0.37c0.02-0.02,0.06-0.06,0.07-0.07C12.93,34.71,12.86,34.8,12.74,34.9z"/>
						<path class="st12" d="M13.96,33.9c0.11-0.06,0.17-0.1,0.31-0.17c-0.17,0.06-0.33,0.11-0.49,0.16
							c-0.08,0.07-0.16,0.15-0.24,0.21C13.68,34.04,13.83,33.97,13.96,33.9z"/>
						<path class="st12" d="M24.86,56.55l-0.11,0.05c0.09-0.03,0.18-0.06,0.24-0.07C24.91,56.55,24.91,56.54,24.86,56.55z"/>
						<polygon class="st12" points="18.91,37.16 19.39,37.05 19.15,37.08 						"/>
						<path class="st12" d="M45.42,47.57c-0.1,0.06-0.29,0.18-0.66,0.4C44.8,47.95,45.08,47.78,45.42,47.57z"/>
						<path class="st12" d="M38.39,52.29l-1.46,0.86C37.59,52.78,38.05,52.5,38.39,52.29z"/>
						<path class="st12" d="M33.09,55.7c-0.01,0.07,0,0.11,0.01,0.14c0,0,0.01-0.01,0.01-0.01C33.11,55.78,33.1,55.74,33.09,55.7z"
							/>
						<path class="st12" d="M16.98,52.8c0.12-0.06,0.24-0.11,0.35-0.17C18.13,52.22,17.58,52.49,16.98,52.8z"/>
						<path class="st12" d="M46.86,43.32c-0.82,0.36-1.63,0.71-2.48,1.08C44.67,44.32,44.97,44.21,46.86,43.32z"/>
						<path class="st12" d="M25.21,48.64c0.04-0.02,0.01,0,0.05-0.02L25.21,48.64L25.21,48.64z"/>
						<path class="st12" d="M43.08,44.9c-0.02,0.07,0.48-0.13,1.31-0.49C44.17,44.47,43.92,44.53,43.08,44.9z"/>
						<path class="st12" d="M27.21,60.56l0.39-0.28c-0.02-0.01,0-0.04,0.02-0.07L27.21,60.56z"/>
						<path class="st12" d="M27.62,60.21l0.41-0.35C27.83,60.01,27.66,60.14,27.62,60.21z"/>
						<path class="st12" d="M28.89,59.13l-0.86,0.73C28.34,59.63,28.73,59.35,28.89,59.13z"/>
						<path class="st12" d="M16.53,68.41l-0.06,0.17C16.52,68.52,16.55,68.46,16.53,68.41z"/>
						<path class="st12" d="M13.33,70.85c0.78-0.56,2.06-1.27,3.09-2.13l0.05-0.14C16.06,69.08,13.95,70.17,13.33,70.85z"/>
						<path class="st12" d="M26.33,61.75l-2.84,1.82c0.55-0.24,1.27-0.55,0.02,0.33C27.21,61.79,22.64,64.19,26.33,61.75z"/>
						<path class="st12" d="M35.69,55.62c-1.01,0.71-0.98,0.74-0.67,0.58c0.31-0.16,0.91-0.52,0.9-0.47
							C37.23,54.72,37.41,54.57,35.69,55.62z"/>
						<path class="st12" d="M24.07,57.44l-0.03,0.31C25.24,57.04,24,57.66,24.07,57.44z"/>
						<path class="st12" d="M34.95,49.85c-0.34,0.13-0.64,0.24-0.91,0.32c0.02,0.08,0,0.18-0.03,0.29L34.95,49.85z"/>
						<path class="st12" d="M50.91,42.97l0.08,0.04l-0.17,0.11l0.19-0.11c-0.04-0.1-0.05-0.21-0.03-0.33
							C50.94,42.78,50.92,42.88,50.91,42.97z"/>
						<path class="st12" d="M25.34,46.01c0.14,0.07,0.26,0.14,0.35,0.22C27.04,45.74,27.97,45.07,25.34,46.01z"/>
						<path class="st12" d="M47.13,36.16c-0.62,0.03-2.12,0.38-2.98,0.81C45.33,36.63,46.54,36.38,47.13,36.16z"/>
						<polygon class="st12" points="14.51,41.59 14.34,41.67 13.51,39.3 15.16,38.69 13.5,39.25 14.36,41.72 15.96,41.05 						"/>
					</g>
				</g>
			</g>
		</g>
	</g>
</g>
</svg>
