<svg xmlns="http://www.w3.org/2000/svg" xmlns:xlink="http://www.w3.org/1999/xlink" viewBox="0 0 1988.94 1239.9"><defs><style>.cls-1{fill:url(#무제_그라디언트_71);}.cls-2{fill:url(#무제_그라디언트_73);}.cls-3{fill:url(#무제_그라디언트_20);}.cls-4{fill:url(#무제_그라디언트_30);}.cls-5{fill:url(#무제_그라디언트_35);}.cls-6{fill:url(#무제_그라디언트_47);}.cls-7{fill:url(#무제_그라디언트_47-2);}.cls-8{opacity:0.62;fill:url(#무제_그라디언트_47-3);}.cls-9{fill:#9b81aa;}.cls-10{fill:#956aba;}.cls-11{fill:#d8c7ea;}.cls-12{fill:url(#무제_그라디언트_95);}.cls-13{fill:url(#무제_그라디언트_95-2);}.cls-14{fill:url(#무제_그라디언트_95-3);}.cls-15{fill:url(#무제_그라디언트_95-4);}.cls-16{fill:url(#무제_그라디언트_105);}.cls-17{fill:url(#무제_그라디언트_121);}.cls-18{fill:url(#무제_그라디언트_121-2);}.cls-19{fill:url(#무제_그라디언트_121-3);}.cls-20{fill:url(#무제_그라디언트_121-4);}.cls-21{fill:url(#무제_그라디언트_121-5);}.cls-22{fill:url(#무제_그라디언트_105-2);}.cls-23{fill:url(#무제_그라디언트_105-3);}.cls-24{fill:url(#무제_그라디언트_105-4);}.cls-25{fill:url(#무제_그라디언트_105-5);}.cls-26{fill:url(#무제_그라디언트_105-6);}.cls-27{fill:url(#무제_그라디언트_105-7);}.cls-28{fill:url(#무제_그라디언트_105-8);}.cls-29{fill:#f8e3fc;}.cls-30{fill:#697ecc;}.cls-31{opacity:0.48;fill:url(#무제_그라디언트_31);}.cls-32{fill:url(#무제_그라디언트_105-9);}.cls-33{fill:url(#무제_그라디언트_105-10);}.cls-34{fill:url(#무제_그라디언트_71-2);}.cls-35{fill:url(#무제_그라디언트_105-11);}.cls-36{fill:url(#무제_그라디언트_53);}.cls-37{fill:url(#무제_그라디언트_71-3);}.cls-38{fill:url(#무제_그라디언트_105-12);}.cls-39{fill:#a199c1;}.cls-40{fill:url(#무제_그라디언트_105-13);}.cls-41{fill:url(#무제_그라디언트_105-14);}.cls-42{fill:#7a4f77;}.cls-43{fill:#b57daf;}.cls-44{fill:url(#무제_그라디언트_105-15);}.cls-100,.cls-102,.cls-103,.cls-45,.cls-76,.cls-78,.cls-79,.cls-80,.cls-81,.cls-88,.cls-89,.cls-90,.cls-91,.cls-92,.cls-93,.cls-94,.cls-95,.cls-96,.cls-97,.cls-98,.cls-99{fill:none;stroke-miterlimit:10;}.cls-45{stroke:#98659b;}.cls-45,.cls-76{stroke-width:5px;}.cls-46{fill:url(#무제_그라디언트_105-16);}.cls-47,.cls-48{opacity:0.58;}.cls-47{fill:url(#무제_그라디언트_26);}.cls-48{fill:url(#무제_그라디언트_26-2);}.cls-49{fill:#dac8e8;}.cls-50{fill:#fff;}.cls-51{fill:#202228;}.cls-52{fill:#ff92ea;}.cls-53{fill:#89a6e5;}.cls-54{fill:#ece2f7;}.cls-55{fill:#4f4fa3;}.cls-56{fill:url(#무제_그라디언트_95-5);}.cls-57{fill:url(#무제_그라디언트_95-6);}.cls-58{fill:url(#무제_그라디언트_95-7);}.cls-59{fill:url(#무제_그라디언트_95-8);}.cls-60{fill:url(#무제_그라디언트_95-9);}.cls-61{fill:url(#무제_그라디언트_95-10);}.cls-62{fill:url(#무제_그라디언트_95-11);}.cls-63{fill:url(#무제_그라디언트_95-12);}.cls-64{fill:url(#무제_그라디언트_95-13);}.cls-65{fill:#754475;}.cls-66{fill:url(#무제_그라디언트_53-2);}.cls-67{fill:url(#무제_그라디언트_71-4);}.cls-68{fill:url(#무제_그라디언트_71-5);}.cls-69{fill:url(#무제_그라디언트_62);}.cls-70{fill:url(#무제_그라디언트_44);}.cls-71{fill:url(#무제_그라디언트_44-2);}.cls-72{fill:url(#무제_그라디언트_62-2);}.cls-73{fill:url(#무제_그라디언트_62-3);}.cls-74{fill:url(#무제_그라디언트_66);}.cls-75{fill:url(#무제_그라디언트_95-14);}.cls-100,.cls-102,.cls-103,.cls-76,.cls-90{stroke:#c38fd8;}.cls-77{fill:#c38fd8;}.cls-78{stroke:#b5b0ed;}.cls-100,.cls-78,.cls-88{stroke-width:4px;}.cls-79{stroke:#a170c1;}.cls-79,.cls-81,.cls-96{stroke-width:8px;}.cls-80,.cls-88{stroke:#bab3e8;}.cls-80{stroke-width:9px;}.cls-81{stroke:#b8b7ed;}.cls-82{fill:#bab3e8;}.cls-83{fill:#9d99d6;}.cls-84{fill:#b1b1dd;}.cls-85{fill:#cccaff;}.cls-86{fill:#afb0ff;}.cls-87{fill:#c3c8ff;}.cls-89,.cls-97{stroke-width:12px;}.cls-89{stroke:url(#무제_그라디언트_71-6);}.cls-90,.cls-91,.cls-92,.cls-93,.cls-94,.cls-95,.cls-99{stroke-width:6px;}.cls-91{stroke:url(#무제_그라디언트_71-7);}.cls-92{stroke:url(#무제_그라디언트_71-8);}.cls-93{stroke:url(#무제_그라디언트_71-9);}.cls-94{stroke:url(#무제_그라디언트_71-10);}.cls-95{stroke:url(#무제_그라디언트_71-11);}.cls-96{stroke:url(#무제_그라디언트_71-12);}.cls-97{stroke:url(#무제_그라디언트_71-13);}.cls-103,.cls-98{stroke-width:7px;}.cls-98{stroke:url(#무제_그라디언트_71-14);}.cls-99{stroke:url(#무제_그라디언트_71-15);}.cls-101{fill:#a170c1;}.cls-102{stroke-width:3px;}.cls-104{fill:url(#무제_그라디언트_20-2);}.cls-105{fill:url(#무제_그라디언트_20-3);}.cls-106{fill:url(#무제_그라디언트_20-4);}.cls-107{fill:#dab2ed;}.cls-108{fill:#c2b5f7;}.cls-109{fill:url(#무제_그라디언트_15);}.cls-110{fill:url(#무제_그라디언트_15-2);}.cls-111{fill:url(#무제_그라디언트_15-3);}.cls-112{fill:url(#무제_그라디언트_15-4);}.cls-113{fill:url(#무제_그라디언트_15-5);}.cls-114{fill:url(#무제_그라디언트_15-6);}.cls-115{fill:url(#무제_그라디언트_15-7);}</style><linearGradient id="무제_그라디언트_71" x1="1010" y1="341.78" x2="1068.28" y2="1302.62" gradientUnits="userSpaceOnUse"><stop offset="0" stop-color="#ffe6ff"/><stop offset="1" stop-color="#bddbf2"/></linearGradient><linearGradient id="무제_그라디언트_73" x1="289.29" y1="881.56" x2="292.35" y2="998.49" gradientUnits="userSpaceOnUse"><stop offset="0" stop-color="#fffff1"/><stop offset="0.54" stop-color="#bddbf2"/></linearGradient><linearGradient id="무제_그라디언트_20" x1="965.62" y1="739.5" x2="979.4" y2="1079.5" gradientUnits="userSpaceOnUse"><stop offset="0" stop-color="#ffe6ff"/><stop offset="1" stop-color="#d789f2"/></linearGradient><linearGradient id="무제_그라디언트_30" x1="333.19" y1="817.62" x2="334.98" y2="861.99" gradientUnits="userSpaceOnUse"><stop offset="0" stop-color="#a4c5ff"/><stop offset="1" stop-color="#9889f2"/></linearGradient><linearGradient id="무제_그라디언트_35" x1="1377.3" y1="661.83" x2="1384.91" y2="849.61" gradientUnits="userSpaceOnUse"><stop offset="0" stop-color="#ffe6ff"/><stop offset="1" stop-color="#d7f0b9"/></linearGradient><linearGradient id="무제_그라디언트_47" x1="1840.88" y1="899.64" x2="1850.11" y2="1127.4" gradientUnits="userSpaceOnUse"><stop offset="0" stop-color="#fffaff"/><stop offset="1" stop-color="#fffed7"/></linearGradient><linearGradient id="무제_그라디언트_47-2" x1="233.78" y1="522.55" x2="247.03" y2="849.37" xlink:href="#무제_그라디언트_47"/><linearGradient id="무제_그라디언트_47-3" x1="1068.58" y1="624.94" x2="1073.87" y2="755.31" xlink:href="#무제_그라디언트_47"/><linearGradient id="무제_그라디언트_95" x1="1070.68" y1="988.2" x2="1799.03" y2="988.2" gradientUnits="userSpaceOnUse"><stop offset="0" stop-color="#ff779f"/><stop offset="0.52" stop-color="#4a4172"/></linearGradient><linearGradient id="무제_그라디언트_95-2" x1="1187.12" y1="953.1" x2="1303.91" y2="953.1" xlink:href="#무제_그라디언트_95"/><linearGradient id="무제_그라디언트_95-3" x1="1592.08" y1="999.67" x2="1742.81" y2="999.67" xlink:href="#무제_그라디언트_95"/><linearGradient id="무제_그라디언트_95-4" x1="1454.79" y1="1078.06" x2="1515.89" y2="1078.06" xlink:href="#무제_그라디언트_95"/><linearGradient id="무제_그라디언트_105" x1="1326.09" y1="984.61" x2="1683.32" y2="984.61" gradientUnits="userSpaceOnUse"><stop offset="0" stop-color="#7c5a9f"/><stop offset="0.52" stop-color="#2a2a57"/></linearGradient><linearGradient id="무제_그라디언트_121" x1="1311.01" y1="1015.41" x2="1357.48" y2="1015.41" gradientTransform="translate(14.21 -7.1)" gradientUnits="userSpaceOnUse"><stop offset="0" stop-color="#eceadc"/><stop offset="0.79" stop-color="#dcd2d2"/></linearGradient><linearGradient id="무제_그라디언트_121-2" x1="1408.4" y1="1009.12" x2="1469.5" y2="1009.12" gradientTransform="translate(68.56 -40.53)" xlink:href="#무제_그라디언트_121"/><linearGradient id="무제_그라디언트_121-3" x1="1417.39" y1="1011.57" x2="1463.85" y2="1011.57" gradientTransform="translate(773.85 -3.25) scale(0.35 1)" xlink:href="#무제_그라디언트_121"/><linearGradient id="무제_그라디언트_121-4" x1="1537.7" y1="1001" x2="1584.16" y2="1001" gradientTransform="translate(2532.48 -552.62) rotate(90)" xlink:href="#무제_그라디언트_121"/><linearGradient id="무제_그라디언트_121-5" x1="2509.3" y1="1064.67" x2="2555.77" y2="1064.67" gradientTransform="matrix(0.34, 0.04, -0.13, 0.99, 857.76, -153.99)" xlink:href="#무제_그라디언트_121"/><linearGradient id="무제_그라디언트_105-2" x1="1421.8" y1="1005.44" x2="1457.72" y2="1005.44" xlink:href="#무제_그라디언트_105"/><linearGradient id="무제_그라디언트_105-3" x1="1409.57" y1="1004.94" x2="1416.75" y2="1004.94" xlink:href="#무제_그라디언트_105"/><linearGradient id="무제_그라디언트_105-4" x1="1325.73" y1="986.07" x2="1348.46" y2="986.07" xlink:href="#무제_그라디언트_105"/><linearGradient id="무제_그라디언트_105-5" x1="1265.89" y1="997.91" x2="1281.72" y2="997.09" xlink:href="#무제_그라디언트_105"/><linearGradient id="무제_그라디언트_105-6" x1="1522.17" y1="988.49" x2="1538.06" y2="988.49" xlink:href="#무제_그라디언트_105"/><linearGradient id="무제_그라디언트_105-7" x1="1507.65" y1="997.77" x2="1555.92" y2="995.25" xlink:href="#무제_그라디언트_105"/><linearGradient id="무제_그라디언트_105-8" x1="1588.7" y1="1009.18" x2="1607.95" y2="1008.17" xlink:href="#무제_그라디언트_105"/><linearGradient id="무제_그라디언트_31" x1="1257.06" y1="1004.62" x2="1608.83" y2="986.29" gradientUnits="userSpaceOnUse"><stop offset="0" stop-color="#7c5a9f"/><stop offset="0.52" stop-color="#0f1431"/></linearGradient><linearGradient id="무제_그라디언트_105-9" x1="1526.08" y1="1027.64" x2="1528.42" y2="1066.26" xlink:href="#무제_그라디언트_105"/><linearGradient id="무제_그라디언트_105-10" x1="1668.1" y1="941.5" x2="1669.45" y2="963.65" xlink:href="#무제_그라디언트_105"/><linearGradient id="무제_그라디언트_71-2" x1="1268.45" y1="705.9" x2="1279.12" y2="881.81" xlink:href="#무제_그라디언트_71"/><linearGradient id="무제_그라디언트_105-11" x1="1424.6" y1="946.33" x2="1428" y2="1002.4" xlink:href="#무제_그라디언트_105"/><linearGradient id="무제_그라디언트_53" x1="1324.17" y1="690.54" x2="1336.59" y2="895.43" gradientUnits="userSpaceOnUse"><stop offset="0" stop-color="#ffacff"/><stop offset="1" stop-color="#ac89f2"/></linearGradient><linearGradient id="무제_그라디언트_71-3" x1="1487.68" y1="680.69" x2="1500.21" y2="887.18" xlink:href="#무제_그라디언트_71"/><linearGradient id="무제_그라디언트_105-12" x1="1340.75" y1="994.46" x2="1342.36" y2="1021.03" xlink:href="#무제_그라디언트_105"/><linearGradient id="무제_그라디언트_105-13" x1="1348.19" y1="1018.11" x2="1350.01" y2="1048.11" xlink:href="#무제_그라디언트_105"/><linearGradient id="무제_그라디언트_105-14" x1="1276.08" y1="997.15" x2="1278.97" y2="1044.84" xlink:href="#무제_그라디언트_105"/><linearGradient id="무제_그라디언트_105-15" x1="1341.44" y1="1187.14" x2="1532.06" y2="1187.14" xlink:href="#무제_그라디언트_105"/><linearGradient id="무제_그라디언트_105-16" x1="1341.44" y1="1159.98" x2="1532.06" y2="1159.98" xlink:href="#무제_그라디언트_105"/><linearGradient id="무제_그라디언트_26" x1="1594.64" y1="844.92" x2="1601.31" y2="954.94" gradientUnits="userSpaceOnUse"><stop offset="0" stop-color="#8259aa"/><stop offset="0.05" stop-color="#8c5cae"/><stop offset="0.26" stop-color="#b466c0"/><stop offset="0.42" stop-color="#cd6ccb"/><stop offset="0.52" stop-color="#d66ecf"/></linearGradient><linearGradient id="무제_그라디언트_26-2" x1="1327.24" y1="844.92" x2="1333.92" y2="954.94" gradientTransform="matrix(-1, 0, 0, 1, 2604.67, 0)" xlink:href="#무제_그라디언트_26"/><linearGradient id="무제_그라디언트_95-5" x1="1067.82" y1="859.33" x2="1075.94" y2="859.33" gradientTransform="translate(654.9 2020.91) rotate(-90)" xlink:href="#무제_그라디언트_95"/><linearGradient id="무제_그라디언트_95-6" x1="1067.53" y1="782.84" x2="1075.66" y2="782.84" gradientTransform="translate(654.9 2020.91) rotate(-90)" xlink:href="#무제_그라디언트_95"/><linearGradient id="무제_그라디언트_95-7" x1="1064.62" y1="704.26" x2="1072.75" y2="704.26" gradientTransform="translate(654.9 2020.91) rotate(-90)" xlink:href="#무제_그라디언트_95"/><linearGradient id="무제_그라디언트_95-8" x1="1062.42" y1="624.17" x2="1069.36" y2="624.17" gradientTransform="translate(654.9 2020.91) rotate(-90)" xlink:href="#무제_그라디언트_95"/><linearGradient id="무제_그라디언트_95-9" x1="1058.19" y1="545.94" x2="1065.12" y2="545.94" gradientTransform="translate(654.9 2020.91) rotate(-90)" xlink:href="#무제_그라디언트_95"/><linearGradient id="무제_그라디언트_95-10" x1="1065.23" y1="1022.01" x2="1073.35" y2="1022.01" gradientTransform="translate(654.9 2020.91) rotate(-90)" xlink:href="#무제_그라디언트_95"/><linearGradient id="무제_그라디언트_95-11" x1="1061.79" y1="1105.77" x2="1068.66" y2="1105.77" gradientTransform="translate(654.9 2020.91) rotate(-90)" xlink:href="#무제_그라디언트_95"/><linearGradient id="무제_그라디언트_95-12" x1="1405.77" y1="652.31" x2="1410.57" y2="652.31" gradientTransform="translate(-218.2 226.42) rotate(3.57)" xlink:href="#무제_그라디언트_95"/><linearGradient id="무제_그라디언트_95-13" x1="1051.7" y1="1205.5" x2="1058.56" y2="1205.5" gradientTransform="translate(654.9 2020.91) rotate(-90)" xlink:href="#무제_그라디언트_95"/><linearGradient id="무제_그라디언트_53-2" x1="1560.62" y1="675.14" x2="1571.34" y2="851.82" xlink:href="#무제_그라디언트_53"/><linearGradient id="무제_그라디언트_71-4" x1="1574.98" y1="674.82" x2="1586.6" y2="866.3" xlink:href="#무제_그라디언트_71"/><linearGradient id="무제_그라디언트_71-5" x1="1430.56" y1="829.17" x2="1440.47" y2="992.69" xlink:href="#무제_그라디언트_71"/><linearGradient id="무제_그라디언트_62" x1="1177.48" y1="829.17" x2="1187.49" y2="992.81" gradientTransform="matrix(-1, 0, 0, 1, 2610.15, 0)" gradientUnits="userSpaceOnUse"><stop offset="0" stop-color="#ffe67c"/><stop offset="1" stop-color="#bddbf2"/></linearGradient><linearGradient id="무제_그라디언트_44" x1="1054.07" y1="929.27" x2="1392.74" y2="929.27" gradientUnits="userSpaceOnUse"><stop offset="0" stop-color="#cfbeff"/><stop offset="1" stop-color="#a0aff2"/></linearGradient><linearGradient id="무제_그라디언트_44-2" x1="838.82" y1="931.55" x2="1181.29" y2="931.55" gradientTransform="matrix(-1, 0.02, 0.02, 1, 2632.84, -20.3)" xlink:href="#무제_그라디언트_44"/><linearGradient id="무제_그라디언트_62-2" x1="1303.75" y1="958.58" x2="1342.39" y2="958.58" gradientTransform="matrix(1, 0, 0, 1, 0, 0)" xlink:href="#무제_그라디언트_62"/><linearGradient id="무제_그라디언트_62-3" x1="1056.93" y1="960.23" x2="1095.57" y2="960.23" gradientTransform="matrix(-1, 0, 0, 1, 2615, 0)" xlink:href="#무제_그라디언트_62"/><linearGradient id="무제_그라디언트_66" x1="1429.6" y1="916.99" x2="1432.67" y2="967.58" gradientUnits="userSpaceOnUse"><stop offset="0" stop-color="#ffe6ff"/><stop offset="0.52" stop-color="#e1e6f2"/></linearGradient><linearGradient id="무제_그라디언트_95-14" x1="1067.53" y1="940.27" x2="1075.66" y2="940.27" gradientTransform="translate(654.9 2020.91) rotate(-90)" xlink:href="#무제_그라디언트_95"/><linearGradient id="무제_그라디언트_71-6" x1="1004.77" y1="189.3" x2="1017.1" y2="392.53" xlink:href="#무제_그라디언트_71"/><linearGradient id="무제_그라디언트_71-7" x1="576.37" y1="287.07" x2="605.32" y2="764.26" gradientTransform="translate(79.11 -52.4) rotate(1.81)" xlink:href="#무제_그라디언트_71"/><linearGradient id="무제_그라디언트_71-8" x1="646.72" y1="59.16" x2="678.21" y2="578.39" gradientTransform="translate(97.69 -123.16) rotate(8.29)" xlink:href="#무제_그라디언트_71"/><linearGradient id="무제_그라디언트_71-9" x1="943.32" y1="195.3" x2="943.32" y2="195.3" xlink:href="#무제_그라디언트_71"/><linearGradient id="무제_그라디언트_71-10" x1="720.54" y1="547.02" x2="720.54" y2="547.02" xlink:href="#무제_그라디언트_71"/><linearGradient id="무제_그라디언트_71-11" x1="626.09" y1="478.69" x2="633.84" y2="606.41" xlink:href="#무제_그라디언트_71"/><linearGradient id="무제_그라디언트_71-12" x1="598.28" y1="29.86" x2="644.33" y2="789.14" xlink:href="#무제_그라디언트_71"/><linearGradient id="무제_그라디언트_71-13" x1="1072.44" y1="385.45" x2="1094.55" y2="749.99" xlink:href="#무제_그라디언트_71"/><linearGradient id="무제_그라디언트_71-14" x1="739.27" y1="52.79" x2="791.15" y2="908.11" xlink:href="#무제_그라디언트_71"/><linearGradient id="무제_그라디언트_71-15" x1="839.91" y1="158.03" x2="863.34" y2="544.21" xlink:href="#무제_그라디언트_71"/><linearGradient id="무제_그라디언트_20-2" x1="1569.32" y1="379.86" x2="1576.93" y2="567.63" xlink:href="#무제_그라디언트_20"/><linearGradient id="무제_그라디언트_20-3" x1="257.81" y1="413.24" x2="263.26" y2="547.49" xlink:href="#무제_그라디언트_20"/><linearGradient id="무제_그라디언트_20-4" x1="191.21" y1="868.69" x2="191.21" y2="868.69" xlink:href="#무제_그라디언트_20"/><linearGradient id="무제_그라디언트_15" x1="554.18" y1="516.75" x2="612.84" y2="516.75" gradientTransform="translate(31.89 -49.05) rotate(4.67)" gradientUnits="userSpaceOnUse"><stop offset="0" stop-color="#e182ff"/><stop offset="0.54" stop-color="#6686c8"/></linearGradient><linearGradient id="무제_그라디언트_15-2" x1="613.5" y1="522.61" x2="671.39" y2="522.61" xlink:href="#무제_그라디언트_15"/><linearGradient id="무제_그라디언트_15-3" x1="672.75" y1="527.05" x2="729.96" y2="527.05" xlink:href="#무제_그라디언트_15"/><linearGradient id="무제_그라디언트_15-4" x1="564.64" y1="605.64" x2="619.29" y2="605.64" xlink:href="#무제_그라디언트_15"/><linearGradient id="무제_그라디언트_15-5" x1="623.39" y1="610.85" x2="682.34" y2="610.85" xlink:href="#무제_그라디언트_15"/><linearGradient id="무제_그라디언트_15-6" x1="678.45" y1="614.41" x2="734.32" y2="614.41" xlink:href="#무제_그라디언트_15"/><linearGradient id="무제_그라디언트_15-7" x1="732.36" y1="618.14" x2="784.57" y2="618.14" xlink:href="#무제_그라디언트_15"/></defs><g id="_17배경" data-name="17배경"><rect class="cls-1" x="72.75" y="157.36" width="1916.19" height="1056.19"/><path class="cls-2" d="M233.94,874.26s70.09-88.82,141.14,3.67c0,0,54-54.58,94.63,21.58,0,0,38.28-30.53,93.31,25.82,0,0,166.74,50.62,41.92,79.31,0,0-307.28,25.42-393.4,5,0,0,176.79,36.85-153,55.79,0,0-153.31,11.54-63.06-44.25,0,0-134.13-32-11.74-97.44,0,0,41.94-104.78,141.66-37.52,0,0,16.43-31,57.23-8.24C182.65,877.93,190,847.79,233.94,874.26Z" transform="translate(67.75 -35.1)"/></g><g id="_16공" data-name="16공"><circle class="cls-3" cx="968.52" cy="811.04" r="170.14"/><circle class="cls-4" cx="333.56" cy="826.96" r="22.2"/><circle class="cls-5" cx="1378.9" cy="701.34" r="93.96"/><circle class="cls-6" cx="1842.82" cy="947.56" r="113.97"/><circle class="cls-7" cx="236.57" cy="591.32" r="163.54"/><circle class="cls-8" cx="1069.69" cy="652.37" r="65.24"/></g><g id="_15정지" data-name="15정지"><path class="cls-9" d="M1378.74,1068.73a22.73,22.73,0,0,0-19.56,8s-8.52,12.7-18.28,8.79c0,0,2.11,5.4,7.31,5.4,0,0,2.16,3.72-10.88,3.72,0,0,.64,3.58,5.52,3.9,0,0-4,5.53-12.75,5.53,0,0-.24,3.4,7.23,3.33,0,0-12,6.22-7.23,5.79l29.35-2.61,22.79-32.06Z" transform="translate(67.75 -35.1)"/><path class="cls-10" d="M1386.51,1093.3c3,2,10,.65,10,.65l15,3a37.46,37.46,0,0,0,3.18-8.21l-28.25-20v-10.49l-14,19.49c-3.11,7.63-21.73,31.2-21.73,31.2h0l-20.2,1.63c-64.46-12-62.4,21-62.4,21,1,9.32,2.22,13,3.27,14.22l-13.21,1.75.85,16.33-7.67,3.6-.63,11.55a22.9,22.9,0,0,0,16.93-5.22l.81-18.17c37.07,2.34,39.7-11.46,39.7-11.46,49.92,10.34,58.64,1.13,58.64,1.13,2.39,6.87,20.06,3.86,20.06,3.86,11.46-.85-12.49,24-12.49,24h13.72c28.67-36.42,11-32.65,11-32.65-3.32.15-6.76-1.27-9.83-3.19l-9.5-15.45,3.32-9.12Z" transform="translate(67.75 -35.1)"/></g><g id="_14정지" data-name="14정지"><path class="cls-10" d="M1566.83,1110.54s-9.48,4.71-6.38,15c4.58,15.22,22.51,21.49,22.51,21.49l3.15,13.39-7.63,3.8c.51,14.66,0,21.91,0,21.91l2.36,12.07c10.71-3,8.42-12.07,8.42-12.07-3.73-15.61,0-16.4,0-16.4l10.21,5.51,6.14-14.82,7.12-19.55c-7.12-6.29-21.08-13.71-21.08-13.71l-2.39-32.11c13.12,15.47,22.33,5.87,22.33,5.87L1600,1080.35c-.28-11.14-7.62-9.26-7.62-9.26l-11.57,35.12,10.08,38.14c-24.35,9.42-44.23,0-44.23,0" transform="translate(67.75 -35.1)"/><path class="cls-10" d="M1586,1060.31l3.15,10.78,12.69,20.21-10.35,6.12-5.49-2.35-3.16,15.47,12.17,36.51h-19.8l-26.53-2.7s5.88,18.72-20.5,27.41c0,0,2.09,23.94-7.47,21.6v-25.72l12.75-11.64s-14.58-42.11,33.35-45.46l10.77-31.86Z" transform="translate(67.75 -35.1)"/></g><g id="_13정지" data-name="13정지"><path class="cls-11" d="M1157.45,1018.82s11.35,14,30.84,2.91c0,0,3.7,3.5,9.71.91l9.7.92s5.23,3.64,9.62.9c0,0,13.22,13.51,29.21,2.76,0,0,3.07,4.14,10.28,1l9.71.92s5.45,3.31,11.42,1.08l1-10.24-120.48-11.35Z" transform="translate(67.75 -35.1)"/><path class="cls-11" d="M1069.44,1005.89s10.57,14.62,30.63,4.57c0,0,3.51,3.69,9.64,1.44l9.65,1.43s5,3.93,9.55,1.43c0,0,12.47,14.2,29,4.33,0,0,2.84,4.3,10.21,1.52l9.65,1.44s5.26,3.61,11.34,1.7l1.52-10.17L1071,995.72Z" transform="translate(67.75 -35.1)"/><path class="cls-11" d="M1711,1023.65s-11,14-29.8,2.9c0,0-3.57,3.51-9.38.92l-9.38.91s-5,3.65-9.29.91c0,0-12.78,13.5-28.23,2.75,0,0-3,4.14-9.94,1l-9.38.92s-5.26,3.31-11,1.07l-.94-10.23,116.44-11.35Z" transform="translate(67.75 -35.1)"/><path class="cls-11" d="M1796.09,1010.71s-10.22,14.62-29.61,4.57c0,0-3.38,3.7-9.31,1.44l-9.32,1.44s-4.86,3.92-9.23,1.43c0,0-12.06,14.2-28,4.33,0,0-2.74,4.3-9.87,1.52l-9.32,1.44s-5.08,3.61-11,1.69l-1.47-10.16,115.67-17.86Z" transform="translate(67.75 -35.1)"/><g id="레이어_5" data-name="레이어 5"><path class="cls-12" d="M1070.68,1000.74s399.68,73,728.35,0l-222.15-57.52-501.31,35.13-4.89,22.39" transform="translate(67.75 -35.1)"/><polygon class="cls-13" points="1247.94 923.86 1224.14 959.61 1278.04 976.17 1340.93 982.33 1339 974.65 1288.24 970 1337.84 947.58 1333.99 940.17 1278.04 964.77 1241.14 954.1 1306.88 936.16 1247.94 923.86"/><path class="cls-14" d="M1746.82,994.36l-77.82,18-63.9,7.32.88-6.31,56.22-6.36-49.11-24.53,15.86-2.87,47,23.51s35.35-7.6,56.5-13.25c22.78-6.08,23.38,3.07,23.38,3.07l-9,1.39" transform="translate(67.75 -35.1)"/><polyline class="cls-15" points="1474.15 1034.42 1474.15 1121.71 1532.63 1121.71 1535.26 1034.42 1474.15 1034.42"/></g><g id="레이어_6" data-name="레이어 6"><polygon class="cls-16" points="1326.09 932.3 1339.92 1036.91 1671.99 1036.91 1683.32 932.3 1326.09 932.3"/><ellipse class="cls-17" cx="1348.46" cy="1008.31" rx="23.23" ry="45.33" transform="translate(17.11 36.43) rotate(-2.98)"/><ellipse class="cls-18" cx="1507.51" cy="968.6" rx="30.55" ry="45.33"/><ellipse class="cls-19" cx="1274.58" cy="1008.31" rx="8.08" ry="45.33" transform="translate(17.01 32.58) rotate(-2.98)"/><ellipse class="cls-20" cx="1531.49" cy="1008.31" rx="45.33" ry="23.23" transform="matrix(0.13, -0.99, 0.99, 0.13, 407.33, 2366.59)"/><path class="cls-21" d="M1606,1013.4c-3.13,24.84-9.26,44.53-13.68,44-3.47-.44-4.87-13.22-3.79-30.72.29-4.79.77-9.93,1.45-15.27,3.13-24.84,9.25-44.52,13.68-44,3.44.44,4.84,13,3.82,30.23-.2,3.4-.5,7-.89,10.67C1606.39,1010,1606.2,1011.68,1606,1013.4Z" transform="translate(67.75 -35.1)"/><path class="cls-22" d="M1421.8,967.4v73.27s3.18,6.33,13.75,0l-.15-32.31,7.93-2.92v31.23s27.2-26.62,6.8-68.92Z" transform="translate(67.75 -35.1)"/><path class="cls-23" d="M1415.25,978.35l1.5,53.18s-15.1-24.49-1.5-53.18" transform="translate(67.75 -35.1)"/><path class="cls-24" d="M1325.79,994.36s19.69,5.19,15.65-6.16c0,0,7.3,2.44,7-7.29h0l-19.78.6s-3.46,7.7-2.89,12.85" transform="translate(67.75 -35.1)"/><path class="cls-25" d="M1277.58,996.89s-4.49,5.42-10.41,24.8c0,0-2.22-32.52,0-45.11,0,0,10.16-6.73,11.51,0l2.9,17.78Z" transform="translate(67.75 -35.1)"/><polygon class="cls-26" points="1522.17 1008.38 1525.08 970.34 1538.06 968.6 1538.06 973.21 1530.12 973.21 1525.47 1005.26 1522.17 1008.38"/><path class="cls-27" d="M1555.39,988.67S1533,972.88,1522.8,974h0s-13,17.65-13.74,24l-.88,9.84,23.69,8.14,13.6-24.79-7.18,26.7,15,.47S1557.37,1003.92,1555.39,988.67Z" transform="translate(67.75 -35.1)"/><path class="cls-28" d="M1589.17,1018.37s3.68,18.07,18.61-13.43l-15.07-10.58S1589.84,1010.09,1589.17,1018.37Z" transform="translate(67.75 -35.1)"/><path class="cls-29" d="M1469,1017l-18.43,18.26a46.86,46.86,0,0,0-18.78-8,40.82,40.82,0,0,0-17,.38s15.11,39.56,43,12.77C1457.72,1040.37,1467.65,1030.22,1469,1017Z" transform="translate(67.75 -35.1)"/><path class="cls-29" d="M1332.76,1036.2s15.44.25,17.87,7.28h0l15.3-25.11v8.29l4.06,2.13S1353.89,1075.72,1332.76,1036.2Z" transform="translate(67.75 -35.1)"/><path class="cls-30" d="M1435.55,1040.67H1421.8s-8.19-9.54-7-13.07c1-3.06,4.91-2.37,12.82-.94Z" transform="translate(67.75 -35.1)"/><path class="cls-30" d="M1342.39,1037.84s-2,7.17-4,7.28c-3.65.2-8.45-11.95-8.45-11.95Z" transform="translate(67.75 -35.1)"/><path class="cls-30" d="M1599.15,1038.63l-11,7.28S1592.42,1077.19,1599.15,1038.63Z" transform="translate(67.75 -35.1)"/><path class="cls-31" d="M1266.18,1021.1s230.45-33.62,338.92,2.43l4.07-30.82-239.18-31L1255.31,971Z" transform="translate(67.75 -35.1)"/></g><path class="cls-32" d="M1507.82,1019.71s46.42-10.56,34.58,27.69h0s-29.48,24.81-34.58-27.69" transform="translate(67.75 -35.1)"/><polyline class="cls-33" points="1675.21 962.54 1661.41 954.79 1661.41 954.79 1665.72 936.08 1675.53 940.45 1675.21 962.54"/><path class="cls-34" d="M1111,905.45S1391.43,755.89,1437,689c0,0-184.26,226.62-253.39,230Z" transform="translate(67.75 -35.1)"/><polyline class="cls-35" points="1418.38 944.59 1430.12 1012.29 1434.38 1006.77 1423.1 944.59 1418.38 944.59"/><path class="cls-36" d="M1446.49,675.38s-31.56,226.7-64,253.89l-167.75-10.22S1395.49,753.58,1446.49,675.38Z" transform="translate(67.75 -35.1)"/><path class="cls-37" d="M1414.76,847.65l31.73-172.27s51,128.07,141.66,210.8l-173.39,43.09Z" transform="translate(67.75 -35.1)"/><path class="cls-38" d="M1325.79,994.36l32.49,11.42s5.87,6.35-30.39,20.88C1327.89,1026.66,1321.37,1003.7,1325.79,994.36Z" transform="translate(67.75 -35.1)"/><path class="cls-39" d="M1511.6,1039.15l19.28-12.49-7.52,12.49,15.68,19.09-18.31-4.76s-12.08-12.42-9.13-14.33" transform="translate(67.75 -35.1)"/><path class="cls-40" d="M1345,1018.9l3.47-1.94s6.15,23.27,4.35,36.34l-4.35.18S1350.87,1043.67,1345,1018.9Z" transform="translate(67.75 -35.1)"/><path class="cls-41" d="M1281.24,1003.39c-.81,12.38-3.22,30.93-10.32,38.37a.65.65,0,0,0-.16.62c1.1,3.68,10.63,33.95,12.83-24.5,1.58-42.17-.86-13.29-.92-14.14l0-.35A.7.7,0,0,0,1281.24,1003.39Z" transform="translate(67.75 -35.1)"/><path class="cls-42" d="M1193,1237.89s302.73,33.24,515.18,0V1223l-513.94,1.82" transform="translate(67.75 -35.1)"/><path class="cls-43" d="M1708.14,1223c0,10.15-115.33,18.38-257.59,18.38-133.67,0-243.56-7.26-256.35-16.56A2.44,2.44,0,0,1,1193,1223c0-10.16,115.33-18.39,257.59-18.39S1708.14,1212.87,1708.14,1223Z" transform="translate(67.75 -35.1)"/><path class="cls-44" d="M1341.44,1211.44v-52.13s80.36,5,190.62,0v52.13S1432.46,1219.38,1341.44,1211.44Z" transform="translate(67.75 -35.1)"/><path class="cls-45" d="M1752.13,1144.1s-519-1.15-595.74,1.33c0,0-18.1,4.09-19.83,27.12v88.76" transform="translate(67.75 -35.1)"/><path class="cls-46" d="M1341.44,1159.31s80.12-9.07,190.62,0C1532.06,1159.31,1426.42,1171.4,1341.44,1159.31Z" transform="translate(67.75 -35.1)"/><path class="cls-47" d="M1675.1,854.51s-36.9,10.14-49.46,30.54c0,0-45.34-67-81.31-32.84l-74,48.36,20.42,57.8,167,12.81,66.91-88.29Z" transform="translate(67.75 -35.1)"/><path class="cls-48" d="M1197,854.51s36.91,10.14,49.46,30.54c0,0,45.35-67,81.31-32.84l74,48.36-20.42,57.8-167,12.81-66.92-88.29Z" transform="translate(67.75 -35.1)"/><path class="cls-45" d="M1141.52,1268.51v-84.34s1.13-41.68,9.63-35.38c0,0,2.83,18.76,0,125.29" transform="translate(67.75 -35.1)"/><path class="cls-45" d="M1162,1264.14V1160s10-33.89,21.53,0V1259" transform="translate(67.75 -35.1)"/><path class="cls-45" d="M1203.41,1262.18V1158s13.39-33.89,28.88,0v99.06" transform="translate(67.75 -35.1)"/></g><g id="_12목마" data-name="12목마"><path class="cls-49" d="M1269.05,1157.1s7.44,27.27-31.09,30c0,0,7.93,18.85,0,27.24l-13,2.14s5.61-24.06-4-29.38l29.46-46.74Z" transform="translate(67.75 -35.1)"/><path class="cls-49" d="M1240.91,1117s-18.69-4.73-26.12,15.1c0,0-1.91,9.63-6.94,10.77,0,0-11.26,5.66-3.33,16.43,0,0,1.24,15.7-11.56,13.24,0,0,13.83,13.83,36.5-17.27Z" transform="translate(67.75 -35.1)"/><path class="cls-50" d="M1270.74,1108.22s-12.22,6.07-8.22,19.36c5.91,19.62,29,27.7,29,27.7l4.07,17.27c-18.62,9.27-9.84,4.89-9.84,4.89.66,18.89,0,28.24,0,28.24l3,15.56c13.8-3.81,10.85-15.56,10.85-15.56-4.81-20.12,0-21.14,0-21.14l13.15,7.1,7.92-19.09,9.18-25.2c-9.18-8.12-27.17-17.68-27.17-17.68l-3.08-41.38c16.9,19.93,28.78,7.56,28.78,7.56l-14.9-26.54c-.36-14.35-9.82-11.93-9.82-11.93l-14.91,45.26,13,49.17c-31.39,12.14-57,0-57,0" transform="translate(67.75 -35.1)"/><rect class="cls-51" x="1324.03" y="895.79" width="5.86" height="187.83"/><rect class="cls-52" x="1324.03" y="920.59" width="0.57" height="157.47"/><path class="cls-53" d="M1298.48,1059.1a34.24,34.24,0,0,0-29.48,12s-12.83,19.13-27.54,13.25c0,0,3.17,8.13,11,8.13,0,0,3.24,5.6-16.4,5.6,0,0,1,5.39,8.32,5.88,0,0-6.06,8.34-19.22,8.34,0,0-.36,5.12,10.9,5,0,0-18.16,9.37-10.9,8.73l44.23-3.93,34.34-48.31Z" transform="translate(67.75 -35.1)"/><polygon class="cls-53" points="1288.21 1171.78 1292.74 1181.41 1305.71 1179.28 1294.25 1170.6 1288.21 1171.78"/><path class="cls-50" d="M1295.48,1043.48l4,13.9,16.37,26-13.34,7.89-7.08-3-4.07,19.93,15.68,47.06h-25.51l-34.21-3.47s7.59,24.12-26.41,35.33c0,0,2.69,30.85-9.64,27.83v-33.15l16.44-15s-18.8-54.26,43-58.59l13.88-41.06Z" transform="translate(67.75 -35.1)"/><polygon class="cls-50" points="1371.69 1029.29 1383.65 1018.37 1377.67 1038.81 1371.69 1029.29"/><path class="cls-49" d="M1309.62,1191.64l-10.51,14s-4.88-16.77,0-21.14c0,0,8.33-3.7,6.77-14.46l2.51-14.8,7.56-3.47s-5.73,39.83-16.84,32.73" transform="translate(67.75 -35.1)"/><polygon class="cls-53" points="1269.27 1166.39 1265.48 1181.77 1279.07 1179.49 1279.07 1164.44 1269.27 1166.39"/><path class="cls-53" d="M1300.43,1058.08s10.82-2.68,12,3.9l-5.22,4.76-6.87-4.76Z" transform="translate(67.75 -35.1)"/><path class="cls-53" d="M1301.12,1083.63s7.81-4.67,9.07,3.86Z" transform="translate(67.75 -35.1)"/><path class="cls-30" d="M1247.59,1129.33l14.93-1.75s-.37-13.22,8.22-19.36c0,0-16.4,0-25.45,6.25,0,0-8.25.21-4.38,18.77Z" transform="translate(67.75 -35.1)"/></g><g id="_11목마" data-name="11목마"><rect class="cls-51" x="1687.53" y="920.01" width="5.86" height="187.83"/><rect class="cls-52" x="1688.38" y="929.64" width="0.57" height="157.47"/><path class="cls-54" d="M1636.37,1116.52s-14.87-1.3-27.21,4.67c-7.48,3.62-14,9.92-15.76,20.81l1.38,21.84-19.42,17.72-1.59,21.69h-7v16.61s16,6.71,24-32.14l11.63-1.06v16.59l-7.57,2.14v14.91s25.83-.77,25.08-38.74c0,0,3.77,10.72,25.68-20.8v20.8H1638v14.84s-6.77-6.43-3.75,2.49v8.92s6.87,1.62,14.39-13.16v10.55s15.34,3.13,16-44.72c0,0,5.44-23,1.52-39.23l1.42-22.72,7.59.5v-14.37l-6.13-15.15-2.88-15.47-4.68,10.33h-9.07l-9.06-10.89Z" transform="translate(67.75 -35.1)"/><path class="cls-53" d="M1660.27,1064s-24-12.17-27.88,27.67l-7,6,3.88,4-10.57,3.62,4.37,5.43-9.86,5.81h23.52Z" transform="translate(67.75 -35.1)"/><path class="cls-53" d="M1605.1,1129.33s-16.82-3.67-15.93,17.57c0,0,.77,13.42-8.06,8.38,0,0-16.38.28-6.56,17.27,0,0-.75-12.48,13.6-2.66,0,0,18.61,12.8,21-29.49Z" transform="translate(67.75 -35.1)"/><path class="cls-53" d="M1573.77,1201.15l5.65,14.49s-12.69,13.17-12.69,5.69v-20.18Z" transform="translate(67.75 -35.1)"/><path class="cls-53" d="M1594.78,1205.39v14.91s11.4-.92,13-3.78l-5.43-13.27Z" transform="translate(67.75 -35.1)"/><path class="cls-53" d="M1633.65,1194.48l.56,13.33s6.14-1.32,8.68-4.56l-4.93-8.77Z" transform="translate(67.75 -35.1)"/><path class="cls-53" d="M1647.84,1192.18l.76,13s6,1.1,9.13-6.51l-5-8Z" transform="translate(67.75 -35.1)"/><path class="cls-30" d="M1629,1140.4s.29-12.73-15.72-20.9c0,0,12.43-5.73,23.52-3a23.88,23.88,0,0,1,8.45,17.1Z" transform="translate(67.75 -35.1)"/></g><g id="_10목마" data-name="10목마"><path class="cls-53" d="M1393.81,1112.14s-12.27-11.84-31.4,5.82c0,0-6.38,10.79-12.27,11.28,0,0-18.14,4.91-14.22,20.11,0,0-1.47,15.21-10.79,15.7h-8.58s15.89,26.49,54.66-20.11Z" transform="translate(67.75 -35.1)"/><path class="cls-53" d="M1530.28,1050a34.23,34.23,0,0,0-29.48,12s-12.83,19.13-27.54,13.24c0,0,3.17,8.13,11,8.13,0,0,3.24,5.6-16.4,5.6,0,0,1,5.4,8.32,5.89,0,0-6.06,8.34-19.22,8.34,0,0-.36,5.11,10.9,5,0,0-18.15,9.37-10.9,8.72l44.23-3.92,34.34-48.32Z" transform="translate(67.75 -35.1)"/><path class="cls-50" d="M1542,1087.06c4.49,2.94,15.14,1,15.14,1l22.64,4.53c2.9-4.91,4.78-12.38,4.78-12.38L1542,1050v-15.81l-21.16,29.37c-4.68,11.5-32.75,47-32.75,47h0l-30.44,2.47c-97.14-18.11-94,31.69-94,31.69,1.48,14.06,3.35,19.56,4.93,21.44l-19.91,2.64,1.29,24.61-11.56,5.42-1,17.41c15,1.76,25.52-7.87,25.52-7.87l1.22-27.39c55.86,3.53,59.83-17.26,59.83-17.26,75.22,15.58,88.37,1.7,88.37,1.7,3.6,10.35,30.22,5.82,30.22,5.82,17.27-1.29-18.81,36.23-18.81,36.23h20.68c43.2-54.9,16.65-49.21,16.65-49.21-5,.23-10.19-1.92-14.81-4.8l-14.33-23.3,5-13.73Z" transform="translate(67.75 -35.1)"/><path class="cls-53" d="M1337.41,1216.42s9.51,1.79,15.16-1.69l-4.79-20.25-11.86,3.24Z" transform="translate(67.75 -35.1)"/><polygon class="cls-53" points="1591.51 1172.42 1585.07 1181.45 1609.74 1186.13 1612.19 1172.42 1591.51 1172.42"/><path class="cls-55" d="M1490.73,1145.43l-1.29,1.47h-63.55s3.08-7.15-10.58-38.64h3.1Z" transform="translate(67.75 -35.1)"/><g id="레이어_9" data-name="레이어 9"><rect class="cls-51" x="1506.76" y="858.7" width="8.25" height="233.78"/><rect class="cls-52" x="1506.36" y="868.86" width="0.8" height="226.93"/></g><path class="cls-30" d="M1416.83,1108.22s11.55,20.53,11.06,37.21h62.84s-.8-29.45-7.66-36.31h-27.43Z" transform="translate(67.75 -35.1)"/><path class="cls-55" d="M1551.34,1067.61s7.41-2.24,10.45,3.26C1561.79,1070.87,1558.94,1073.52,1551.34,1067.61Z" transform="translate(67.75 -35.1)"/><path class="cls-49" d="M1418.41,1151.81s75.28,17.16,98.91,0a49.53,49.53,0,0,0,28.52,20s-26.28,6.42-33.49-6.28c0,0-10.62,15.17-88.37-1.7,0,0-5.61,22.46-59.83,17.26C1364.15,1181,1409.18,1184.67,1418.41,1151.81Z" transform="translate(67.75 -35.1)"/><path class="cls-53" d="M1285.76,1205.68l13.83,5.62s-.17,10.1-10.78,9.94l-7.23-13.71Z" transform="translate(67.75 -35.1)"/></g><g id="_9정지" data-name="9정지"><path class="cls-50" d="M1426.93,984.43s17,24.76,41.67,0c0,0,5.4,6,13.12,0h13.11s7.47,6,13,0c0,0,19.41,23.42,39.48,0,0,0,4.63,7.36,13.89,0h13.11s7.72,5.35,15.44,0V964.71H1426.93Z" transform="translate(67.75 -35.1)"/><path class="cls-50" d="M1269.05,984.17s17,24.76,41.67,0c0,0,5.41,6,13.12,0H1337s7.47,6,13,0c0,0,19.42,23.42,39.48,0,0,0,4.63,7.36,13.89,0h13.12s7.72,5.36,15.44,0V964.45H1269.05Z" transform="translate(67.75 -35.1)"/><path class="cls-50" d="M1110.12,992.1s18.16,24.11,41.63-1.52c0,0,5.69,5.82,13.11-.48l13.11-.48s7.75,5.75,13-.47c0,0,20.53,22.69,39.44-1.44,0,0,5,7.19,13.88-.5l13.11-.48s8,5.06,15.42-.56l-1-19.71-162.68,5.94Z" transform="translate(67.75 -35.1)"/><path class="cls-50" d="M1585.7,982.89s14.62,26.3,43.56,4.16c0,0,4.88,6.52,13.71,1.31l13.71,1.31s7,6.73,13.58,1.29c0,0,17.34,25.21,41.26,3.94,0,0,3.91,7.78,14.52,1.39l13.71,1.3s7.39,6.09,16.13,1.54l2.49-19.6-170.18-16.24Z" transform="translate(67.75 -35.1)"/><path class="cls-50" d="M1110.12,992.1a16,16,0,0,1-3,3.08c-2.36,1.84-5.86,3.29-9.51.25,0,0-7.72,12.79-27.78,17.55L1063,974.62l52.4-12.94" transform="translate(67.75 -35.1)"/><path class="cls-50" d="M1754.19,1000.8a15.63,15.63,0,0,0,3,3.08c2.35,1.84,5.84,3.29,9.49.26,0,0,9.43,5.94,29.45,10.7l5.13-31.52-52.29-12.93" transform="translate(67.75 -35.1)"/><circle class="cls-56" cx="1514.24" cy="949.03" r="4.06"/><circle class="cls-57" cx="1437.74" cy="949.32" r="4.06"/><circle class="cls-58" cx="1359.16" cy="952.23" r="4.06"/><circle class="cls-59" cx="1279.07" cy="955.02" r="3.47"/><circle class="cls-60" cx="1200.84" cy="959.26" r="3.47"/><circle class="cls-61" cx="1676.92" cy="951.62" r="4.06"/><circle class="cls-62" cx="1760.67" cy="955.69" r="3.43"/><circle class="cls-63" cx="1146.67" cy="965.07" r="2.4"/><circle class="cls-64" cx="1860.4" cy="965.78" r="3.43"/></g><g id="_8정지" data-name="8정지"><g id="레이어_14" data-name="레이어 14"><path class="cls-65" d="M1762.11,1159.56c.81-6.59-.5-11.8-3.88-15.49-4.83-5.26-11.8-5.11-12.58-5.08l-.38,0-.37.08c-34.89,8.37-520.93,7.23-525.83,7.22h-.53l-.51.14c-4.13,1.11-11.23,5.17-11.61,13.35-.82,17.57-.5,54.42.93,109.55l7.93-.21c-1.78-68.42-1.49-97-.94-109,.18-3.76,4-5.46,5.33-5.92h1.9a43.83,43.83,0,0,0-4,8.2l-.19.5.76,102.91,5.67,0L1223,1164c1.9-4.83,4-8.19,6-9.71H1234c3,2,6,6.83,7.36,9.81v107.65H1247V1162.87l-.24-.55a40.61,40.61,0,0,0-4.77-8l30.85,0q-4.66,3.63-8.58,11.11l-.3.58-3.12,100.2,5.67.18,3.07-98.9c3.81-7.09,7.92-10.75,12.21-10.88h.24c6.22,0,12.33,7.36,14.67,11V1275h5.67V1166l-.41-.67a39,39,0,0,0-10.13-11c14.88,0,31.49,0,49.32,0a42.19,42.19,0,0,0-6,7.7l-.4.64L1331,1262.92l5.67.21,3.65-98.8c3.34-5.19,6.92-8.56,10.7-10.07l9.58,0c6.34,2.27,11.49,8.17,13.09,10.19v107.3h5.67V1162.55l-.53-.73a43.14,43.14,0,0,0-7.27-7.61c19.23,0,39.42-.11,60-.2a39.81,39.81,0,0,0-8.19,9.15l-.45.67-4,100.35,5.66.23,3.94-98.74c5-7.14,10.43-10.85,16.28-11.06h.52c9.31,0,17.41,8.6,19.61,11.15V1273h5.67V1163.78l-.59-.77a45.39,45.39,0,0,0-10-9.14c20.64-.12,41.46-.26,62-.44a39.9,39.9,0,0,0-6.89,8.54l-.4.64L1511,1262.92l5.66.21,3.66-98.8c4.58-7.12,9.61-10.82,15-11,8.68-.32,16.37,8.53,18.41,11.09v107.3h5.67V1162.55l-.53-.73a44,44,0,0,0-8.61-8.66c20.54-.21,40.51-.47,59.38-.77-3,2.43-5.84,6.11-8.39,11l-.29.57-3.07,100.2,5.67.17,3-98.9c3.76-7.09,7.8-10.74,12-10.87,6.18-.2,12.32,7.31,14.66,10.94V1273h5.66V1164l-.39-.67c-.25-.41-4.31-7.12-10.44-11.22,17.68-.32,34.13-.69,48.84-1.11a40.61,40.61,0,0,0-4.86,8.45l-.22.51L1669.21,1260l5.66.15,2.6-99c2-4.37,4.93-9.3,8.48-10.5l2.89-.09c4.51,1.12,9,7.59,10.69,10.66v107.56h5.67V1159.88l-.31-.6a39.57,39.57,0,0,0-6.41-9c12.39-.46,22.9-1,31.06-1.54a37.7,37.7,0,0,0-5.33,10.14l-.17.45-2.23,100,5.66.13,2.22-99.07c2.58-6.74,5.52-10.62,8.07-10.69h.07c3.67,0,8,6.91,9.73,10.74v107.66h5.67V1159.29l-.23-.53c-.45-1-3.4-7.61-8-11.6l1.26-.24c.93,0,4.11.32,6.12,2.51,1.77,1.94,2.39,5.09,1.83,9.37l0,.26.24,92.44,7.93,0Z" transform="translate(67.75 -35.1)"/><path class="cls-66" d="M1446.49,675.38s189.22,194.69,224.71,199.06h0l-93.38,1.95s-75.8-44.61-131.33-201" transform="translate(67.75 -35.1)"/></g><path class="cls-67" d="M1446.49,675.38,1654.33,874.8l43,19,18.43-17.41s-84.52-33.27-269.25-201" transform="translate(67.75 -35.1)"/><path class="cls-68" d="M1790.52,906.68s-18.7-39.1-51-35.7c0,0-20.4,3.4-57.8,15.3,0,0-30.6-42.5-74.79-39.1,0,0-39.1,8.5-76.5,28.9,0,0,5.1-22.1-17-10.2,0,0-13.6-42-34-33.75,0,0-1.7-13.85-23.79-10.45,0,0-30.6,5.1-41.65,32.3,0,0-17.85-3.4-23,20.4L1063,984.72a48.56,48.56,0,0,1,3.4,11.32c67.32-5.24,195.64-13.9,334.85-16.36,138.21-2.43,287.16,1.25,397.77,20.49l11.9-115.59S1792.21,888,1790.52,906.68Z" transform="translate(67.75 -35.1)"/><path class="cls-69" d="M1799,995.19v-11L1472.64,874.38c-5.1-23.8-23-20.4-23-20.4-11-27.2-41.65-32.3-41.65-32.3-22.1-3.4-23.8,10.45-23.8,10.45-20.4-8.26-34,33.75-34,33.75-22.1-11.9-17,10.2-17,10.2-37.39-20.4-76.49-28.9-76.49-28.9-44.2-3.4-74.8,39.1-74.8,39.1-37.39-11.9-57.79-15.3-57.79-15.3-32.3-3.4-51,35.7-51,35.7-1.7-18.7-20.4-22.1-20.4-22.1l11.9,115.59c110.62-19.24,259.56-22.92,397.78-20.49,140.29,2.48,269.51,11.26,336.4,16.49C1798.9,995.84,1799,995.52,1799,995.19Z" transform="translate(67.75 -35.1)"/><path class="cls-70" d="M1338.34,886.28s24.37,18.69,54.4,21.64c0,0-60.15,25.3-63.55,64.39,0,0-249.23,7.46-264.53,27.86l-10.59-102.86s17.39,16.17,20.79,28.07c0,0,17-84.53,115.59-14.72C1190.45,910.66,1202.35,811.48,1338.34,886.28Z" transform="translate(67.75 -35.1)"/><path class="cls-71" d="M1522.34,887.87S1498,907,1467.69,910.48c0,0,61.3,24.22,65.42,63.26,0,0,252.27,3,268.11,23.15l8.71-102.76s-17.11,16.2-20.34,28.16c0,0-18.72-84.21-117.2-12.66C1672.39,909.63,1658.61,810.68,1522.34,887.87Z" transform="translate(67.75 -35.1)"/><path class="cls-72" d="M1341.44,943.22s-10.43,9.14-37.69,0l1.91,23.65h10.24v7.07h21.51l5-24.9" transform="translate(67.75 -35.1)"/><path class="cls-73" d="M1520.38,944.87s10.43,9.13,37.69,0l-1.91,23.65h-10.24v7.07h-21.51l-5-24.91" transform="translate(67.75 -35.1)"/><path class="cls-74" d="M1343.36,971.18s72.53-125.8,179.06,0Z" transform="translate(67.75 -35.1)"/><circle class="cls-75" cx="1595.17" cy="949.32" r="4.06"/><line class="cls-76" x1="602.54" y1="928.19" x2="902" y2="955.02"/><path class="cls-77" d="M534.78,963.29s1.65,21.05-44.46,17.07h0l-13.1-13.9,57.56-3.17" transform="translate(67.75 -35.1)"/><path class="cls-77" d="M830,978.35l-21.8,8.31s-6.41,12.57,29.84,13.89h0l-7.08-29.37" transform="translate(67.75 -35.1)"/><line class="cls-76" x1="549.27" y1="933.54" x2="497.05" y2="957.97"/><polyline class="cls-76" points="497.05 957.97 887.3 979.74 905.77 965.44"/></g><g id="_7정지" data-name="7정지"><polygon class="cls-78" points="961.94 749.49 986.83 657.57 1003.53 554.8 979.99 421.76 883.34 297.81 709.21 224.45 507.61 278.04 424.87 382.89 396.65 539.06 441.52 721.48 580.7 844.42 727.36 880.17 883.3 841.29 961.94 749.49"/><line class="cls-79" x1="619.55" y1="606.75" x2="426.77" y2="1137.44"/><line class="cls-79" x1="706.76" y1="559.7" x2="910.71" y2="1159.38"/><path class="cls-79" d="M632.34,577.65s-46.93-24.43-70.12,84.24l-183,513.72" transform="translate(67.75 -35.1)"/><line class="cls-79" x1="715.73" y1="552.27" x2="927" y2="1152.04"/></g><g id="_6정지" data-name="6정지"><line class="cls-80" x1="1093.36" y1="568.31" x2="830.51" y2="554.8"/><line class="cls-80" x1="1082.94" y1="403.4" x2="762.37" y2="547.68"/><line class="cls-81" x1="1027.08" y1="826.36" x2="979.99" y2="831.38"/><line class="cls-81" x1="76.78" y1="798.48" x2="191.78" y2="811.04"/><polyline class="cls-80" points="664.94 521.87 66.58 239.21 320.33 41.61 693.84 4.63 970.21 174.62 749.94 491.65"/><line class="cls-80" x1="76.78" y1="550.43" x2="768.4" y2="554.8"/><line class="cls-80" x1="104.24" y1="786.04" x2="676.25" y2="571.77"/><line class="cls-80" x1="804.33" y1="571.77" x2="1082.4" y2="702.5"/><polyline class="cls-81" points="720.73 538.75 979.99 831.38 1082.4 883.94"/><path class="cls-79" d="M551.8,641.85S578.16,540.09,615.57,557" transform="translate(67.75 -35.1)"/></g><g id="_5관람" data-name="5관람"><path class="cls-82" d="M410,299.25l15.76,37.63a5,5,0,0,0,6.88,2.37l9-4.77a4.73,4.73,0,0,0,2.4-5.45l-11.93-42.37a5,5,0,0,0-7.7-2.5l-12.86,9.5A4.69,4.69,0,0,0,410,299.25Z" transform="translate(67.75 -35.1)"/><path class="cls-82" d="M445.15,332.67" transform="translate(67.75 -35.1)"/><path class="cls-83" d="M445.15,332.67l-13-46.15a4.83,4.83,0,0,1,5.2-6l61.08,5.41a4.75,4.75,0,0,1,4.29,5.87l-11.06,43.07a4.94,4.94,0,0,1-5.49,3.58l-41-5.76L476.29,337A4.72,4.72,0,0,1,478,345.9h0a5.07,5.07,0,0,1-2.91.58l-47.19-4.69" transform="translate(67.75 -35.1)"/><path class="cls-84" d="M452.13,312.87l34.62,2.06a4.93,4.93,0,0,0,5.11-3.72l3.34-14.39a4.77,4.77,0,0,0-4.42-5.78l-42-2.83a4.83,4.83,0,0,0-5.12,6l4.06,15.17A4.84,4.84,0,0,0,452.13,312.87Z" transform="translate(67.75 -35.1)"/><path class="cls-82" d="M591.92,255.47l13.84,34a4.29,4.29,0,0,0,6,2.15l7.88-4.28a4.3,4.3,0,0,0,2.09-4.91l-10.5-38.21a4.29,4.29,0,0,0-6.73-2.27l-11.21,8.54A4.29,4.29,0,0,0,591.92,255.47Z" transform="translate(67.75 -35.1)"/><path class="cls-82" d="M622.64,285.66" transform="translate(67.75 -35.1)"/><path class="cls-83" d="M622.64,285.66,611.2,244a4.29,4.29,0,0,1,4.53-5.41l53.34,5a4.28,4.28,0,0,1,3.76,5.3l-9.57,38.79a4.28,4.28,0,0,1-4.78,3.21l-35.84-5.27,27.21,4a4.29,4.29,0,0,1,1.46,8h0a4.21,4.21,0,0,1-2.53.52l-41.22-4.32" transform="translate(67.75 -35.1)"/><path class="cls-84" d="M628.7,267.84l30.23,1.92a4.3,4.3,0,0,0,4.46-3.35l2.89-13a4.28,4.28,0,0,0-3.87-5.21l-36.7-2.64a4.29,4.29,0,0,0-4.46,5.36l3.58,13.68A4.29,4.29,0,0,0,628.7,267.84Z" transform="translate(67.75 -35.1)"/><path class="cls-85" d="M895.84,583.74l13.83,33.91a4.28,4.28,0,0,0,6,2.15l7.89-4.27a4.3,4.3,0,0,0,2.09-4.91l-10.5-38.17a4.29,4.29,0,0,0-6.73-2.28l-11.22,8.54A4.29,4.29,0,0,0,895.84,583.74Z" transform="translate(67.75 -35.1)"/><path class="cls-85" d="M926.56,613.9" transform="translate(67.75 -35.1)"/><path class="cls-86" d="M926.56,613.9l-11.44-41.59a4.28,4.28,0,0,1,4.53-5.4l53.34,5a4.28,4.28,0,0,1,3.76,5.29L967.18,616a4.28,4.28,0,0,1-4.78,3.22l-35.84-5.27,27.2,4a4.29,4.29,0,0,1,1.47,8h0a4.32,4.32,0,0,1-2.54.52l-41.21-4.32" transform="translate(67.75 -35.1)"/><path class="cls-87" d="M932.62,596.09,962.85,598a4.29,4.29,0,0,0,4.45-3.34l2.9-12.95a4.28,4.28,0,0,0-3.88-5.21l-36.69-2.64a4.29,4.29,0,0,0-4.46,5.36l3.57,13.67A4.29,4.29,0,0,0,932.62,596.09Z" transform="translate(67.75 -35.1)"/><path class="cls-85" d="M871.87,452l13.83,33.91a4.3,4.3,0,0,0,6,2.15l7.88-4.28a4.28,4.28,0,0,0,2.09-4.9l-10.5-38.17a4.29,4.29,0,0,0-6.73-2.28L873.25,447A4.29,4.29,0,0,0,871.87,452Z" transform="translate(67.75 -35.1)"/><path class="cls-85" d="M902.59,482.16" transform="translate(67.75 -35.1)"/><path class="cls-86" d="M902.59,482.16l-11.44-41.59a4.29,4.29,0,0,1,4.53-5.4l53.34,5a4.28,4.28,0,0,1,3.76,5.29l-9.57,38.76a4.27,4.27,0,0,1-4.78,3.21l-35.84-5.26,27.2,4a4.29,4.29,0,0,1,1.47,8h0a4.3,4.3,0,0,1-2.53.52l-41.22-4.32" transform="translate(67.75 -35.1)"/><path class="cls-87" d="M908.65,464.35l30.23,1.92a4.3,4.3,0,0,0,4.46-3.35L946.23,450a4.28,4.28,0,0,0-3.87-5.2l-36.7-2.64a4.28,4.28,0,0,0-4.46,5.35l3.58,13.67A4.29,4.29,0,0,0,908.65,464.35Z" transform="translate(67.75 -35.1)"/><path class="cls-85" d="M778.21,330.34,792,364.26a4.29,4.29,0,0,0,6,2.15l7.89-4.28a4.29,4.29,0,0,0,2.09-4.9l-10.51-38.18a4.28,4.28,0,0,0-6.72-2.27l-11.22,8.54A4.28,4.28,0,0,0,778.21,330.34Z" transform="translate(67.75 -35.1)"/><path class="cls-85" d="M808.93,360.51" transform="translate(67.75 -35.1)"/><path class="cls-86" d="M808.93,360.51l-11.44-41.59a4.28,4.28,0,0,1,4.53-5.4l53.34,5a4.29,4.29,0,0,1,3.76,5.3l-9.57,38.76a4.29,4.29,0,0,1-4.79,3.21l-35.83-5.26,27.2,4a4.29,4.29,0,0,1,1.47,8h0a4.32,4.32,0,0,1-2.54.52l-41.21-4.32" transform="translate(67.75 -35.1)"/><path class="cls-87" d="M815,342.69l30.23,1.92a4.28,4.28,0,0,0,4.45-3.34l2.9-12.95a4.29,4.29,0,0,0-3.88-5.21L812,320.47a4.29,4.29,0,0,0-4.46,5.36l3.57,13.67A4.28,4.28,0,0,0,815,342.69Z" transform="translate(67.75 -35.1)"/><path class="cls-85" d="M871.31,735.49l14,34.38a4.34,4.34,0,0,0,6.1,2.18l8-4.33a4.34,4.34,0,0,0,2.12-5L890.89,724a4.34,4.34,0,0,0-6.82-2.31l-11.37,8.66A4.35,4.35,0,0,0,871.31,735.49Z" transform="translate(67.75 -35.1)"/><path class="cls-85" d="M902.46,766.07" transform="translate(67.75 -35.1)"/><path class="cls-86" d="M902.46,766.07l-11.6-42.17a4.34,4.34,0,0,1,4.59-5.48l54.09,5.06a4.35,4.35,0,0,1,3.81,5.37l-9.71,39.3a4.33,4.33,0,0,1-4.85,3.26l-36.33-5.34,27.58,4a4.35,4.35,0,0,1,1.49,8.1h0a4.43,4.43,0,0,1-2.57.53l-41.79-4.38" transform="translate(67.75 -35.1)"/><path class="cls-87" d="M908.6,748l30.66,2a4.36,4.36,0,0,0,4.51-3.39l2.94-13.13a4.35,4.35,0,0,0-3.93-5.29l-37.21-2.67a4.35,4.35,0,0,0-4.52,5.43l3.62,13.86A4.35,4.35,0,0,0,908.6,748Z" transform="translate(67.75 -35.1)"/><path class="cls-82" d="M284.49,566.07l17.77,41.6a5.65,5.65,0,0,0,7.78,2.61L320.29,605a5.22,5.22,0,0,0,2.73-6L309.59,552.1a5.64,5.64,0,0,0-8.71-2.76l-14.59,10.55A5.12,5.12,0,0,0,284.49,566.07Z" transform="translate(67.75 -35.1)"/><path class="cls-82" d="M324.17,603" transform="translate(67.75 -35.1)"/><path class="cls-83" d="M324.17,603l-14.63-51a5.4,5.4,0,0,1,5.9-6.66l69.15,5.87a5.26,5.26,0,0,1,4.85,6.48L376.83,605.3a5.6,5.6,0,0,1-6.22,4L324.17,603l35.26,4.78a5.19,5.19,0,0,1,1.86,9.8h0a5.85,5.85,0,0,1-3.29.65l-53.42-5.11" transform="translate(67.75 -35.1)"/><path class="cls-84" d="M332.12,581.07l39.19,2.2a5.56,5.56,0,0,0,5.79-4.12l3.82-15.93a5.28,5.28,0,0,0-5-6.38l-47.57-3.06a5.41,5.41,0,0,0-5.81,6.6l4.57,16.78A5.45,5.45,0,0,0,332.12,581.07Z" transform="translate(67.75 -35.1)"/><path class="cls-82" d="M292.18,419.48,310,461.07a5.65,5.65,0,0,0,7.78,2.61L328,458.39a5.2,5.2,0,0,0,2.74-6l-13.43-46.85a5.64,5.64,0,0,0-8.71-2.76L294,413.29A5.14,5.14,0,0,0,292.18,419.48Z" transform="translate(67.75 -35.1)"/><path class="cls-82" d="M331.86,456.38" transform="translate(67.75 -35.1)"/><path class="cls-83" d="M331.86,456.38l-14.63-51c-1-3.54,2-7,5.9-6.66l69.15,5.87a5.27,5.27,0,0,1,4.85,6.49l-12.61,47.67a5.62,5.62,0,0,1-6.22,4l-46.44-6.3,35.26,4.78A5.19,5.19,0,0,1,369,471h0a5.85,5.85,0,0,1-3.29.65l-53.42-5.1" transform="translate(67.75 -35.1)"/><path class="cls-84" d="M339.81,434.47,379,436.68a5.58,5.58,0,0,0,5.79-4.13l3.82-15.92a5.27,5.27,0,0,0-5-6.38L336,407.18a5.41,5.41,0,0,0-5.8,6.61l4.57,16.77A5.44,5.44,0,0,0,339.81,434.47Z" transform="translate(67.75 -35.1)"/><path class="cls-82" d="M306.66,730.78l17.77,41.6a5.65,5.65,0,0,0,7.78,2.61l10.25-5.3a5.2,5.2,0,0,0,2.73-6l-13.43-46.85a5.64,5.64,0,0,0-8.71-2.76l-14.59,10.54A5.14,5.14,0,0,0,306.66,730.78Z" transform="translate(67.75 -35.1)"/><path class="cls-82" d="M346.34,767.69" transform="translate(67.75 -35.1)"/><path class="cls-83" d="M346.34,767.69l-14.63-51a5.41,5.41,0,0,1,5.9-6.66l69.15,5.86a5.27,5.27,0,0,1,4.85,6.49L399,770a5.61,5.61,0,0,1-6.22,4l-46.44-6.29,35.26,4.77a5.19,5.19,0,0,1,1.86,9.8h0a5.85,5.85,0,0,1-3.29.65l-53.42-5.1" transform="translate(67.75 -35.1)"/><path class="cls-84" d="M354.29,745.77,393.48,748a5.58,5.58,0,0,0,5.79-4.13l3.82-15.92a5.28,5.28,0,0,0-5-6.38l-47.57-3.06a5.4,5.4,0,0,0-5.81,6.6l4.57,16.78A5.44,5.44,0,0,0,354.29,745.77Z" transform="translate(67.75 -35.1)"/></g><g id="_4정지" data-name="4정지"><polyline class="cls-88" points="875.15 603.29 894.3 550.83 894.3 486.65 830.51 375.67 700.09 331.82 592.84 365.21 537.16 459.58 537.16 554.8 563.08 614.16"/><line class="cls-80" x1="706.76" y1="500.49" x2="320.33" y2="41.61"/><line class="cls-80" x1="706.76" y1="492.92" x2="680.48" y2="5.95"/><path class="cls-89" d="M1075.34,386.22c-30.6-51-101.45-139.23-128.68-190.92" transform="translate(67.75 -35.1)"/><polyline class="cls-90" points="751.33 539.17 960.21 1115.71 970.25 1143.4 943.64 1124.21 459.94 1104.13 437.2 1108.73 552.3 1098.14 552.3 1098.14 934.61 1113.04 934.61 1113.04"/><path class="cls-80" d="M902.46,209.72C929.7,261.41,984.05,378,1014.65,429l11,192.37-11,116.22h0L959.33,861.46" transform="translate(67.75 -35.1)"/><line class="cls-91" x1="150.45" y1="269.81" x2="1155.7" y2="713.48"/><line class="cls-92" x1="733.04" y1="550.43" x2="681.51" y2="25.14"/><path class="cls-93" d="M943.32,195.3" transform="translate(67.75 -35.1)"/><path class="cls-94" d="M720.54,547" transform="translate(67.75 -35.1)"/><line class="cls-95" x1="104.24" y1="513.33" x2="1155.7" y2="571.77"/><polyline class="cls-96" points="1143.09 341.21 191.78 811.04 104.24 513.33 150.45 258.75 336.37 48.58"/><path class="cls-97" d="M1075.34,386.22c9.06,40.8,11.13,158.91,14,200.17,2.13,31.33,8.85,121.4-1.35,162.2" transform="translate(67.75 -35.1)"/><polyline class="cls-98" points="364.06 77.72 1082.4 883.94 1155.7 713.48"/><line class="cls-99" x1="970.21" y1="151.81" x2="733.04" y2="550.43"/><line class="cls-90" x1="749.75" y1="592.17" x2="941.54" y2="1132.56"/><line class="cls-100" x1="720.73" y1="591.32" x2="910.71" y2="1143.36"/><polygon class="cls-77" points="834.07 759.11 804.15 759.11 804.15 771.57 785.25 771.57 785.25 800.63 810.09 800.63 818.94 837.84 856.18 825.63 834.07 759.11"/><polygon class="cls-77" points="804.33 768.93 603.75 749.49 544.67 780.77 544.97 793.02 607.15 759.38 804.33 778.44 804.33 768.93"/><polygon class="cls-101" points="544.97 793.02 821.67 823.26 804.33 778.44 607.15 759.38 544.97 793.02"/><polyline class="cls-90" points="770.53 592.17 768.4 623.39 786.82 637.13 786.82 686.21 815.72 711.61 809.09 759.38"/><path class="cls-101" d="M753.92,906.84s20.27,9.25,29.51,6.24l-20.67-58.24L732,856Z" transform="translate(67.75 -35.1)"/><line class="cls-90" x1="532.35" y1="1165.65" x2="706.76" y2="575.56"/><line class="cls-90" x1="680.48" y1="550.43" x2="495.6" y2="1146.72"/><polygon class="cls-77" points="623.66 743.66 655.35 749.49 637.16 811.04 600.26 811.04 623.66 743.66"/><line class="cls-102" x1="661.44" y1="563.58" x2="479.8" y2="1134.74"/><line class="cls-103" x1="653.07" y1="763.82" x2="830.51" y2="1152.04"/><line class="cls-103" x1="808.57" y1="770.96" x2="614.43" y2="1159.17"/></g><g id="_3공" data-name="3공"><circle class="cls-104" cx="1570.92" cy="419.37" r="93.96"/><circle class="cls-105" cx="258.96" cy="441.48" r="67.18"/><path class="cls-106" d="M191.21,868.69" transform="translate(67.75 -35.1)"/></g><g id="_2파라" data-name="2파라"><path class="cls-77" d="M331.77,1039.15s172.61-5.71,197.6,6c0,0,124.19,26.78,137,99.79l-59.64,3.22s-47.64,13.89-72,0c0,0-47.41,13-65.38-2.07,0,0-23.53,10.71-60.2,0,0,0-32.12,12.82-67.47,0,0,0-45.56,13.93-75-1.15,0,0-50.28,19-84.28,0,0,0-11.9,16.15-69.7,1.15C112.72,1146.07,100.35,1050.93,331.77,1039.15Z" transform="translate(67.75 -35.1)"/><path class="cls-107" d="M606.75,1148.14s-19.71-63.21-120.88-109c0,0,42.6,51.28,48.91,109C534.78,1148.14,561.91,1161.81,606.75,1148.14Z" transform="translate(67.75 -35.1)"/><path class="cls-107" d="M446.59,1039.09s25.23,60.39,22.81,107c0,0-35.71,16.7-60.2,0,0,0-5-57.81,7.54-105.4C416.74,1040.67,436.59,1032.71,446.59,1039.09Z" transform="translate(67.75 -35.1)"/><path class="cls-107" d="M389.5,1040.67s-55.05,45.61-47.77,105.4c0,0-53.63,12.71-75-1.15,0,0,21.26-75.69,96.84-106.57Z" transform="translate(67.75 -35.1)"/><path class="cls-107" d="M314.48,1039.15s-135.46,55-132.06,105.77c0,0-39.67,14.45-69.7,1.15C112.72,1146.07,124,1036.2,314.48,1039.15Z" transform="translate(67.75 -35.1)"/></g><g id="_1간판" data-name="1간판"><polygon class="cls-108" points="605.47 556.2 617.4 550.24 620.8 574.36 605.47 556.2"/><polygon class="cls-108" points="714.15 462.75 699.21 468.44 717.23 477.88 714.15 462.75"/><polygon class="cls-108" points="674.92 566.34 685.74 559.06 682.15 596.47 670.13 595.09 674.92 566.34"/><polygon class="cls-108" points="715.77 571.4 727.75 568.59 733.39 603.12 717.59 582.74 715.77 571.4"/><polygon class="cls-108" points="778.68 577.38 774.12 581.67 780.94 590.35 778.68 577.38"/><polygon class="cls-108" points="806.1 577.98 803.04 585.2 809.39 596.25 806.1 577.98"/><path class="cls-108" d="M566.43,551.36q6.55,1.15,14-2.47a35.77,35.77,0,0,1,5.65,1.92,30.69,30.69,0,0,0,5.65,1.83c.89.16,1.33-.26,1.31-1.24,0-1.88-.21-4.93-.56-9.17s-.54-7.39-.58-9.46q0-2.65.23-7.91c.18-3.49.26-6.13.22-7.9a1.26,1.26,0,0,0-1.12-1.38c-1.12-.21-2.79-.45-5-.73s-3.9-.52-5-.73a58.52,58.52,0,0,1-7.5-1.78c-1.2-.42-1.89-.64-2.06-.68a.83.83,0,0,0-.8.15,3.13,3.13,0,0,0-.14,1q0,2.63.48,7,.61,5.84.7,7.08a7.73,7.73,0,0,1-4.45.38q-3.66-.68-6.39-4.83a16.48,16.48,0,0,1-2.78-9,11.56,11.56,0,0,1,2.43-7.77,6.1,6.1,0,0,1,6.13-2.28,12.18,12.18,0,0,1,6.36,3.54q2.91,2.86,3.55,3a2,2,0,0,0,1.52-.36c1-.61,2.71-2.55,5.29-5.84,2.74-3.51,4.1-5.75,4.08-6.74a5.84,5.84,0,0,0-.76-2.4,30.45,30.45,0,0,0-9.67-10.86,29.48,29.48,0,0,0-11.63-5.49q-11.76-2.28-19.78,6.81t-7.92,24.59A48.14,48.14,0,0,0,546.31,537Q554.76,549.3,566.43,551.36Z" transform="translate(67.75 -35.1)"/><path class="cls-108" d="M644.17,503.4q-8.55-12.13-20.24-14.33T604.21,496q-8,9.18-7.74,24.37a48.11,48.11,0,0,0,8.75,27.3q8.5,12.14,20.39,14.16t19.92-7.19q8-9.17,7.63-24.13A48.45,48.45,0,0,0,644.17,503.4ZM633.56,527a10.85,10.85,0,0,1-2.35,7.58,6.21,6.21,0,0,1-6.15,2.25,9.77,9.77,0,0,1-6.29-4.48A15.23,15.23,0,0,1,616,523.9a11.26,11.26,0,0,1,2.34-7.71,6.13,6.13,0,0,1,6.18-2.24,9.78,9.78,0,0,1,6.29,4.52A15.57,15.57,0,0,1,633.56,527Z" transform="translate(67.75 -35.1)"/><path class="cls-108" d="M711.14,540.12a48,48,0,0,0-3.51-15.86,37.49,37.49,0,0,0-8.47-13.55q-7.33-7.18-22.75-10c-1-.18-2.41-.42-4.31-.74s-3.15-.53-4.12-.7l-9.6-1.76c-.64-.12-.94.2-.92.94q.16,5.56.87,16.9t.86,17q.16,5.28.08,15.83t.05,15.85a1.49,1.49,0,0,0,1.32,1.62c1.3.22,3.3.49,6,.81s4.67.58,6,.81c1.51.25,3.78.69,6.79,1.32s5.29,1.06,6.81,1.31Q697.5,571.76,704,564a29.36,29.36,0,0,0,5.45-10.71A40.5,40.5,0,0,0,711.14,540.12Zm-19.83-3.39q.21,5.92-2.5,9.59a7.22,7.22,0,0,1-7.47,3,2.42,2.42,0,0,1-2.23-2.54q-.06-2-.26-5.94t-.27-5.93c-.05-1.36-.09-3.38-.13-6.08s-.08-4.71-.12-6,.57-1.89,1.85-1.66q4.47.8,7.7,5.33A18.4,18.4,0,0,1,691.31,536.73Z" transform="translate(67.75 -35.1)"/><path class="cls-108" d="M586,577.89q-5.64-5.79-15.32-7.46l-26.29-4.55c-.69-.12-1,.2-1,1l0,.7q.36,8.24.49,12.39.51,16.09.54,21.79,0,5.44-.4,16.29t-.4,16.3A1.46,1.46,0,0,0,545,636q2,.32,6,.75t6.06.75q3.5.56,10.52,1.86t10.58,1.84c4.33.68,8-1,11.1-4.86a21.85,21.85,0,0,0,4.33-14.11q-.12-9.74-5-15.18c-.65-.73-1-1.23-1-1.49,0,.36.74-.88,2.21-3.74a16.66,16.66,0,0,0,2.15-7.74,27.27,27.27,0,0,0-1.62-8.75A20,20,0,0,0,586,577.89Zm-16.12,41.64a26.7,26.7,0,0,1-4.15-.47c-1.13-.18-1.83-.56-2.09-1.13a12.06,12.06,0,0,1-.22-3,15.5,15.5,0,0,1,.1-2.82c.2-.47.84-.61,1.93-.43q7,1.14,7.07,5.21C572.52,618.52,571.63,619.38,569.86,619.53Zm-4.66-26.19a2.1,2.1,0,0,1-1.82-1.14,12.91,12.91,0,0,1-.18-2.71,15.33,15.33,0,0,1,.09-2.57c.18-.5.71-.67,1.61-.52q6,1,6.05,4.88Q571,594.31,565.2,593.34Z" transform="translate(67.75 -35.1)"/><path class="cls-108" d="M648.75,631q-3.57-13.72-5.66-20.54-4.33-13.12-6.68-19.65-3-8.49-3.35-9.28c-.62-1.21-1.15-1.85-1.58-1.92a2,2,0,0,0-.65.08,28.21,28.21,0,0,1-7.59-.57,29.16,29.16,0,0,1-4-1.11,29.16,29.16,0,0,0-4-1.11c-.62-.1-1-.08-1.19.07a3.43,3.43,0,0,0-.59,1.39c-11.49,41.84-17.33,63.37-17.32,64.36a1.27,1.27,0,0,0,1.15,1.41c1,.16,2.61.33,4.73.53s3.69.36,4.73.52,2.66.47,4.8.93,3.73.76,4.79.93c.63.09,1-.57,1.22-2,.21-1.6.83-2.53,1.86-2.78s4.57.08,10.63,1c1,.15,1.5.88,1.52,2.19,0,1.64,0,2.44,0,2.41q.18,1.5,1.2,1.65c1.12.17,2.78.35,5,.55s3.88.38,5,.55,2.81.49,5.08,1,4,.79,5.09.95,1.56,0,1.55-.45a3.3,3.3,0,0,0-.13-.66Q652.34,644.74,648.75,631Zm-20.86-14.53a4,4,0,0,1-.95,2.86,2.5,2.5,0,0,1-2.38.93,3.76,3.76,0,0,1-2.41-1.68,5.55,5.55,0,0,1-1.09-3.19q-.06-3.35,3.3-5.95A9.57,9.57,0,0,1,627.89,616.49Z" transform="translate(67.75 -35.1)"/><path class="cls-108" d="M699.05,596.38q-5.77-5.62-15.54-7.19L657,584.9c-.7-.12-1,.2-.94,1l.05.69q.52,8,.73,12.11.82,15.72.95,21.29.12,5.31-.09,15.92t-.11,15.94a1.45,1.45,0,0,0,1.32,1.61q2,.3,6.06.7c2.71.27,4.75.5,6.1.7q3.52.51,10.62,1.74t10.67,1.74q6.54.93,11.06-4.83a20.66,20.66,0,0,0,4.09-13.81q-.3-9.52-5.33-14.81c-.67-.71-1-1.19-1-1.45,0,.36.73-.87,2.16-3.67a15.86,15.86,0,0,0,2-7.57,26.29,26.29,0,0,0-1.8-8.54A19.67,19.67,0,0,0,699.05,596.38Zm-15.43,40.79a26.58,26.58,0,0,1-4.17-.43c-1.14-.17-1.85-.53-2.13-1.09a11.42,11.42,0,0,1-.27-2.9,16.24,16.24,0,0,1,0-2.76c.2-.45.84-.6,1.93-.43q7.1,1.07,7.21,5.05C686.28,636.17,685.41,637,683.62,637.17Zm-5.17-25.56a2.15,2.15,0,0,1-1.85-1.11,12.34,12.34,0,0,1-.23-2.65,13.87,13.87,0,0,1,0-2.5c.17-.49.71-.67,1.61-.52q6.06.95,6.17,4.73C684.25,611.53,682.34,612.22,678.45,611.61Z" transform="translate(67.75 -35.1)"/><path class="cls-108" d="M758.44,600.93c-1.16-.17-2.93-.38-5.28-.62s-4.12-.44-5.29-.62-2.79-.5-5-1-3.91-.82-5-1q-.59-.09-.54,1,.09,2.36.54,7.18t.54,7.23a10.08,10.08,0,0,1-1.17,3.83,19.49,19.49,0,0,1-1.89,3.39,27.53,27.53,0,0,1-2.25-4.16,14.49,14.49,0,0,1-1.57-4.44q-.27-6.91-.38-14,0-1.05-.63-1.14-1.82-.29-5.55-.66t-5.54-.65c-1-.16-2.54-.46-4.57-.91s-3.56-.75-4.57-.91c-.6-.09-.87.45-.83,1.64.07,2,.31,4.92.72,8.7.45,4.06.72,7,.81,8.71a10.49,10.49,0,0,0,1,3.51c1.93,4.49,3.8,8.61,5.58,12.36q4.61,9.23,7.11,14.09a12.26,12.26,0,0,1,1.07,4q.09,2.55-.12,7.61t-.14,7.56a1.45,1.45,0,0,0,1.35,1.58c1.07.15,2.69.32,4.85.49s3.78.34,4.88.5,2.83.47,5.11.93,4,.77,5.1.92c.76.11,1.12-.32,1.09-1.28-.07-1.66-.25-4.21-.57-7.63s-.5-6-.56-7.67A6.36,6.36,0,0,1,748,646a107.85,107.85,0,0,0,11.34-24.27,10.69,10.69,0,0,0,.41-4c-.07-1.72-.12-4.31-.14-7.75s-.06-6-.14-7.75A1.18,1.18,0,0,0,758.44,600.93Z" transform="translate(67.75 -35.1)"/><path class="cls-109" d="M571.27,550q6.56,1.15,14-2.47a35,35,0,0,1,5.64,1.93,31.53,31.53,0,0,0,5.65,1.82c.9.16,1.34-.26,1.32-1.24,0-1.88-.22-4.93-.57-9.17s-.54-7.39-.57-9.45c0-1.78,0-4.41.23-7.91s.25-6.14.22-7.91a1.26,1.26,0,0,0-1.12-1.38c-1.12-.21-2.8-.45-5-.73s-3.91-.52-5-.73a56.68,56.68,0,0,1-7.51-1.78c-1.19-.42-1.88-.64-2.06-.67-.38-.07-.64,0-.79.14a2.62,2.62,0,0,0-.14,1q0,2.62.47,7,.62,5.83.71,7.08a7.74,7.74,0,0,1-4.45.38q-3.66-.68-6.39-4.83a16.39,16.39,0,0,1-2.78-9,11.47,11.47,0,0,1,2.43-7.78A6.06,6.06,0,0,1,571.6,502a12.12,12.12,0,0,1,6.36,3.53c1.93,1.91,3.12,2.91,3.55,3a2,2,0,0,0,1.51-.35c1-.61,2.72-2.56,5.29-5.85,2.75-3.51,4.11-5.75,4.09-6.74a5.91,5.91,0,0,0-.76-2.39A30.48,30.48,0,0,0,582,482.36a29.79,29.79,0,0,0-11.64-5.49q-11.75-2.28-19.77,6.81t-7.93,24.59a48.15,48.15,0,0,0,8.53,27.42Q559.59,548,571.27,550Z" transform="translate(67.75 -35.1)"/><path class="cls-110" d="M649,502.06q-8.53-12.13-20.24-14.33t-19.72,6.93q-8,9.18-7.73,24.37a48.11,48.11,0,0,0,8.75,27.3q8.49,12.13,20.38,14.16t19.93-7.19q8-9.16,7.62-24.12A48.31,48.31,0,0,0,649,502.06ZM638.4,525.71a10.79,10.79,0,0,1-2.35,7.57,6.18,6.18,0,0,1-6.14,2.25,9.76,9.76,0,0,1-6.3-4.48,15.17,15.17,0,0,1-2.75-8.49,11.21,11.21,0,0,1,2.34-7.71,6.13,6.13,0,0,1,6.18-2.24,9.76,9.76,0,0,1,6.28,4.52A15.5,15.5,0,0,1,638.4,525.71Z" transform="translate(67.75 -35.1)"/><path class="cls-111" d="M716,538.78a48.26,48.26,0,0,0-3.51-15.86A37.49,37.49,0,0,0,704,509.37q-7.34-7.19-22.76-10c-1-.18-2.4-.42-4.31-.74s-3.15-.52-4.11-.7l-9.61-1.76c-.63-.12-.94.2-.91.94q.16,5.57.87,16.9t.86,17q.15,5.29.07,15.83t.06,15.85a1.48,1.48,0,0,0,1.31,1.62q2,.33,6,.81c2.67.32,4.68.58,6,.81q2.28.38,6.8,1.32c3,.62,5.28,1.06,6.8,1.31q11.28,1.86,17.81-5.89A29.22,29.22,0,0,0,714.33,552,40.77,40.77,0,0,0,716,538.78Zm-19.83-3.39q.2,5.93-2.5,9.59a7.24,7.24,0,0,1-7.48,3,2.41,2.41,0,0,1-2.22-2.54q-.06-2-.27-5.94t-.27-5.93c0-1.36-.08-3.38-.12-6.08s-.08-4.71-.12-6,.57-1.9,1.84-1.67q4.49.79,7.71,5.33A18.47,18.47,0,0,1,696.16,535.39Z" transform="translate(67.75 -35.1)"/><path class="cls-112" d="M590.83,576.55q-5.64-5.79-15.33-7.45l-26.29-4.56c-.69-.12-1,.21-1,1l0,.7q.36,8.24.5,12.39.51,16.1.53,21.79,0,5.45-.39,16.29t-.41,16.3a1.46,1.46,0,0,0,1.29,1.66c1.31.21,3.32.46,6,.75s4.71.54,6,.76q3.5.54,10.53,1.85T583,639.85c4.33.68,8-1,11.09-4.86s4.4-8.49,4.33-14.1q-.12-9.75-5-15.18c-.66-.74-1-1.23-1-1.5,0,.37.74-.88,2.21-3.74a16.68,16.68,0,0,0,2.16-7.73,27.17,27.17,0,0,0-1.62-8.75A20.23,20.23,0,0,0,590.83,576.55ZM574.7,618.19a26.74,26.74,0,0,1-4.14-.47c-1.14-.18-1.83-.56-2.1-1.13a12.3,12.3,0,0,1-.21-3,17.51,17.51,0,0,1,.09-2.82c.21-.46.85-.61,1.93-.43q7,1.14,7.08,5.22C577.36,617.18,576.48,618,574.7,618.19ZM570,592a2.14,2.14,0,0,1-1.82-1.15,14,14,0,0,1-.17-2.71,13.22,13.22,0,0,1,.09-2.57c.17-.5.71-.67,1.61-.52,4,.67,6,2.3,6,4.88Q575.83,593,570,592Z" transform="translate(67.75 -35.1)"/><path class="cls-113" d="M653.6,629.68Q650,616,647.94,609.15q-4.34-13.14-6.68-19.66-3-8.47-3.36-9.28c-.61-1.21-1.14-1.85-1.58-1.92a1.85,1.85,0,0,0-.65.09,30.3,30.3,0,0,1-11.58-1.69,29.16,29.16,0,0,0-4-1.11c-.62-.1-1-.08-1.19.07a3.29,3.29,0,0,0-.59,1.4C606.82,618.88,601,640.41,601,641.4a1.27,1.27,0,0,0,1.14,1.41c1,.16,2.62.34,4.73.53s3.69.36,4.73.52,2.67.48,4.8.93,3.73.76,4.8.93c.62.09,1-.57,1.21-2,.21-1.61.83-2.54,1.87-2.79s4.57.08,10.63,1c1,.15,1.49.88,1.51,2.19,0,1.64.05,2.44.05,2.41.12,1,.52,1.55,1.19,1.65,1.12.17,2.79.35,5,.55s3.88.38,5,.55,2.81.49,5.08,1,4,.79,5.09,1,1.55,0,1.54-.45a2.56,2.56,0,0,0-.13-.65Q657.18,643.4,653.6,629.68Zm-20.86-14.53a4.13,4.13,0,0,1-1,2.86,2.49,2.49,0,0,1-2.39.93,3.78,3.78,0,0,1-2.41-1.68,5.54,5.54,0,0,1-1.08-3.19q-.06-3.35,3.3-6A9.64,9.64,0,0,1,632.74,615.15Z" transform="translate(67.75 -35.1)"/><path class="cls-114" d="M703.9,595q-5.77-5.62-15.55-7.19l-26.51-4.29c-.69-.12-1,.21-.94,1l.06.69q.51,8,.73,12.11.81,15.72.94,21.29.14,5.31-.09,15.92t-.1,15.94a1.45,1.45,0,0,0,1.32,1.61q2,.3,6.06.7t6.1.7q3.52.51,10.62,1.74c4.73.82,8.28,1.39,10.66,1.74q6.56.94,11.07-4.83,4.35-5.6,4.09-13.81-.32-9.52-5.33-14.8c-.67-.71-1-1.2-1-1.46,0,.36.73-.87,2.15-3.67a15.75,15.75,0,0,0,2-7.57,26,26,0,0,0-1.79-8.54A19.94,19.94,0,0,0,703.9,595Zm-15.43,40.79a26.37,26.37,0,0,1-4.17-.43c-1.15-.17-1.86-.53-2.13-1.09a11.42,11.42,0,0,1-.27-2.9,15.15,15.15,0,0,1,0-2.76c.19-.45.84-.6,1.93-.43q7.1,1.06,7.21,5C691.12,634.83,690.25,635.68,688.47,635.83Zm-5.18-25.56a2.17,2.17,0,0,1-1.85-1.11,13,13,0,0,1-.23-2.64,13.45,13.45,0,0,1,0-2.51c.17-.49.7-.67,1.61-.52q6.06.94,6.17,4.73C689.1,610.19,687.18,610.88,683.29,610.27Z" transform="translate(67.75 -35.1)"/><path class="cls-115" d="M763.29,599.6c-1.17-.18-2.93-.39-5.29-.63s-4.12-.44-5.28-.62-2.8-.5-5-1-3.92-.82-5-1q-.58-.09-.54,1,.09,2.35.53,7.18t.54,7.23a10.08,10.08,0,0,1-1.17,3.83,18.24,18.24,0,0,1-1.89,3.39,28.46,28.46,0,0,1-2.25-4.16,14.57,14.57,0,0,1-1.56-4.44q-.27-6.9-.39-14c0-.7-.23-1.08-.62-1.14q-1.83-.29-5.55-.66t-5.55-.65c-1-.16-2.53-.46-4.57-.91s-3.56-.75-4.57-.91c-.59-.09-.87.45-.83,1.64q.1,3,.73,8.7.67,6.1.8,8.71a11,11,0,0,0,1,3.51q2.91,6.74,5.59,12.36,4.59,9.22,7.1,14.1a12.22,12.22,0,0,1,1.08,4c.06,1.7,0,4.24-.13,7.61s-.19,5.89-.13,7.56a1.45,1.45,0,0,0,1.34,1.58c1.08.16,2.69.32,4.85.49s3.79.34,4.89.5,2.83.47,5.1.93,4,.77,5.11.92c.76.11,1.12-.32,1.08-1.28-.06-1.66-.25-4.21-.56-7.63s-.5-6-.57-7.67a6.44,6.44,0,0,1,1.31-3.44,107.41,107.41,0,0,0,11.35-24.27,10.9,10.9,0,0,0,.41-4q-.11-2.58-.14-7.75t-.14-7.75C764.28,600.13,763.94,599.69,763.29,599.6Z" transform="translate(67.75 -35.1)"/></g></svg>