<?xml version="1.0" encoding="utf-8"?>
<!-- Generator: Adobe Illustrator 25.0.1, SVG Export Plug-In . SVG Version: 6.00 Build 0)  -->
<svg version="1.1" id="레이어_1" xmlns="http://www.w3.org/2000/svg" xmlns:xlink="http://www.w3.org/1999/xlink" x="0px"
	 y="0px" viewBox="0 0 407 125" style="enable-background:new 0 0 407 125;" xml:space="preserve">
<style type="text/css">
	.st0{fill:none;stroke:#FFFFFF;stroke-width:2;stroke-miterlimit:10;}
	.st1{fill:#FFFFFF;}
	.st2{fill:#BFBFBF;}
	.st3{fill:none;stroke:#000000;stroke-width:2;stroke-miterlimit:10;}
	.st4{fill:#FFFFFF;stroke:#000000;stroke-width:2;stroke-miterlimit:10;}
</style>
<line class="st0" x1="193.88" y1="7.58" x2="93.06" y2="86.37"/>
<line class="st0" x1="205.71" y1="6.42" x2="312.31" y2="86.37"/>
<path class="st1" d="M400.19,121.49H4.81c-2.54,0-4.6-2.06-4.6-4.6V90.96c0-2.54,2.06-4.6,4.6-4.6h395.39c2.54,0,4.6,2.06,4.6,4.6
	v25.94C404.79,119.44,402.73,121.49,400.19,121.49z"/>
<path class="st2" d="M0.21,106.11h404.58c0,0,2.47,12.92-3,14.76l-122.43,0.63H172.42H59.09l-54.41-0.11
	C4.68,121.39-2.21,119.8,0.21,106.11z"/>
<path class="st3" d="M401.19,121.49H5.81c-2.54,0-4.6-2.06-4.6-4.6V90.96c0-2.54,2.06-4.6,4.6-4.6h395.39c2.54,0,4.6,2.06,4.6,4.6
	v25.94C405.79,119.44,403.73,121.49,401.19,121.49z"/>
<circle class="st4" cx="200.42" cy="15.53" r="10.3"/>
<path class="st3" d="M382.15,86.37c0,0,6.86,15.75,0,35.13"/>
<path class="st3" d="M26.85,86.37c0,0-6.86,15.75,0,35.13"/>
</svg>
