<?xml version="1.0" encoding="utf-8"?>
<!-- Generator: Adobe Illustrator 25.0.1, SVG Export Plug-In . SVG Version: 6.00 Build 0)  -->
<svg version="1.1" id="레이어_1" xmlns="http://www.w3.org/2000/svg" xmlns:xlink="http://www.w3.org/1999/xlink" x="0px"
	 y="0px" viewBox="0 0 1920 83" style="enable-background:new 0 0 1920 83;" xml:space="preserve">
<style type="text/css">
	.st0{fill:#202020;}
</style>
<g>
	<g>
		<g>
			<g>
				<g>
					<path class="st0" d="M1937.5,41.16c1.03-0.34,0.45-1.13-2.39-0.97l-2.02,1.32L1937.5,41.16z"/>
					<path class="st0" d="M1918.4,38.71c-3.34,0.64-7.19,1.77-5.03,2.99c3.31-1.27,4.11-0.74,7.67-2.26
						c2.84-0.15,4.96,0.42,4.48,0.91c1-0.34,4.41,0.29,5.94-0.54c-3.7-1.03-8.38-1.07-13.27-0.22
						C1917.14,39.3,1918.16,38.95,1918.4,38.71z"/>
					<path class="st0" d="M1640.87,36.64l1.79,0.16C1642.17,36.72,1641.56,36.67,1640.87,36.64z"/>
					<path class="st0" d="M1468.92,35.92c1.31-0.03,1.86-0.16,1.92-0.28C1469.63,35.72,1468.63,35.8,1468.92,35.92z"/>
					<path class="st0" d="M1439.56,34.46c0.63,0.04,1.16,0.06,1.73,0.09C1440.63,34.43,1439.97,34.36,1439.56,34.46z"/>
					<path class="st0" d="M1640.87,36.64l-4.59-0.42C1635.96,36.66,1638.63,36.55,1640.87,36.64z"/>
					<path class="st0" d="M1880.13,41.9c0.96-0.06,1.76-0.19,2.49-0.35c-0.79,0.06-1.55,0.1-2.34,0.14
						C1880.24,41.77,1880.2,41.83,1880.13,41.9z"/>
					<path class="st0" d="M1716.68,35.57l1.4,0c0.41-0.15,0.8-0.33,1.16-0.54L1716.68,35.57z"/>
					<path class="st0" d="M1774.85,35.37c-1.32-0.05-1.77,1.08-2.28,1.57c0.74-0.46,1.72-0.68,2.87-0.77
						C1775.46,35.95,1775.29,35.7,1774.85,35.37z"/>
					<path class="st0" d="M1867.09,37.35l1.64-0.16C1868.3,37.24,1867.59,37.28,1867.09,37.35z"/>
					<path class="st0" d="M1675.04,35.33c-0.1-0.17-0.31-0.31-0.53-0.4C1674.51,35.07,1674.72,35.2,1675.04,35.33z"/>
					<path class="st0" d="M47.93,43.78c0.05-0.08-0.02-0.13,0-0.2C47.59,43.69,47.49,43.77,47.93,43.78z"/>
					<path class="st0" d="M-19.5,38.21l0.93-0.06c0.1-0.21,0.2-0.42,0.2-0.63L-19.5,38.21z"/>
					<path class="st0" d="M1385.83,33.02c0.1,0.01,0.14,0.01,0.24,0.02C1387.48,32.91,1386.68,32.93,1385.83,33.02z"/>
					<path class="st0" d="M892.59,33.85c5.59,1-9.09,1.29-0.68,2.41C891.12,35.82,899.55,34.5,892.59,33.85z"/>
					<path class="st0" d="M1878.62,41.76c-0.79,0.01-1.58,0.02-2.38,0.01C1877.33,41.8,1878.06,41.8,1878.62,41.76z"/>
					<path class="st0" d="M891.91,36.26C891.91,36.26,891.91,36.26,891.91,36.26l0.87,0.11C892.42,36.32,892.21,36.29,891.91,36.26z
						"/>
					<path class="st0" d="M1262.03,33.7c0.25,0.2,0.75,0.35,1.26,0.49C1263.25,34.07,1262.97,33.93,1262.03,33.7z"/>
					<path class="st0" d="M1354.26,35.29l-2.28-0.15C1352.88,35.25,1353.62,35.28,1354.26,35.29z"/>
					<path class="st0" d="M1214.15,35.28c-1.24-0.09-1.66-0.24-3.36-0.09c0.16,0.06,0.31,0.1,0.52,0.14
						C1211.92,35.18,1212.73,35.1,1214.15,35.28z"/>
					<path class="st0" d="M1164.31,35.29c0.26,0.09,0.61,0.15,0.92,0.23c0.49-0.02,1.07-0.04,1.58-0.06L1164.31,35.29z"/>
					<path class="st0" d="M199.41,43.24c-1.09-0.32-1.77-0.67-2.3-1.01C197.87,43.03,190.55,43.31,199.41,43.24z"/>
					<path class="st0" d="M1880.11,41.27c-0.29,0.28-0.72,0.42-1.48,0.48c0.57-0.01,1.12-0.04,1.66-0.06
						C1880.43,41.53,1880.46,41.37,1880.11,41.27z"/>
					<path class="st0" d="M1212.12,44.15l-7.92-0.17C1206.42,44.1,1209.3,44.15,1212.12,44.15z"/>
					<path class="st0" d="M556.98,43.08l-1.82,0.13C555.86,43.24,556.5,43.2,556.98,43.08z"/>
					<path class="st0" d="M1180.7,44.15c-1.41-0.4-2.91-0.63-4.46-0.78c-0.33,0.09-0.7,0.16-0.92,0.29L1180.7,44.15z"/>
					<path class="st0" d="M197.09,42.22c0.02,0,0.02,0.01,0.02,0.01S197.11,42.22,197.09,42.22z"/>
					<path class="st0" d="M144.93,44.89c7.55,0.03,3.54-1.45,5.14-2.29c9.01-0.42,4.17,1.09,7.23,1.84
						c5.62-0.39,9.94-1.75,14.13-1.69c0.31,0.24,1.13,0.33,0.17,0.64c5.95-1.17,17.65-0.06,24.58-1.53c0.52,0.13,0.77,0.25,0.9,0.37
						c-1.12-0.74-1.29-1.49-1.06-2.03c3.38-0.03,6.28-0.93,7.55,0.03c-2.07-0.03-2.25,0.36-3.22,0.66l3.54-0.42
						c3.19,1.39-4.84,0.48-4.84,1.51c6.91-0.45,14.97-1.6,20.26-1.21c1.11,1.36-12.38,0.46-5.32,1.67l-8.2-0.52
						c6.26,2.14-4.98-0.15,0.77,2.14c10.78,0.39,12.06-0.69,22.82-0.3c2.42-0.75-0.8-1.12,1.62-1.87
						c15.29-1.36,12.04,3.42,23.28,1.61c2.91-0.91,4.04-2.62,12.04-1.71l-2.73,1.54c10.44,0.15,5.96-2.21,16.89-1.17
						c-1.94,0.6-8.21,0.51-6.63,0.69c7.08,1.21,5.01-0.87,10.46-0.87l1.13,1.36c11.12-0.21,23.36-1.2,35.67-1.44
						c-0.68,0.4-2.79,0.83,0.09,1.25c15.53-0.68,33.14,0.17,48.12,0.97l5.72-1.17c1.33,0.01,2.47,0.53,1.03,0.76
						c5.84,0.45,0.3-0.74,3.11-1.21c3.32-0.08,4.39,0.67,2.28,1.03c10.3-1,29.34-2.14,40.19-0.89l-2.12,0.35
						c8.45,0.48,9.54-2.41,17.37-1.31l-1.5,0.21c18.34,0.51,38.61-0.57,52.6,1.21c2.66-1.69,18.15,0.75,19.33-1.6
						c10.47,1.17,7.47,1.59,22.22,2.38c3.94,0.11,5.87-1.47,10.74-1.72l0.12,1.23l6.61-1.29l3.52,1.47l4.57-0.32
						c-1.82-0.07-3.87-0.55-3.59-0.91c7.14-0.56,17.39,0.86,17.57,1.49l16.88-1.04c-0.37,0.5-3.2,0.67-5.44,0.98
						c9.01-1.26,1.64,1.3,9.89,0.15c-1.11-0.28,0.6-0.73,0.79-0.98c4.12,0.75,13.48,0.75,20.42,0.44l-1.33,0.85
						c12.52,0.22,26.4-0.41,40.45-0.39c-5.04-0.4-3.88-1.87,0.24-2.01l1.65,1.3c2.66-0.8-4.3-0.49,1.16-1.48
						c5.25,0.15,3.53,1.48,0.52,1.91l6.38-0.45c0.37,0.39-1.12,0.59-1.51,1.09c2.62-0.81,11.02,1.31,14.79-0.1l0.36,0.39
						c14.05,0.01,20.42-0.44,31.86-0.5c0.22-1.13,4.7-0.88,8.11-1.78c8.41,0.36,17.74,1.24,27.87,1.15
						c7.12-0.56,2.08-0.95,5.28-1.62c0.52,1.02,10.64,0.93,5.39,1.66c12.16-0.17,15.53-0.2,30.91-1.04
						c-1.67-0.42-3.55-0.6-2.57-0.95c2.79-0.17,6.35,0.43,5.95,0.92l-0.74,0.11c17.26-1.54,39.84,2.99,53.59,0.85l-0.77,0.11
						l14.26-1.11c6.56,0.18-3.93,0.77,0.92,1.4c15.38-1.71,24.3,0.25,36.96-0.89c9.8,3.02,34.78-0.21,48.02,1.72l-0.76-0.71
						c3.42-0.7,4.14,0.41,6.66,0.57c-0.36-0.55-3.71-0.64-1.59-1.03c28.97-0.86,59.79,1.04,89.49,1.68
						c10.86,0.19,6.16-3.68,19.86-1.98l-3.89,1.32c21.92-1.59,44.82,0.05,66.28-1.29c-1.28,0.3-1.32,0.7-3.41,0.7
						c4.53,0.96,16.76,0.05,16.84-0.74c3.34,0.09,0.77,0.71,2.83,1.11c4.55,0.57,11.41-1.23,13.83-0.27
						c0.41,0.16-1.28,0.31-2.11,0.39c2.96-0.46,13.8,0.12,10.97-0.99c8.05,0.53,15.41-0.49,21.83,0.16
						c4.19-1.24,13.79,0.6,15.12-1.16c-0.58,1.81,14.12,1.46,19.21,0.61c-1.71,0.55,4.43,0.57,2.43,1.32
						c5.81-0.03,11.14-0.36,10.12-1.29c10.71,2.16,21.52-1.74,27.55,1.03c17.26-0.97,33.24-1.63,48.77-2.05
						c-0.56,1.8-17.17,0.18-16.5,2.07c14.73-0.74,23.23-2.29,37.84-1.86c3.78,0.25-2.15,0.78-3.42,1.09
						c14.72-0.74,28.46,0.16,41.55-0.82c-0.04,0.17-1.45,0.35-2.78,0.49c2.58-0.06,6,0.26,5.71-0.55l-2.52,0.22
						c-4.12-1.19,10.25-2.49,10.71-3.12c-4.38,2.35,12.94,0.59,5.98,3.56c1.7-0.16,3.83-0.54,3.44-1.09
						c2.52,0.16,3.32,0.48,0.76,1.1c9.24-0.45,5.96-1.32,14.34-1.3c-0.03,0.4-1.72,0.55-2.59,1.02c4.24-0.77,8.5-1.55,15.58-1.21
						c-0.43,0.24,0.4,0.55-1.72,0.54c12.16-0.12,20.72-2.06,34.06-1.31c-3.93,1.72,4.54,0.57,5.24,2.06l7.17-0.45l-2.88-0.72
						c6.28,0.03,11.83-1.06,17.23-0.57l-4.67,0.62l11.77-0.28l-6.66-0.57c6.36-0.77-0.68-1.89,7.68-1.47
						c-1.7,0.15,6.28,0.02,9.56,0.9c0,0-0.02,0-0.02,0c3.11-0.48,6.3-0.98,10.95-0.61c1.21,0.48-0.97,1.65-0.19,1.97
						c3.07-1.25,14.71-0.35,18.59-1.68c-1.29,0.31-1.36,1.1-0.94,1.26l2.57-1.01c2.91,0.32,3.34,0.48,2.86,1.11
						c8.75,0.19-2.78-1.89,7.61-1.08c-0.82,0.08-0.43,0.23-2.12,0.39c10.43,0.43,20.16-0.64,29.75-0.14
						c2.83,1.5-8.38,0.37-5.14,1.64c13.82-0.27,28.62-1.8,42-1.45l-2.49-0.17c1.85-2.12,9.96,1.05,16.73,0.05
						c-1.66,0.16-2.17,1.18-1.72,0.94c9.16,0.34,18.73-0.52,32.61-1.19l-1.72,0.54c5.4,0.49,14.22,0.28,20.05,0.53
						c1.73-0.54,5.07-0.46,3.04-1.25c17.98,3.1,34.3-1.66,50.25,0.92c-1.91,0.01-4.55,0.48-3.03,0.48l13.59-0.5
						c-1.07-0.92-1.78-0.56-4.64-1.28c1.72-0.55,5.56-0.97,8.92-0.97c-6.11,0.61,0.05,1.48,2.69,2c-0.44-0.28,0.46-0.6,0.24-0.88
						c7.1,1.64,1.19-1.86,10.88-0.75l-0.51,0.49c3.63-0.25,6.97-0.89,10.88-0.75c1.62,1.07-3.86,0.5-4.11,1.38
						c5.49-0.06,10.84-2.03,15.81-0.96c-2.33,0.3-5.69,0.3-8.02,0.6c5.42,1.26,6.04,0.94,10.07,1.14l-0.4-0.03l9.3,0.57l-2.37-0.34
						c6.88-2.79,14-0.51,23.26-2.34c-9,1.73-1.49,1-2.18,2.21c2.36,0.34,5.96,0.71,4.94,1.05c4.38-0.98,7.31,0.77,13.48-0.66
						c0.28,0.39,4.68,0.04,3.7,1.02c5.69-0.31-1.35-0.68-0.87-1.17c8.77-1.33,20.62,1.62,33.24-0.21
						c10.88-0.75,12.89-2.07,22.99-2.72c3.41,0.62-2.79,1.42-2.79,1.42c5.5,0.57,9.63,0.47,14.82,0.02
						c-1.05,0.34,0.03,0.63,1.61,1.07c4.16-0.1,2.78-1.42,8.26-0.84c-0.94,0.44-2.15,1.13-4.15,1.57c4.9-0.36,9.74-1.09,14.81-1.44
						c1.35,0.68-3.06,1.03-4.85,1.48c5.7-0.31,14.77-0.62,16.53-1.69l-3.66-0.38c2.08-0.05,1.07,0.92-0.46,1.12
						c-4.89,0.84-7.05-0.37-7.32-0.76l3.61-0.25c-3.71-2.29-14.51,0.37-21.78,0.23l3.03-1.66l-7.46,1.38
						c-1.59-0.43-2.67-1.36,0.92-1.61c-5.21-0.82-4.61,0.59-9.09-0.33c-0.49-0.14-0.27-0.22,0.19-0.29l-5.09,0.5
						c1-0.35-0.85-1.17,2.28-0.93c-9.14-0.96-14.74,1.25-18.18-0.01l0.76-0.1c-12.68,0.56-1.23,1.22-10.74,2.66l-6.4-3.01
						l-1.25,1.22c-1.31-0.04-3.9-0.14-3.42-0.62c-4.87,0.84,0.83,0.53-2,1.32c-6.3-1.11-17.37,0.52-18.79-1.42
						c-2.26,0.93,6.02,0.72-0.7,1.36c-1.92-2.09-7.77,0.36-13.53-0.6c1.77-1.08,7.22-0.51,1.46-1.47
						c-3.47,1.83-11.21-0.4-16.06-0.05c-0.23,1.45-10.55,0.61-18.7,1.09c0.52-0.49-15.33-0.8-22.9-1.32l0.22-0.24
						c-1.47,1.47-9.28,1.19-14.97,1.5c0.22-0.88,1.25-1.23,4.33-1.62l-5.35,0.01c-1.26,0.47-2.93,0.72-6.4,0.89l1.35-1.1
						c-7.12,0.06-14.34,1.29-23.5,0.56c-0.52,1.02,7.29,2.85-2.4,3.54c-0.36-0.55-0.72-1.5,1.82-1.73
						c-0.83,0.07-2.96,0.46-4.63,0.22l3.87-0.93c-4.17-0.41-2.18,0.78-5.52,0.69c0.07-0.79-2.47-0.56-1.99-1.19
						c0.85-0.08,2.91,0.33,4.19,0.02c-3.76-0.14-8.31-0.61-9.81-1.21c0.33,0.45,0,1.06-2.75,1.17c-7.12,0.06-2.44-0.95-6.59-1.36
						c-1.72,0.55-6.27-0.02-6.39,1.16c-2.08-0.01-2.47-0.56-3.27-0.88c-3.68,0.52-17.21,0.15-13.06,1.4l0.95,0.08
						c-0.18,0.02-0.39,0.03-0.6,0.05c0.03,0,0,0,0.03,0h-0.03c-12.08,1.17-25.09-0.67-37.07-0.16l0.02-0.4
						c-7.15,0.45-15.92,0.27-21.03,1.12c-2.12,0-4.99-0.72-4.09-1.19c-5.47,0.3-6.08,0.74-13.98,0.09c5.5-0.69-1.9-0.61,5.63-0.5
						c-7.11-0.34-8.71-0.97-16.34,0.11c2.6-1.01-5.35-1.27-8.73-0.97l4.98,0.72c-3.8,0.15-7.12,0.06-10.49-0.03l1.82-1.33
						c-14.54-1.62-26.22,2.75-37.29,0.04c-3.85,0.93,7.9,0.66,4.46,1.74c-6.69-0.18-13.66-2.09-15.75-2.09
						c-9.16-0.74-8.55,1.94-18.14,1.44c1.23,0.47,2.38,1.74-4.78,2.19c-6.69-0.18-8.23-1.99-4-2.37c1.6-0.04,2.38,0.11,2.31,0.27
						c2.16-0.17,5-0.38,2.35-0.89l-0.87,0.47c-3.32-0.48-12.53-0.43-10.37-1.21c-5.06,0.45-2.16,0.78,1.58,1.02
						c-8.58-0.69-13.41-0.02-22.25-0.48c1.4,0.26,2.7,0.82,1.3,0.81c-12.96-0.59-5.71,0.9-14.49,1.11
						c-4.99-0.72,1.79-1.73-7.05-1.12c-5.4-0.49-1.14-1.26,1-1.65c-8.05,0.92-15.05-0.6-19.65-0.77l4.24-0.38
						c-2.54,0.23-4.61,0.22-6.73,0.22l2.42,0.95c-2.49-0.17-4.6-0.17-4.55-0.56c-2.57,0.62,1.96,1.58-3.13,2.43
						c-3.32-0.48-10.11,0.52-11.26-0.74c10.45,0.43-1.15-1.27,7.69-1.47c-1.71,0.15-3.78,0.14-6.28-0.02
						c-0.37-0.14,0.35-0.26,1.03-0.33c-9.99-1.13-4.59,1.42-14.95,1.4c1.32-0.71-2.4-1.35-4.09-1.2c4.17,0.01,2,1.18-1.83,1.73
						c-6.64-0.55-7.22,0.41-10.7,0.35l3.97,0.26c-1.35,0.71-4.67,0.62-9.3,0.84c-0.4-0.55,4.2-0.38,2.55-0.62
						c-5.14,1.25-11.62-1.29-18.78-0.45c-3.32-0.48-0.32-1.33-3.24-1.66c-8.03,0.92-8.7-0.97-17.14-0.21
						c2.43,0.95,2.86,0.72-3.09,1.65l13.88-0.67l-8.91,1.39c4.19,0.01,8.84-0.6,11.35-0.44c-4.24,0.78-3.81,0.54-1.8,1.33
						c-5.73-1.43-11.36,0.83-17.99-0.13l0.2-2.36c-9.96-1.05-17.7,1.21-30.64,0.62l4.16,0.41c-1.73,0.94-7.99,0.13-12.18,0.51
						c0.39-0.79-2.23-1.08-4.02-1.57c0.22,0.59-9.47-0.05-10.64,1.52l-5.77-1.04c-10.45-0.43-11.92,2.25-21.96,1.98
						c3.02-0.86-1.54-1.42,5.19-2.03c-3.35-0.01-6.37-0.15-6.42,0.4c-1.96-0.49-9.3,1.06-12.38,0.31c-1.41,0.35-1.88,1.17-5.64,1.11
						c-0.41-0.16,0.01-0.39,0.01-0.39c-0.01,0.39-5.89,0.53-2.6,1.4c-10.33-2.46-28.86,0.18-37.85-1.94
						c-7.32,0.26-16.13,0.52-22.77,0.58c0.43-0.24,0.02-0.39,1.28-0.31c-9.16-0.73-5.63,2.27-16.06,1.45
						c-5.33-1.28,5.54-0.69,2.22-1.17c-1.45-2.6-12.58,0.35-19.6-1.16l1.7-0.15c-5.36-0.88-13.08,0.98-21.85,0.8
						c0,0,0.43-0.23,0.05-0.39c-5.99,1.33-17.34,1.76-25.77,2.13c2.62-1.02,3.83-0.54,2.23-1.57c-3.78,0.15,1.11,1.66-6.43,1.95
						c-2.45-0.56-7.89-1.04-8.61-2.15l7.11-0.06c-3.64-1.43-9.21,0.05-12.96-0.2l0.48-0.62c-10.9,0.2-11.05,1.77-22.77,1.66
						l1.21,0.47c-6.4,1.56-5.37-0.88-11.76,0.28l-1.93-1.58c-4.23,0.38-14.8,1.53-22.38,1.82c4.29-1.17,13.16-1.77,18.65-2.46
						c-4.19-0.01-14.23,0.12-16.42,0.9c1.69-0.15,3.81-0.54,5.48-0.3c-5.14,1.24-11.9,1.85-20.25,1.82
						c1.48-3.06-21.75-0.77-27.81-3.15c-14.76,1.13-29.29-0.48-46.49-0.3c6.1,2.38-5.02,0.07-3.97,2.51
						c-4.01,0.16-5.53,0.12-5.89-0.04l-12.14-1.46c-2.88-0.71,3.81-0.54,3.44-1.09c-8.77-0.19-3.68-1.04-9.49-1.69
						c1.19,0.87-3.05,1.25-8.05,0.92l7.04,1.13c-12.26,1.3-10.6-2.05-22.95-0.76l3.91-0.77c-6.34,0.45-23.39-0.02-29.61,1.95
						c-1.12-0.28-2.6-0.95,0.19-1.13c-15.15-0.29-33.73,2.09-45.51,0.88l1.15-0.6c-2.83,0.17-4.92,1.12-8.46,0.52
						c0.18-0.25,1.14-0.6-0.17-0.63c-1.5,0.21-7.51,1.05-11.26,0.7l3.2-0.67c-14.78-0.78-22.68,1.64-35.08,2.05
						c0.03-1.76-11.6-2.33-17.4-2.62l0.2-0.25c-17.21-0.22-29.24,1.46-45.18,2.15c-9.89-1.91-33.52-0.8-49.42-1.87
						c2.43,0.32-0.4,1.37-3.22,1.55c-3.73-0.36-10.32,1.22-9.72-0.39l1.33,0.03c-2.81-1.58-10.48-1.16-16.47-1.21l-0.99,2.11
						c-15.66-3.07-41.04,1.13-49.59-1.62c-3.78,0.53-8.46,0.52-12.21,1.05l0.2-1.13c-10.47-0.29-15.7-0.43-28.64-0.16l2.64-0.81
						c-7.3-0.08-9.22,3.27-15.95,3.33l-2.03-1.69c-12.74,0.03-25.63-1.46-38.22,0.08c0.21-0.25,0.58-0.74,2.64-0.8
						c-6-0.04-23.19-1.14-21.02,1.18c-0.15-1.51-13.14-0.15-20.02,0.52l1.07-1.11c-5.81,1.42-5.99,1.81-14.1,2.21
						c-1.92-0.15-1.68-0.89,0.87-0.61c-6.4-0.58-4.99,1.06-12.75,0.46l2.89-0.71c-6.59-0.09-6.06,0.3-9.69,1.13
						c-4.14,0.45-12.5-0.28-13.47-1.29c-0.89,0.61-4.5,1.44-8.38,1.15c-0.52-0.38,0.89-0.62,1.6-0.73
						c-11.02-0.76-16.38,1.3-23.96,0.2c-0.16-0.37-0.65-0.55-1.28-0.67c8.75,0.03,15.8,0.09,15.14,0.17c0-1.03-7.07-1.21-1.45-2.63
						c-5.67,0.77-15.38,2.46-22.27,1.97c-0.33-0.1-0.66-0.2-0.91-0.36l0.71-0.12c-1.59-0.1-3.01-0.01-4.36,0.17
						c-2.2-0.17-3.6-0.29-5.71-0.31c-0.82-0.85-8.11-0.46-11.63-0.5c0.29,1.13-4.32,0.94,0,1.87c-0.56-0.08,0.67-0.13,3.01-0.18
						c0.53-0.03,1.15-0.05,1.5-0.12c-0.07,0.03-0.15,0.07-0.24,0.1c2.31-0.03,5.33-0.06,8.76-0.08c-2.78,0.57-5.69,1.05-9.59,0.43
						c-1.81,0.72-3.8,1.47-4.92,1.81c-4.82-1.57-14.12-2.42-15.42-3.38c-10.76,0.63-25.35,0.42-32.12,2.53
						c-3.06,0.27-3.52-0.61-4.66-0.94c1.77-0.21,3.87-0.18,4.82-0.48c-6.12,0.54-18.13,0.21-19.59,1.69
						c-7.71-0.67,4.33-1.36-6.26-1.12l1.43-0.45c-20.85-2.36-33.89,3.77-57,0.74c1.6,0.19,2.4,0.27,2.73,0.52
						c-26.35-1.34-54.3,1.25-80.3-0.86c-7.39-0.43-8.19,0.52-12.7,1.23l-1.6-1.21l-7.71,1.39C56.63,37.99,48.63,34,34.79,35.93
						l1.79,0.81c-4.97-0.15-15.75,0.48-14.92-0.46c-0.51,0.15-1.63,0.85-3.57,0.42l-0.15-0.63L5.71,37.16
						c-9.47-0.46,1.48-2.51-12.34-2.63c-5.14,0.24-14.63,1.84-12.7,2.26c2.07,0.03,5.3,0.39,5.45,1.03l-4.7,0.33
						c-0.85,1.86-4.46,3.77,7.07,5.07l8.04-1.14l2.59,0.9l-6.76,0.06c3.84,0.85,6.27,0.1,8.99-0.42c0.64,0.48,1.77,0.82,3.37,1
						l7.89-1.78c0.96,0.73-3.54,1.45,1.76,1.85c3.7-0.83-3.54-1.63,2.57-2.18c3.84,0.85,2.72,1.54,7.23,0.81
						c0.63,0.48-0.32,0.79-2.11,1c4.02-0.58,10.63-0.24,12.7-1.23c4.01,1.04,13.56-0.27,13.16,1.49c1.26-0.42,7.07-1.38,10.76-1.46
						c-6.74,2.11,13.81,0.12,12.03,2.39c4.99-1.9,18.02-0.84,26.85-1.9c-0.49,0.15-1.46,0.46-2.24,0.36
						c4.97,0.16,6.42,0.73,9.61,1.09c0.64-1.57,8.38-1.93,12.56-2.89c6.09,1.51-3.7,1.84-1.79,3.29c-0.31-1.27,10.59-1.27,8.52-2.33
						c4.66,0.94,4.02,0.45,6.42,1.75c0.82-1.96,4.34-0.33,8.21-1.54c6.75,0.97,1.74,1.84,9.15,1.24
						C151.52,44.19,144.93,44.89,144.93,44.89z M321.16,41.5c0,0.01,0,0.02,0,0.02c-1.52,0.03-2.81,0.05-3.64,0.06
						C318.28,41.57,319.33,41.54,321.16,41.5z M335.98,41.48c-1.8-0.04-4.05-0.05-6.42-0.04c-0.52-0.39,0.04-0.79,1.53-0.77
						C330.27,40.93,333.77,41.15,335.98,41.48z M304.65,33.69c2.34-0.16,3.13,0.06,3.45,0.29c-1.11,0.02-2.4,0.06-4.1,0.13
						c-0.07,0.04-0.21,0.09-0.28,0.14C303.95,34.04,304.2,33.84,304.65,33.69z"/>
					<path class="st0" d="M300.43,35.16c-0.34,0.03-0.53,0.07-0.97,0.08c0.48,0.1,0.93,0.18,1.4,0.25c0.29-0.12,0.58-0.24,0.83-0.35
						C301.27,35.15,300.83,35.15,300.43,35.16z"/>
					<path class="st0" d="M1642.97,36.83l-0.31-0.03c0.26,0.04,0.5,0.09,0.66,0.16C1643.11,36.91,1643.11,36.87,1642.97,36.83z"/>
					<polygon class="st0" points="540.48,43.63 540.46,43.35 539.17,43.6 					"/>
					<path class="st0" d="M1724.54,40.69c0.16,0.1,0.46,0.2,1.07,0.29C1725.57,40.9,1725.11,40.8,1724.54,40.69z"/>
					<path class="st0" d="M1759.78,40.94l4.98,0.4C1762.61,41.11,1761.03,41,1759.78,40.94z"/>
					<path class="st0" d="M1786.87,41.5c0.34-0.2,0.44-0.35,0.53-0.48c-0.02,0-0.04,0-0.05-0.01L1786.87,41.5z"/>
					<path class="st0" d="M1356.13,42.82c-0.36,0.01-0.72,0.02-1.05,0.05C1352.63,43.09,1354.3,43,1356.13,42.82z"/>
					<path class="st0" d="M1484.31,40.19c-1.36,0.2-2.7,0.4-4.12,0.53C1482.47,40.81,1484.25,40.83,1484.31,40.19z"/>
					<path class="st0" d="M1212.99,44.17c0.01-0.01,0-0.01,0.01-0.02c-0.31,0-0.58,0-0.88,0L1212.99,44.17z"/>
					<path class="st0" d="M1474.23,40.7c2.28,0.22,4.19,0.18,5.96,0.02C1478.32,40.65,1476.12,40.53,1474.23,40.7z"/>
					<path class="st0" d="M1904.29,42.01l1.3,0.05c-0.02-0.07,0.06-0.13,0.16-0.18L1904.29,42.01z"/>
					<path class="st0" d="M1905.75,41.87l1.45-0.13C1906.53,41.74,1905.95,41.75,1905.75,41.87z"/>
					<path class="st0" d="M1910.25,41.46l-3.05,0.28C1908.25,41.74,1909.56,41.78,1910.25,41.46z"/>
					<path class="st0" d="M1868.42,41.49l-0.41,0.41C1868.24,41.81,1868.38,41.68,1868.42,41.49z"/>
					<path class="st0" d="M1857.53,41.61c2.6,0.09,6.52,0.87,10.15,0.61l0.34-0.32C1866.31,42.5,1859.99,40.92,1857.53,41.61z"/>
					<path class="st0" d="M1812.04,36.57l9.13,0.33c-1.6-0.43-3.7-1.02,0.46-1.12C1810.11,34.47,1824,36.74,1812.04,36.57z"/>
					<path class="st0" d="M1783.72,35.93c4.91-0.2-0.06-0.63,0.2-0.88C1780.81,35.45,1780.06,35.55,1783.72,35.93z"/>
					<path class="st0" d="M1579.08,35.93l0.49-1.02C1575.79,35.05,1579.54,35.3,1579.08,35.93z"/>
					<polygon class="st0" points="1539.97,41.22 1543.65,41.86 1545.4,40.92 					"/>
					<polygon class="st0" points="1516.86,33.93 1518.51,33.78 1512.2,34.16 					"/>
					<path class="st0" d="M1173.17,34.29l1.14,1.26C1176.87,35.33,1177.41,33.91,1173.17,34.29z"/>
					<path class="st0" d="M1024.8,35.58c-1.62-0.63-5.79-1.04-8.36-0.42C1019.78,35.25,1023.1,35.74,1024.8,35.58z"/>
					<polygon class="st0" points="579.83,33.52 582.82,33.1 577.19,33.45 					"/>
				</g>
			</g>
		</g>
	</g>
</g>
</svg>
