<?xml version="1.0" encoding="utf-8"?>
<!-- Generator: Adobe Illustrator 25.0.1, SVG Export Plug-In . SVG Version: 6.00 Build 0)  -->
<svg version="1.1" id="레이어_1" xmlns="http://www.w3.org/2000/svg" xmlns:xlink="http://www.w3.org/1999/xlink" x="0px"
	 y="0px" viewBox="0 0 325 324" style="enable-background:new 0 0 325 324;" xml:space="preserve">
<style type="text/css">
	.st0{fill:#040404;}
	.st1{fill:#FEFEFE;}
</style>
<g>
	<g>
		<path class="st0" d="M0.5,323.86c0-108.07,0-216.15,0-324.22c106.2,0,212.4,0.04,318.59-0.14c4.94-0.01,5.91,0.97,5.91,5.9
			c-0.18,104.23-0.18,208.46,0,312.69c0.01,4.93-0.97,5.91-5.91,5.9C212.9,323.82,106.7,323.86,0.5,323.86z"/>
		<path class="st1" d="M273.47,140.59c-1.11,30.73-16.61,51.57-43.27,64.72c-13.75,6.79-27.74,13.14-41.83,19.19
			c-5.47,2.35-6.82,4.12-2.71,9.3c3.8,4.79,8.31,9.53,9.32,15.98c1.22,7.76-0.96,14.38-7.95,18.61c-7.73,4.68-15.55,4.12-23.13-0.52
			c-3.35-2.05-5.63-5.12-7.76-8.37c-9.09-13.83-18.04-27.76-27.56-41.29c-3.55-5.05-3.21-6.98,2.61-9.51
			c26.17-11.36,52.16-23.11,78.15-34.86c12.95-5.86,22.18-15.16,24.9-29.57c3.6-19.06-6.62-38.16-25.65-47.83
			c-15.77-8.01-32.14-9.22-48.69-2.45c-18.85,7.71-37.62,15.63-56.39,23.54c-10.02,4.22-13.56,9.95-10.9,17.2
			c2.95,8.03,12.54,12.45,21.57,8.95c13.4-5.2,26.51-11.16,39.76-16.76c5.08-2.15,10.13-4.37,15.3-6.27
			c7.47-2.75,14.31-0.79,20.25,3.93c9.83,7.81,9.04,21.36-2.27,26.66c-19.96,9.35-39.91,19.19-60.8,25.95
			c-23.14,7.49-44.85,1.83-61.8-16.48c-19.73-21.31-16.3-53.82,9.5-67.06c29.48-15.12,59.72-30.4,93.03-35.22
			c45.7-6.61,95.37,22.7,104.88,68.83C272.94,131.7,273.02,136.3,273.47,140.59z"/>
	</g>
</g>
</svg>
