<?xml version="1.0" encoding="utf-8"?>
<!-- Generator: Adobe Illustrator 25.0.1, SVG Export Plug-In . SVG Version: 6.00 Build 0)  -->
<svg version="1.1" id="레이어_1" xmlns="http://www.w3.org/2000/svg" xmlns:xlink="http://www.w3.org/1999/xlink" x="0px"
	 y="0px" viewBox="0 0 991 914" style="enable-background:new 0 0 991 914;" xml:space="preserve">
<style type="text/css">
	.st0{fill:#FFFFFF;}
	.st1{fill:none;stroke:#000000;stroke-width:3;stroke-linecap:round;stroke-linejoin:round;stroke-miterlimit:10;}
	.st2{fill:#FFFFFF;stroke:#000000;stroke-width:3;stroke-linecap:round;stroke-linejoin:round;stroke-miterlimit:10;}
	.st3{fill:none;stroke:#474747;stroke-width:3;stroke-linecap:round;stroke-miterlimit:10;}
	.st4{fill:none;stroke:#FFFFFF;stroke-width:2;stroke-linecap:round;stroke-miterlimit:10;}
	.st5{fill:#FFFFFF;stroke:#000000;stroke-width:3;stroke-miterlimit:10;}
	.st6{fill:none;stroke:#000000;stroke-width:3;stroke-miterlimit:10;}
	.st7{fill:none;stroke:#000000;stroke-width:2;stroke-linecap:round;stroke-linejoin:round;stroke-miterlimit:10;}
	.st8{fill:none;stroke:#000000;stroke-width:2;stroke-linecap:round;stroke-linejoin:round;}
	.st9{fill:none;stroke:#000000;stroke-width:2;stroke-linecap:round;stroke-linejoin:round;stroke-dasharray:11.3463,11.3463;}
	
		.st10{fill:none;stroke:#000000;stroke-width:2;stroke-linecap:round;stroke-linejoin:round;stroke-miterlimit:10;stroke-dasharray:12;}
	.st11{fill:none;stroke:#0C0000;stroke-width:2;stroke-miterlimit:10;}
	.st12{fill:#FFFFFF;stroke:#000000;stroke-width:2;stroke-linecap:round;stroke-linejoin:round;stroke-miterlimit:10;}
	.st13{fill:none;stroke:#000000;stroke-width:2;stroke-miterlimit:10;}
	.st14{fill:none;stroke:#000000;stroke-miterlimit:10;}
	.st15{fill:#FFFFFF;stroke:#000000;stroke-width:2;stroke-miterlimit:10;}
</style>
<path d="M779.5,226.83c0,0-15.5,56.17,29.5,73.17c0,0-105.94,79.55-276.47,6.77"/>
<ellipse transform="matrix(0.9399 -0.3415 0.3415 0.9399 -9.3911 256.0851)" cx="722.74" cy="154.72" rx="62.2" ry="81.41"/>
<g>
	<path class="st0" d="M697.13,311.12c-3.59,0-7.28-0.21-10.97-0.61c-49.64-5.47-99.16-48.23-92.6-107.78
		c2.85-25.88,14.35-49.7,32.38-67.07c17.88-17.22,40.67-26.7,64.19-26.7c3.21,0,6.47,0.18,9.67,0.53
		c52.29,5.76,89.71,56.95,83.41,114.12C777.36,276.77,743.57,311.12,697.13,311.12z"/>
	<path d="M690.13,107.45l0,3h0c3.15,0,6.35,0.18,9.51,0.52c24.88,2.74,47.12,15.91,62.62,37.09c15.56,21.26,22.47,48.03,19.46,75.37
		c-2.84,25.82-12.31,47.57-27.37,62.88c-14.99,15.24-34.78,23.3-57.22,23.3c-3.53,0-7.17-0.2-10.81-0.6
		c-25.65-2.82-50.22-15.28-67.42-34.17c-18.28-20.08-26.75-45.63-23.86-71.96c2.81-25.53,14.15-49.03,31.93-66.15
		c17.6-16.95,40.02-26.28,63.15-26.29L690.13,107.45 M690.13,107.45c-49.19,0-92.06,40.63-98.06,95.11
		C585.67,260.65,632.81,306.14,686,312c3.79,0.42,7.5,0.62,11.13,0.62c47.46,0,81.63-34.9,87.57-88.85
		c6.4-58.08-31.54-109.92-84.74-115.77C696.66,107.63,693.38,107.45,690.13,107.45L690.13,107.45z"/>
</g>
<circle cx="714" cy="214" r="5"/>
<ellipse cx="767.27" cy="213.75" rx="3.2" ry="4.44"/>
<path class="st1" d="M754.51,209.17c0,0-1.51,12.83,5.49,19.83c0,0,9.5,4.5,2.5,11.5l-5,4"/>
<path class="st2" d="M701.28,292.06c-2.76-2.54,29.68,20.02,52.37-9.72"/>
<path class="st2" d="M717.5,254.5c0,0,15.78,19.76,36.39,5.88"/>
<path d="M702.9,197.31c0,0,12.61-11.58,31.75-1.81"/>
<path d="M756.53,196.92l21.53-0.66C778.06,196.26,765.29,186.47,756.53,196.92z"/>
<path d="M635.85,230c0,0,13.48,69.76-51.94,86.77c0,0-28.7-3.72-51.38-10c0,0,32.01-20.86,20.77-50.63c0,0-30.99-129.45,67.7-174.14
	"/>
<g>
	<path class="st0" d="M645,248.8v-61.33c0,0-20.92,1.1-27.46,16.34C617.54,203.81,606,245.49,645,248.8z"/>
	<path d="M646,247.43c-1.15,0.17-2.31,0.26-3.5,0.26c-14.61,0-26.5-13.1-26.5-29.19s11.89-29.19,26.5-29.19
		c1.19,0,2.35,0.1,3.5,0.26v-2.27v-1.06c-1.15-0.15-2.32-0.24-3.5-0.24c-16.27,0-29.5,14.58-29.5,32.5s13.23,32.5,29.5,32.5
		c1.18,0,2.35-0.09,3.5-0.24V247.43z"/>
</g>
<path d="M742.5,128.25c0,33.66-35.12,55.27-74.5,70.19c-56,21.22-105-15.79-105-49.45s50-80,104-81.69
	C708.7,66.01,742.5,94.6,742.5,128.25z"/>
<path class="st3" d="M626.5,217.5c0,0,12-2,16,7c0,0,2,5,1.41,11.26"/>
<path class="st4" d="M712.75,78.2c0,0,29.92,18.15,29.59,45.97"/>
<path class="st5" d="M639.66,295.91c0,0-9.39,22.38-23.66,37.09c0,0,41.89,34.37,72.45,10.18c0,0-6-9.94-0.45-31.18
	C688,312,663,313,639.66,295.91z"/>
<path class="st6" d="M613,331.69c0,0-115,44.31-62,195.31c0,0,35.52-53.19,84.26-20.1l-15.76-60.4c0,0,6.5-12.72-4-29"/>
<path class="st7" d="M615.95,429.34c0,0-23.45-41.84-61.45-30.84"/>
<path class="st1" d="M688.45,337.03c0,0,44.05,6.47,73.05,54.47l33,42c0,0-37,2-64.76,57.59"/>
<path class="st1" d="M827.5,639.5c-42,12-57.02-2.58-57.02-2.58L637,605.96c-40.5-8.54-64.66-99.81-64.66-99.81"/>
<path class="st1" d="M545.5,402.5c0,0-41,103-30,214l-9,21c0,0,1,7,8,11c0,0-2,55,29,83c0,0,41-93,136-114"/>
<path class="st1" d="M727.38,402.5c0,0,10.42,68.3,0.27,96.15c0,0-6.46,16.83-20.31,33.84c0,0-19.05,22.74-11.45,29.38
	c0,0,5.4,6.07,0,6.85"/>
<path class="st1" d="M735.7,396.24c0,0,8.04,25.3-3.2,36.26"/>
<path class="st1" d="M629.5,503.35l15.5,47.46l133.06,54.34l45.44-21.65c0,0,19,7,24,17"/>
<path class="st7" d="M621.56,337.03c0,0-31.77,22.94-44.92,59.21"/>
<path class="st7" d="M695.9,343.75c0,0,44.1,21.72,46.6,52.48"/>
<path class="st1" d="M815.5,600.5l9-4l8.5,4C833,600.5,822.5,598.5,815.5,600.5z"/>
<path class="st6" d="M697.5,572.5c0,0,80-159,141-85c0,0,19.5,33.78,7,92"/>
<path class="st1" d="M683.5,617.5c0,0-7.74,20.63-9,23"/>
<path class="st1" d="M648.5,640.5c0,0,185,69,185,139c0,0,16.12,83.45-189.94,51.23c0,0-51.37-16.74-71.22-13.48
	c0,0-19.84,12.26-21.84-2.74c0,0-6.92-3.68-13.46,3.66c0,0-18.54-42.66,22.62-80.6"/>
<path class="st1" d="M548.5,722.5c0,0,8.97,37.95,211,61"/>
<path class="st1" d="M514.78,783.65c10.28-5.85,17.75-3,17.75-3"/>
<path class="st1" d="M555.98,734.31c-24.52,2.81-29.48-10.38-29.48-10.38s-10-21.44-41-25.44c0,0-23.76,3.66-29.35,34.55
	c-0.53,2.91-2.21,5.49-4.68,7.13l-4.98,3.32c0,0-51,29-48,77c0,0,4.98,23,41.99,0c0,0,27.01-29,67.01-32"/>
<path class="st1" d="M838.5,602.5c0,0,6,7,7,12c0,0,0,6.2-3.5,5.1c0,0,4.5,7.9-2.5,10.9c0,0,7,9,0,15c0,0-4-5-9-5"/>
<path class="st1" d="M814.5,612.5c0,0,17-7.06,23.5,2.97"/>
<path class="st1" d="M815.5,627.39c0,0,11-5.89,20,2.11"/>
<path d="M850.12,605.15L909,680l-8,8l-54-69l-6.42-13.85C840.58,605.15,847.24,609.31,850.12,605.15z"/>
<path d="M834.24,586.81C835.01,587.15,817,563,817,563s-12-3-9,9l11,14C819,586,821,581,834.24,586.81z"/>
<path class="st2" d="M744.5,467.5l16,24l39,27c0,0,26.63-49.27-8-83"/>
<path class="st2" d="M770.48,484.77c0,0-25.59,4.24-34.78,69.48l-8.31,30.2l37.12,15.04c0,0,43-59,44.5-114.73"/>
<path class="st1" d="M716.52,625.3"/>
<path class="st1" d="M830.5,640.5c0,0-6,37-16,74c0,0,7,13.64-1,19"/>
<path class="st1" d="M789.89,646.36c0,0-8.01,37.58-21.7,48.86"/>
<path class="st1" d="M833.5,516.5c0,0-10,61.48-18,58.24"/>
<path class="st1" d="M821.5,746.5c0,0,58,18,50.02,46.85c0,0-2.02,5.15-39.43,1.3"/>
<polygon points="901,688 915.78,695.22 909,680 "/>
<path class="st7" d="M621.56,605.15c-0.03,0.03-44.79,5.04-59.56,27.85"/>
<path class="st7" d="M519,654c0,0,5-23.89,14.85-35.41c0.44-0.52-0.17-0.52-0.76-0.85C530,616,524,616,522,621"/>
<path class="st7" d="M540,485.61c0,0-6,76.57,0,124.48c0,0-7.34,7.52-2.67,15.21c0,0-1.38,57.07,18.65,83.88"/>
<path class="st1" d="M749.5,785.5c0,0,12,9,22,5"/>
<path class="st7" d="M599.42,753c0,0-36.92,37.5-28.92,57.5"/>
<path class="st7" d="M569,757c0,0-6,16-1.68,31.51"/>
<path class="st7" d="M552.03,810.5c0,0,1.97-33.5,10.97-44.5"/>
<g>
	<g>
		<path class="st8" d="M572.34,688c0,0,1.29,1.51,4.22,4.26"/>
		<path class="st9" d="M585.16,699.65c20.07,16.08,66.39,46.51,157.38,76.7"/>
		<path class="st8" d="M747.94,778.12c1.89,0.61,3.79,1.23,5.71,1.84"/>
	</g>
</g>
<path class="st7" d="M594.19,663.29c0,0,15.47,24.23,12.14,51.47"/>
<path class="st7" d="M600.5,659.73c0,0,14.5,21.27,11.5,56.27"/>
<path class="st10" d="M830.63,527c0,0-20.98,44-42.8,73.5"/>
<path class="st10" d="M772,644c0,0-10,26.64-22.5,39.82"/>
<path class="st7" d="M551,527c0,0-2.89,18.01,30.56,7"/>
<path class="st7" d="M634.33,503.35c0,0,9.19,13.55,0.93,13.6"/>
<path class="st7" d="M767,406c0,0-24.02,8.54-31.51,37.27"/>
<path class="st7" d="M614.79,437.27c0,0-17.68-11.98-32.23,1.38"/>
<path class="st1" d="M709.09,622.68c0,0-18.59,6.82-19.59,30.82"/>
<path class="st6" d="M697.5,659.73c0,0,3.51-16.04,9.82-20.68c0.47-0.35,1.09,0.21,0.82,0.72c-2.45,4.65-5.64,24.73,9.36,24.73
	c0.81,0,3.02,1.78,3.22,2.57c0.46,1.82,1.85,3.52,6.1,3.05c1.25-0.14,2.92-1.62,3.68-0.62c0.78,1.03,4.15,3.65,8,2c0,0,13-7,9-16
	c0,0,14-9,11-20"/>
<path class="st7" d="M730.5,665.5c0,0-4.5-3.5,3-18"/>
<path class="st7" d="M718,661c0,0-3-10,3-18"/>
<path class="st7" d="M710,656"/>
<path class="st7" d="M744.64,656.5c0,0-3.64,2.5-3.64,5.5"/>
<path class="st11" d="M500.89,702.37c0,0-22.87,10.3-30.02,31.03c-1.37,3.97-3.74,7.5-7.04,10.11
	c-15.74,12.43-59.66,50.41-57.7,85.85"/>
<path class="st1" d="M523.66,727.14c0,0-24.59,7.87-28.87,45.62c0,0,17.68,0.74,17.2,12.74"/>
<path class="st1" d="M826.84,805.58c0,0,32.24,7.37,47.95-1.86v-10.55l-2.86-1.65"/>
<path class="st1" d="M494.78,772.76c0,0,0.47,9.24-20.41,15.49c0,0-20.88,7.25-31.88,17.25c0,0-15.79,12.91-15.9-25.54"/>
<path class="st7" d="M514.78,714.76c0,0-8.51,1.02-13.9,12.38c0,0-8.63-9.01-21.01,12.17c0,0-9.81,20.62-33.09,18.9"/>
<path class="st7" d="M438.89,766c0,0,27.11,11,45.11-20c0,0,6-12,7,3c0,0,1.79,9.64,7.4,7.32"/>
<path class="st7" d="M506.01,741.46c0,0-11.21,5.62-7.61-4.92c0,0,10.04-10.26,10.82-9.4c0.78,0.86,8.29,1.82,3.53,6.84"/>
<path class="st12" d="M494.78,790.36c0,0-8.78-6.36-14-17.61c0,0-4.44-2.48-3.61,2.38c0,0,1.83,7.86,15.83,18.86
	C493,794,499,795,494.78,790.36z"/>
<path class="st12" d="M468.64,781.8c0,0,0.05-5.89,4.2-1.85c0,0,1.15,17.04,3.15,21.04c0,0-1.36,3.78-3.68,0.89
	C472.32,801.89,470.29,797.61,468.64,781.8z"/>
<path class="st12" d="M461.54,788.25c0,0-2.89-1.91-3.21,1.92c0,0,3.68,9.83,21.68,8.83c0,0,3-2.53,0-2.76
	C480,796.24,465.07,795.5,461.54,788.25z"/>
<path class="st12" d="M448,795c0,0-0.33-2.82,2.83-1.91c0,0,1.17,14.91,4.17,17.91c0,0,0.99,5.02-3.5,1.51
	C451.5,812.51,447,806,448,795z"/>
<path class="st12" d="M438.89,803.33c0,0-0.89-4.33,3.11-2.33c0,0,10.39,7.17,18.69,6.58c0,0,1.96,3.42-2.37,2.92
	C458.32,810.5,447.79,809.67,438.89,803.33z"/>
<path class="st12" d="M544.08,735.02c0,0-15.08,21.86-10.08,41.42"/>
<path d="M495,772c-2.45-0.27,1.29-9.78,1.29-9.78c7.29-30.78,31.36-36.28,31.36-36.28C533.3,735.88,553,735,553,735
	c-20,14-18.63,44.96-18.63,44.96l-22.49,3.54C511.88,783.5,513,774,495,772z"/>
<path class="st13" d="M823,749c0,0,14,12,23,9"/>
<path class="st13" d="M828.18,758.32c0,0,9.82,3.47,4.82,9.58"/>
<ellipse class="st13" cx="299.5" cy="574" rx="91.5" ry="5"/>
<path class="st13" d="M208,574l24.01,179.74c0,0,58.79,32.72,136.89,1.99L391,574"/>
<path class="st13" d="M349.12,630h-11.24c-3.25,0-5.88-2.63-5.88-5.88l-3-22.24c0-3.25,2.63-5.88,5.88-5.88h17.24
	c3.25,0,5.88,2.63,5.88,5.88l-3,22.24C355,627.37,352.37,630,349.12,630z"/>
<path class="st14" d="M332,602c0,0,1-3,5-3h15.16"/>
<path class="st14" d="M345,626.5L345,626.5c-2.48,0-4.5-2.03-4.5-4.5v-9c0-2.47,2.02-4.5,4.5-4.5l0,0c2.48,0,4.5,2.03,4.5,4.5v9
	C349.5,624.47,347.48,626.5,345,626.5z"/>
<path class="st15" d="M383,639c37,57,38.5,72.5,38.5,72.5c-17,6-72-98.5-72-98.5v11.41l-2.07,1.37c0,0,45.57,91.22,67.57,94.22
	c0,0,6,1,8-8"/>
<path class="st14" d="M215.48,630c0,0,79.26,12.69,136.89,5.34"/>
<path class="st14" d="M360.94,633.82c0,0,10.94-0.32,23.25-3.82"/>
</svg>
