<?xml version="1.0" encoding="utf-8"?>
<!-- Generator: Adobe Illustrator 25.0.1, SVG Export Plug-In . SVG Version: 6.00 Build 0)  -->
<svg version="1.1" id="레이어_1" xmlns="http://www.w3.org/2000/svg" xmlns:xlink="http://www.w3.org/1999/xlink" x="0px"
	 y="0px" viewBox="0 0 894 937" style="enable-background:new 0 0 894 937;" xml:space="preserve">
<style type="text/css">
	.st0{fill:#202020;}
</style>
<g>
	<g>
		<g>
			<g>
				<g>
					<path class="st0" d="M44.83,909.5c-1.74,0.26-0.75,0.84,4.04,0.73l3.4-0.99L44.83,909.5z"/>
					<path class="st0" d="M77.08,911.34c5.64-0.48,12.14-1.33,8.49-2.24c-5.58,0.95-6.93,0.56-12.94,1.69
						c-4.8,0.12-8.37-0.32-7.56-0.68c-1.7,0.25-7.45-0.22-10.03,0.4c6.24,0.77,14.15,0.8,22.4,0.16
						C79.21,910.9,77.49,911.16,77.08,911.34z"/>
					<path class="st0" d="M545.72,912.89l-3.02-0.12C543.52,912.84,544.55,912.87,545.72,912.89z"/>
					<path class="st0" d="M836.07,913.44c-2.21,0.02-3.13,0.12-3.25,0.21C834.88,913.58,836.57,913.52,836.07,913.44z"/>
					<path class="st0" d="M859.23,882.05c-0.02,1.06-0.05,1.96-0.07,2.92C859.26,883.86,859.31,882.74,859.23,882.05z"/>
					<path class="st0" d="M545.72,912.89l7.76,0.31C554.01,912.88,549.5,912.96,545.72,912.89z"/>
					<path class="st0" d="M141.71,908.95c-1.62,0.05-2.98,0.14-4.21,0.26c1.33-0.04,2.62-0.07,3.96-0.1
						C141.52,909.05,141.58,909,141.71,908.95z"/>
					<path class="st0" d="M417.72,913.7l-2.36,0c-0.69,0.11-1.34,0.25-1.96,0.4L417.72,913.7z"/>
					<path class="st0" d="M319.48,913.85c2.22,0.04,2.99-0.81,3.85-1.17c-1.25,0.35-2.9,0.51-4.85,0.58
						C318.45,913.41,318.74,913.6,319.48,913.85z"/>
					<path class="st0" d="M163.72,912.36l-2.76,0.12C161.68,912.45,162.89,912.4,163.72,912.36z"/>
					<path class="st0" d="M488.03,913.88c0.17,0.13,0.52,0.24,0.9,0.3C488.92,914.07,488.57,913.97,488.03,913.88z"/>
					<path class="st0" d="M48.79,716.63c-0.06-0.08-0.1,0.03-0.15,0.01C48.73,717.21,48.79,717.39,48.79,716.63z"/>
					<path class="st0" d="M44.62,830.5l-0.05-1.58c-0.16-0.17-0.32-0.34-0.47-0.34L44.62,830.5z"/>
					<path class="st0" d="M860.31,791.33c-0.01,0.18-0.01,0.24-0.02,0.4C860.39,794.12,860.38,792.77,860.31,791.33z"/>
					<path class="st0" d="M784.56,26.59c9.44,0.75-15.36,0.97-1.15,1.81C782.09,28.07,796.32,27.08,784.56,26.59z"/>
					<path class="st0" d="M144.25,909.06c1.33,0,2.67-0.01,4.03-0.01C146.44,909.02,145.21,909.03,144.25,909.06z"/>
					<path class="st0" d="M783.41,28.4L783.41,28.4l1.47,0.09C784.27,28.45,783.93,28.43,783.41,28.4z"/>
					<path class="st0" d="M859.81,582.28c-0.15,0.43-0.26,1.26-0.37,2.13C859.52,584.34,859.63,583.86,859.81,582.28z"/>
					<path class="st0" d="M858.61,738.02l0.11-3.85C858.64,735.69,858.62,736.93,858.61,738.02z"/>
					<path class="st0" d="M858.62,501.42c0.06-2.1,0.18-2.81,0.07-5.67c-0.04,0.27-0.07,0.53-0.1,0.87
						C858.7,497.66,858.75,499.04,858.62,501.42z"/>
					<path class="st0" d="M858.61,417.26c-0.06,0.45-0.11,1.04-0.17,1.55c0.01,0.83,0.03,1.81,0.05,2.67L858.61,417.26z"/>
					<path class="st0" d="M48.39,460.86c-0.24,1.84-0.5,2.99-0.76,3.89C48.23,463.44,48.44,475.81,48.39,460.86z"/>
					<path class="st0" d="M141.75,909.42c0.49-0.21,1.21-0.32,2.5-0.36c-0.97,0.02-1.89,0.03-2.8,0.05
						C141.21,909.23,141.15,909.35,141.75,909.42z"/>
					<path class="st0" d="M851.96,498l0.12-13.37C852.01,488.37,851.96,493.23,851.96,498z"/>
					<path class="st0" d="M217.85,33.51l-3.07,0.1C215.96,33.63,217.05,33.61,217.85,33.51z"/>
					<path class="st0" d="M851.96,444.95c0.3-2.39,0.47-4.92,0.58-7.53c-0.07-0.55-0.12-1.19-0.22-1.55L851.96,444.95z"/>
					<path class="st0" d="M47.62,464.77c0-0.03,0.01-0.03,0.01-0.03S47.62,464.74,47.62,464.77z"/>
					<path class="st0" d="M49.62,552.85c0.02-12.74-1.08-5.98-1.72-8.69c-0.32-15.21,0.82-7.04,1.38-12.21
						c-0.29-9.5-1.31-16.78-1.27-23.86c0.18-0.53,0.25-1.91,0.48-0.29c-0.88-10.04-0.04-29.8-1.15-41.5
						c0.1-0.87,0.19-1.31,0.28-1.53c-0.56,1.89-1.12,2.19-1.52,1.8c-0.02-5.71-0.7-10.6,0.02-12.75c-0.02,3.5,0.27,3.79,0.5,5.43
						l-0.31-5.98c1.04-5.39,0.36,8.17,1.13,8.17c-0.34-11.67-1.2-25.27-0.91-34.22c1.02-1.87,0.34,20.91,1.25,8.98l-0.39,13.84
						c1.61-10.57-0.11,8.41,1.61-1.31c0.3-18.21-0.52-20.37-0.22-38.53c-0.57-4.09-0.84,1.35-1.4-2.74
						c-1.02-25.82,2.56-20.32,1.2-39.3c-0.68-4.91-1.97-6.82-1.29-20.33l1.15,4.61c0.11-17.63-1.66-10.06-0.88-28.53
						c0.45,3.28,0.38,13.86,0.52,11.19c0.91-11.96-0.65-8.46-0.65-17.66l1.02-1.91c-0.16-18.77-0.9-39.44-1.08-60.23
						c0.3,1.15,0.62,4.71,0.93-0.15c-0.51-26.22,0.12-55.97,0.73-81.26l-0.88-9.66c0.01-2.25,0.4-4.17,0.57-1.74
						c0.33-9.86-0.56-0.51-0.9-5.25c-0.06-5.61,0.51-7.41,0.77-3.85c-0.75-17.39-1.61-49.55-0.67-67.87l0.26,3.57
						c0.36-14.27-1.8-16.1-0.98-29.34l0.16,2.54c0.04-5.27,0.07-10.64,0.11-16.03c0-4.52,0-9.05,0-13.55
						c4.32,0,8.62-0.01,12.82-0.01c5.07,0.02,10.03,0.05,14.83,0.07c9.6,0.09,18.55,0.3,26.34,0.74c4.49-1.27,30.65,0.57,32.64-1.2
						c17.68,0.88,12.62,1.19,37.53,1.78c6.65,0.08,9.91-1.1,18.14-1.29l0.2,0.92l11.16-0.97l5.94,1.11l7.71-0.24
						c-3.07-0.05-6.53-0.42-6.06-0.68c6.02-0.21,13.37-0.05,19.24,0.22c5.87,0.27,10.28,0.66,10.43,0.89l28.5-0.78
						c-0.63,0.37-5.41,0.5-9.18,0.74c15.22-0.94,2.76,0.97,16.71,0.11c-1.87-0.21,1.01-0.55,1.33-0.74
						c6.95,0.56,22.77,0.56,34.48,0.33l-2.25,0.64c21.14,0.16,44.57-0.31,68.3-0.29c-8.51-0.3-6.56-1.4,0.4-1.51l2.78,0.98
						c4.49-0.6-7.27-0.37,1.96-1.11c8.86,0.11,5.96,1.11,0.87,1.43l10.78-0.34c0.63,0.29-1.89,0.45-2.55,0.82
						c4.42-0.61,18.6,0.98,24.98-0.07l0.61,0.29c23.72,0.01,34.48-0.33,53.8-0.38c0.38-0.84,7.93-0.66,13.69-1.34
						c14.2,0.27,29.96,0.93,47.07,0.86c12.02-0.42,3.51-0.71,8.92-1.22c0.88,0.77,17.97,0.7,9.11,1.25
						c20.53-0.13,26.23-0.15,52.2-0.78c-2.82-0.31-5.99-0.45-4.35-0.71c4.71-0.13,10.72,0.32,10.05,0.69l-1.24,0.08
						c29.15-1.15,67.28,2.24,90.49,0.64l-1.3,0.08l24.07-0.83c11.07,0.13-6.64,0.58,1.55,1.05c25.97-1.28,41.03,0.19,62.41-0.67
						c7.44,1.02,20.06,1.09,33.72,0.99c6.83-0.06,13.91-0.12,20.74-0.18c3.41,0,6.76,0,9.98,0c1.5,0.02,2.98,0.04,4.41,0.05
						c0.26,0.02,0.48,0.06,0.65,0.1c-0.04,0.24-0.08,0.44-0.14,0.6l-0.04,0.11c-0.02,0.29-0.03,0.58-0.05,0.86
						c-0.03,0.59-0.07,1.17-0.1,1.73l0.53-1.29c0.52,5.77-0.31,6.98-0.43,11.24c0.41-0.6,0.48-6.27,0.77-2.68
						c0.64,48.92-0.78,100.96-1.26,151.11c-0.14,18.34,2.76,10.41,1.49,33.53l-0.99-6.56c1.19,37.02-0.04,75.69,0.97,111.92
						c-0.23-2.16-0.53-2.22-0.52-5.76c-0.72,7.65-0.04,28.3,0.55,28.43c-0.07,5.64-0.53,1.31-0.83,4.78
						c-0.42,7.68,0.92,19.27,0.2,23.35c-0.12,0.69-0.23-2.16-0.29-3.56c0.35,5-0.09,23.31,0.74,18.52
						c-0.4,13.6,0.37,26.02-0.12,36.86c0.93,7.07-0.45,23.28,0.87,25.53c-1.36-0.97-1.09,23.84-0.46,32.44
						c-0.41-2.88-0.43,7.48-0.99,4.1c0.02,9.81,0.27,18.81,0.97,17.09c-1.62,18.08,1.31,36.34-0.77,46.52
						c0.73,29.15,1.22,56.13,1.54,82.35c-1.35-0.95-0.13-28.99-1.55-27.86c0.56,24.88,1.72,39.23,1.39,63.89
						c-0.19,6.39-0.59-3.63-0.82-5.78c0.56,24.85-0.12,48.05,0.61,70.17c-0.13-0.06-0.26-2.45-0.37-4.7
						c0.04,4.36-0.2,10.14,0.42,9.64l-0.17-4.25c0.89-6.96,1.86,17.31,2.34,18.09c-1.76-7.4-0.44,21.84-2.67,10.09
						c0.12,2.87,0.41,6.47,0.82,5.81c-0.12,4.26-0.36,5.61-0.83,1.29c0.33,15.61,0.99,10.06,0.97,24.21
						c-0.3-0.05-0.41-2.9-0.76-4.37c0.58,7.16,1.16,14.36,0.91,26.31c-0.18-0.72-0.41,0.67-0.41-2.9
						c0.09,20.53,1.55,34.99,0.99,57.51c-1.29-6.64-0.43,7.66-1.55,8.85l0.33,12.11l0.54-4.86c0,2.23,0.03,4.41,0.08,6.54
						c0.01,0.5,0.03,1.01,0.04,1.51l0.05,0.88c0.03,0.62,0.07,1.23,0.1,1.84c-0.81,0.05-1.62,0.09-2.42,0.13
						c-0.3,0.02-1.16,0.04-1.8,0.06c-0.68,0.01-1.36,0.03-2.04,0.04c-2.71,0.04-5.37,0.04-8.01-0.07l7.88-0.46l-19.88,0.21
						l11.25,0.42c-10.73,0.58,1.15,1.42-12.97,1.11c2.87-0.11-10.61-0.01-16.14-0.67l0.04,0c-5.25,0.36-10.65,0.73-18.49,0.45
						c-2.04-0.36,1.64-1.24,0.31-1.48c-5.18,0.94-24.84,0.26-31.4,1.26c2.19-0.23,2.3-0.82,1.58-0.94l-4.35,0.76
						c-4.91-0.24-5.63-0.36-4.83-0.83c-14.78-0.14,4.69,1.42-12.85,0.81c1.38-0.06,0.72-0.18,3.59-0.29
						c-17.62-0.32-34.04,0.48-50.23,0.11c-4.78-1.13,14.14-0.28,8.68-1.23c-23.34,0.2-48.33,1.35-70.92,1.09l4.21,0.12
						c-3.13,1.59-16.82-0.79-28.24-0.04c2.8-0.12,3.67-0.88,2.91-0.71c-15.47-0.26-31.63,0.39-55.07,0.89l2.9-0.41
						c-9.12-0.36-24.01-0.21-33.86-0.4c-2.92,0.41-8.55,0.34-5.13,0.94c-30.36-2.33-57.92,1.25-84.86-0.69
						c3.22,0,7.68-0.36,5.11-0.36l-22.95,0.38c1.82,0.69,3.01,0.42,7.83,0.96c-2.9,0.41-9.38,0.73-15.07,0.73
						c10.32-0.46-0.09-1.11-4.55-1.5c0.75,0.21-0.78,0.45-0.4,0.66c-11.99-1.23-2.01,1.39-18.37,0.56l0.87-0.36
						c-6.12,0.19-11.77,0.67-18.37,0.56c-2.74-0.8,6.52-0.37,6.94-1.03c-9.28,0.05-18.31,1.52-26.7,0.72
						c3.94-0.22,9.61-0.23,13.55-0.45c-9.14-0.94-10.2-0.7-17-0.85l0.67,0.02l-15.71-0.43l4,0.26c-11.61,2.09-23.64,0.38-39.28,1.75
						c15.2-1.3,2.51-0.75,3.68-1.66c-3.99-0.25-10.06-0.53-8.34-0.79c-7.39,0.73-12.34-0.58-22.77,0.49
						c-0.47-0.29-7.91-0.03-6.24-0.76c-9.61,0.23,2.27,0.51,1.46,0.88c-14.81,1-34.82-1.21-56.13,0.16
						c-18.37,0.56-21.77,1.55-38.82,2.04c-5.75-0.47,4.71-1.07,4.71-1.07c-9.28-0.43-16.27-0.35-25.02-0.02
						c1.77-0.26-0.05-0.47-2.72-0.8c-7.02,0.08-4.69,1.07-13.95,0.63c1.59-0.33,3.63-0.85,7.01-1.18
						c-8.27,0.27-16.44,0.82-25.01,1.08c-2.27-0.51,5.17-0.77,8.19-1.11c-9.63,0.23-24.94,0.46-27.91,1.27l6.18,0.29
						c-3.51,0.04-1.8-0.69,0.78-0.84c8.25-0.63,11.9,0.28,12.36,0.57l-6.1,0.19c6.27,1.72,24.5-0.28,36.78-0.18l-5.12,1.25
						l12.59-1.04c2.68,0.32,4.51,1.02-1.55,1.21c8.8,0.62,7.79-0.44,15.36,0.24c0.83,0.11,0.46,0.17-0.32,0.22l8.6-0.37
						c-1.69,0.26,1.43,0.88-3.85,0.7c15.44,0.72,24.89-0.94,30.71,0.01l-1.29,0.08c21.42-0.42,2.07-0.92,18.14-1.99l10.81,2.26
						l2.11-0.92c2.21,0.03,6.58,0.1,5.77,0.47c8.22-0.63-1.4-0.4,3.37-0.99c10.64,0.83,29.33-0.39,31.72,1.07
						c3.82-0.7-10.17-0.54,1.18-1.02c3.24,1.57,13.13-0.27,22.84,0.45c-2.98,0.81-12.19,0.38-2.47,1.1
						c5.86-1.37,18.92,0.3,27.12,0.04c0.38-1.09,17.82-0.45,31.57-0.82c-0.87,0.37,25.88,0.6,38.67,0.99l-0.38,0.18
						c2.48-1.1,15.68-0.89,25.28-1.12c-0.38,0.66-2.11,0.92-7.31,1.22l9.03-0.01c2.13-0.35,4.95-0.54,10.81-0.67l-2.27,0.82
						c12.02-0.05,24.21-0.97,39.68-0.42c0.87-0.77-12.3-2.14,4.05-2.65c0.61,0.42,1.21,1.13-3.07,1.3c1.4-0.05,5-0.35,7.83-0.17
						l-6.53,0.7c7.05,0.31,3.68-0.58,9.32-0.52c-0.11,0.59,4.17,0.42,3.36,0.89c-1.44,0.06-4.91-0.25-7.07-0.01
						c6.35,0.11,14.03,0.46,16.57,0.91c-0.55-0.34,0-0.8,4.65-0.87c12.02-0.04,4.12,0.71,11.13,1.02
						c2.91-0.41,10.58,0.02,10.78-0.87c3.52,0,4.17,0.42,5.53,0.66c6.22-0.39,29.06-0.11,22.05-1.05l-1.6-0.06
						c0.3-0.01,0.65-0.02,1.02-0.04c-0.05,0,0,0-0.05,0h0.05c20.39-0.88,42.37,0.5,62.6,0.12l-0.03,0.3
						c12.08-0.34,26.89-0.2,35.51-0.84c3.57,0,8.43,0.54,6.9,0.89c9.23-0.22,10.27-0.56,23.61-0.07c-9.28,0.52,3.2,0.46-9.51,0.38
						c12,0.26,14.72,0.73,27.6-0.08c-4.39,0.76,9.03,0.96,14.74,0.73l-8.41-0.54c6.41-0.11,12.02-0.04,17.72,0.02l-3.08,1
						c24.55,1.21,44.28-2.07,62.97-0.03c6.49-0.7-13.34-0.49-7.53-1.31c11.29,0.13,23.06,1.57,26.6,1.57
						c15.47,0.55,14.44-1.46,30.62-1.08c-2.07-0.36-4.03-1.31,8.07-1.64c11.3,0.13,13.89,1.49,6.76,1.78
						c-2.71,0.03-4.02-0.08-3.9-0.2c-3.65,0.13-8.44,0.28-3.97,0.67l1.47-0.36c5.61,0.36,21.16,0.33,17.5,0.91
						c3.82-0.17,6.45-0.32,4.67-0.44c-0.55-0.03-1.64-0.09-3.06-0.18c-1.21-0.04-2.71-0.09-4.29-0.15c2.05,0.06,3.98,0.11,5.81,0.16
						c2.82,0.03,5.5,0.05,8.08,0.07c0-5.28,0-10.14-0.01-15.32c-0.01-4.22,0.01-8.7,0.13-14.04c-0.2,2.37-0.61,4.56-0.61,2.2
						c0.44-21.89-0.68-9.64-0.83-24.47c0.54-8.43,1.3,3.02,0.84-11.91c0.37-9.12,0.94-1.93,1.23,1.69
						c-0.69-13.6,0.45-25.41,0.58-33.18l0.29,7.16c-0.17-4.28-0.17-7.79-0.16-11.37l-0.71,4.09c0.12-4.21,0.13-7.77,0.42-7.69
						c-0.47-4.33-1.18,3.32-1.82-5.28c0.36-5.61-0.39-17.08,0.56-19.01c-0.32,17.64,0.95-1.95,1.1,12.98
						c-0.11-2.88-0.11-6.39,0.02-10.61c0.11-0.63,0.2,0.6,0.25,1.75c0.84-16.88-1.07-7.76-1.05-25.25c0.53,2.22,1.01-4.05,0.9-6.91
						c-0.01,7.05-0.89,3.37-1.3-3.09c0.41-11.21-0.31-12.19-0.26-18.06l-0.2,6.7c-0.53-2.27-0.46-7.88-0.63-15.7
						c0.41-0.67,0.28,7.1,0.47,4.31c-0.94-8.68,0.97-19.61,0.34-31.72c0.36-5.61,1-0.54,1.24-5.47
						c-0.69-13.57,0.73-14.69,0.16-28.95c-0.72,4.11-0.54,4.83-1.24-5.21l0.5,23.44l-1.04-15.04c-0.01,7.07,0.45,14.93,0.33,19.17
						c-0.58-7.17-0.41-6.43-1-3.04c1.07-9.68-0.63-19.19,0.1-30.38l1.77,0.34c0.79-16.82-0.91-29.89-0.46-51.73l-0.31,7.02
						c-0.7-2.93-0.1-13.49-0.38-20.56c0.59,0.66,0.81-3.76,1.18-6.78c-0.44,0.37,0.04-15.99-1.14-17.97l0.78-9.75
						c0.32-17.64-1.69-20.13-1.49-37.08c0.64,5.11,1.06-2.6,1.52,8.76c0.01-5.66,0.11-10.75-0.3-10.84c0.37-3.31-0.8-15.7-0.24-20.9
						c-0.26-2.39-0.88-3.17-0.83-9.52c0.12-0.69,0.29,0.03,0.29,0.03c-0.29-0.03-0.4-9.95-1.05-4.4
						c1.85-17.44-0.13-48.74,1.45-63.92c-0.2-12.35-0.39-27.24-0.43-38.45c0.18,0.72,0.3,0.04,0.23,2.16
						c0.55-15.47-1.7-9.51-1.09-27.12c0.96-8.99,0.52,9.35,0.88,3.74c1.95-2.44-0.27-21.25,0.87-33.09l0.11,2.87
						c0.66-9.05-0.74-22.09-0.6-36.89c0,0,0.17,0.72,0.29,0.09c-0.99-10.12-1.32-29.27-1.6-43.51c0.76,4.43,0.4,6.47,1.18,3.76
						c-0.11-6.38-1.24,1.87-1.46-10.87c0.42-4.14,0.78-13.33,1.61-14.55l0.04,12.01c1.07-6.15-0.04-15.55,0.15-21.88l0.47,0.81
						c-0.15-18.41-1.33-18.67-1.25-38.45l-0.35,2.05c-1.17-10.81,0.66-9.07-0.21-19.85l1.18-3.26c-0.29-7.13-1.14-24.99-1.37-37.79
						c0.88,7.25,1.33,22.22,1.85,31.49c0.01-7.07-0.09-24.04-0.67-27.72c0.11,2.85,0.4,6.44,0.22,9.26
						c-0.93-8.68-1.39-20.09-1.37-34.19c2.3,2.5,0.58-36.73,2.36-46.96c-0.13-3.73-0.21-7.44-0.25-11.17
						c-0.01-1.86-0.03-3.73-0.04-5.6c0-2.87,0-5.74,0-8.63c-3.2-0.01-6.41-0.03-9.63-0.04c-2.22-0.03-4.45-0.05-6.7-0.08
						c-4.5-0.07-9.05-0.13-13.69-0.2c-9.28-0.14-18.91-0.25-29.09-0.21c10.3,1.79-8.48,0.05-6.7,1.89
						c-6.76,0.12-9.35,0.09-9.95-0.03l-20.5-1.1c-4.86-0.53,6.43-0.4,5.81-0.82c-14.81-0.14-6.21-0.78-16.02-1.26
						c2.01,0.66-5.15,0.94-13.59,0.69l11.89,0.85c-20.7,0.98-17.89-1.54-38.76-0.57l6.6-0.58c-10.71,0.34-39.5-0.01-49.99,1.46
						c-1.89-0.21-4.4-0.71,0.32-0.85c-25.59-0.22-56.96,1.57-76.85,0.66l1.94-0.45c-4.77,0.13-8.31,0.84-14.29,0.39
						c0.31-0.19,1.92-0.45-0.29-0.47c-2.53,0.15-12.68,0.79-19.01,0.52l5.41-0.5c-24.96-0.59-38.31,1.23-59.24,1.54
						c0.05-1.32-19.59-1.75-29.39-1.96l0.34-0.19c-29.06-0.16-49.37,1.09-76.28,1.61c-16.71-1.43-56.59-0.6-83.44-1.4
						c4.1,0.24-0.67,1.03-5.44,1.16c-6.3-0.27-17.42,0.92-16.42-0.29l2.25,0.02c-4.75-1.19-17.7-0.87-27.81-0.9l-1.67,1.58
						c-26.45-2.3-69.3,0.85-83.73-1.22c-6.38,0.4-14.29,0.39-20.61,0.79l0.34-0.85c-17.68-0.22-26.51-0.32-48.37-0.12l4.46-0.61
						c-12.33-0.06-15.57,2.45-26.94,2.5l-3.42-1.27c-7.63,0.01-15.29-0.13-22.95-0.26c-3.83-0.05-7.66-0.11-11.49-0.16l-5.73-0.04
						c-3.17,0-6.33,0-9.49,0c0.02,2.78,0.03,5.55,0.05,8.32c0.03,1.6,0.06,3.2,0.1,4.8c0.08,3.11,0.2,6.21,0.37,9.29
						c-0.19-0.35-0.55-0.98-0.6-4.46c-0.03,10.13-0.86,39.16,0.88,35.49c-1.13,0.25-0.11,22.19,0.39,33.81l-0.84-1.81
						c1.07,9.81,1.36,10.12,1.66,23.81c-0.11,3.25-0.67,2.84-0.46-1.47c-0.44,10.81,0.79,8.43,0.35,21.53l-0.53-4.88
						c-0.06,11.12,0.22,10.24,0.84,16.37c0.34,6.99-0.21,21.1-0.97,22.75c0.46,1.5,1.08,7.59,0.86,14.15
						c-0.29,0.88-0.46-1.5-0.55-2.7c-0.57,18.6,0.97,27.66,0.15,40.45c-0.28,0.27-0.42,1.1-0.5,2.16
						c0.02-14.78,0.07-26.68,0.13-25.56c-0.77,0-0.91,11.94-1.97,2.44c0.58,9.58,1.84,25.97,1.48,37.6
						c-0.07,0.56-0.15,1.11-0.27,1.54l-0.09-1.2c-0.08,2.68-0.01,5.09,0.12,7.35c-0.13,3.71-0.22,6.07-0.23,9.64
						c-0.64,1.38-0.34,13.69-0.38,19.64c0.84-0.49,0.71,7.3,1.4,0c-0.06,0.95-0.1-1.13-0.14-5.08c-0.02-0.89-0.04-1.95-0.09-2.54
						c0.02,0.12,0.05,0.26,0.07,0.41c-0.01-3.91-0.03-9-0.06-14.79c0.43,4.7,0.79,9.62,0.32,16.2c0.54,3.06,1.1,6.42,1.36,8.31
						c-1.18,8.14-1.81,23.85-2.54,26.03c0.47,18.17,0.31,42.81,1.9,54.24c0.2,5.17-0.45,5.94-0.7,7.87
						c-0.16-2.98-0.13-6.53-0.36-8.14c0.41,10.33,0.16,30.61,1.26,33.08c-0.5,13.02-1.02-7.32-0.84,10.57l-0.34-2.42
						c-1.77,35.2,2.83,57.23,0.55,96.25c0.14-2.7,0.2-4.05,0.39-4.61c-1,44.49,0.94,91.69-0.65,135.59
						c-0.32,12.48,0.39,13.83,0.92,21.45l-0.91,2.7l1.05,13.02c0.77,18.46-2.22,31.98-0.78,55.35l0.61-3.02
						c-0.11,8.4,0.36,26.59-0.34,25.19c0.11,0.86,0.64,2.75,0.32,6.03l-0.47,0.26l0.81,20.62c-0.34,15.99-1.88-2.5-1.97,20.83
						c0.18,8.67,1.38,24.7,1.7,21.44c0.02-3.5,0.3-8.94,0.77-9.21l0.25,7.93c1.4,1.44,2.83,7.54,3.8-11.93l-0.85-13.57l0.68-4.37
						l0.04,11.42c0.64-6.48,0.07-10.59-0.31-15.18c0.36-1.09,0.61-2.99,0.75-5.69l-1.33-13.32c0.55-1.61,1.08,5.97,1.39-2.97
						c-0.62-6.24-1.23,5.98-1.63-4.35c0.63-6.49,1.15-4.6,0.61-12.21c0.36-1.07,0.59,0.54,0.75,3.56
						c-0.43-6.78-0.18-17.95-0.92-21.45c0.78-6.76-0.2-22.9,1.12-22.23c-0.32-2.13-1.04-11.94-1.09-18.17
						c1.58,11.38,0.09-23.32,1.79-20.31c-1.42-8.42-0.63-30.42-1.42-45.34c0.11,0.83,0.34,2.47,0.27,3.79
						c0.12-8.4,0.55-10.84,0.82-16.23c-1.18-1.08-1.44-14.15-2.17-21.2c1.13-10.29,1.38,6.25,2.47,3.02
						c-0.95,0.52-0.95-17.88-1.74-14.38c0.7-7.87,0.34-6.78,1.32-10.84c-1.47-1.38-0.25-7.33-1.15-13.86
						c0.72-11.39,1.38-2.93,0.93-15.45C49.1,541.72,49.62,552.85,49.62,552.85z M47.08,255.26c0.01,0,0.02,0,0.02,0
						c0.02,2.56,0.04,4.75,0.05,6.14C47.13,260.12,47.11,258.35,47.08,255.26z M47.07,230.25c-0.01,3.04-0.02,6.84-0.03,10.85
						c-0.29,0.88-0.59-0.07-0.58-2.59C46.65,239.87,46.82,233.98,47.07,230.25z M41.22,283.15c-0.12-3.96,0.05-5.28,0.22-5.83
						c0.03,1.87,0.06,4.05,0.1,6.92c0.03,0.12,0.07,0.35,0.1,0.47C41.49,284.33,41.33,283.9,41.22,283.15z"/>
					<path class="st0" d="M42.33,290.26c0.02,0.57,0.05,0.89,0.06,1.63c0.07-0.81,0.14-1.58,0.19-2.36
						c-0.09-0.48-0.18-0.97-0.26-1.4C42.32,288.85,42.33,289.59,42.33,290.26z"/>
					<path class="st0" d="M542.17,912.75l0.53,0.02c-0.44-0.03-0.84-0.07-1.11-0.12C541.94,912.69,541.94,912.72,542.17,912.75z"/>
					<polygon class="st0" points="189.99,33.93 189.96,33.72 187.77,33.9 					"/>
					<path class="st0" d="M404.43,909.86c-0.26-0.07-0.78-0.15-1.81-0.22C402.7,909.7,403.48,909.78,404.43,909.86z"/>
					<path class="st0" d="M344.93,909.67l-8.41-0.3C340.16,909.54,342.81,909.62,344.93,909.67z"/>
					<path class="st0" d="M299.19,909.25c-0.58,0.15-0.74,0.26-0.9,0.36c0.04,0,0.06,0,0.09,0.01L299.19,909.25z"/>
					<path class="st0" d="M852.96,741.17c0-0.61-0.02-1.22-0.04-1.76C852.76,735.26,852.83,738.08,852.96,741.17z"/>
					<path class="st0" d="M810.08,910.23c2.3-0.15,4.56-0.3,6.96-0.4C813.19,909.77,810.19,909.75,810.08,910.23z"/>
					<path class="st0" d="M851.95,499.47c0.01,0.03,0.01,0,0.01,0.03c0-0.52,0-0.97,0-1.49L851.95,499.47z"/>
					<path class="st0" d="M827.11,909.85c-3.85-0.17-7.07-0.13-10.06-0.01C820.2,909.89,823.92,909.98,827.11,909.85z"/>
					<path class="st0" d="M100.92,908.87l-2.2-0.03c0.04,0.06-0.09,0.1-0.26,0.14L100.92,908.87z"/>
					<path class="st0" d="M98.45,908.97l-2.45,0.1C97.13,909.07,98.1,909.06,98.45,908.97z"/>
					<path class="st0" d="M90.85,909.28l5.15-0.21C94.22,909.07,92.02,909.04,90.85,909.28z"/>
					<path class="st0" d="M161.47,909.26l0.69-0.31C161.79,909.02,161.55,909.12,161.47,909.26z"/>
					<path class="st0" d="M179.88,909.17c-4.39-0.07-11.01-0.65-17.14-0.46l-0.57,0.24C165.05,908.5,175.71,909.69,179.88,909.17z"
						/>
					<path class="st0" d="M256.69,912.95l-15.42-0.24c2.7,0.33,6.24,0.76-0.77,0.84C259.94,914.52,236.49,912.82,256.69,912.95z"/>
					<path class="st0" d="M304.51,913.42c-8.29,0.15,0.1,0.47-0.34,0.66C309.42,913.78,310.69,913.71,304.51,913.42z"/>
					<path class="st0" d="M650.05,913.43l-0.83,0.77C655.61,914.08,649.28,913.9,650.05,913.43z"/>
					<polygon class="st0" points="716.11,909.46 709.89,908.98 706.93,909.69 					"/>
					<polygon class="st0" points="755.13,914.93 752.34,915.04 762.99,914.76 					"/>
					<path class="st0" d="M859.36,432.23l-0.95,1.93C858.58,438.48,859.64,439.38,859.36,432.23z"/>
					<path class="st0" d="M858.39,181.69c0.47-2.73,0.78-9.78,0.31-14.12C858.64,173.21,858.27,178.83,858.39,181.69z"/>
					<polygon class="st0" points="256.44,26.35 261.48,26.03 251.98,26.3 					"/>
				</g>
			</g>
		</g>
	</g>
</g>
</svg>
