<?xml version="1.0" encoding="utf-8"?>
<!-- Generator: Adobe Illustrator 25.0.1, SVG Export Plug-In . SVG Version: 6.00 Build 0)  -->
<svg version="1.1" xmlns="http://www.w3.org/2000/svg" xmlns:xlink="http://www.w3.org/1999/xlink" x="0px" y="0px"
	 viewBox="0 0 164.95 149.07" style="enable-background:new 0 0 164.95 149.07;" xml:space="preserve">
<style type="text/css">
	.st0{fill:#FFFFFF;stroke:#000000;stroke-miterlimit:10;}
</style>
<g id="토로아티">
	<g id="심볼">
		<path class="st0" d="M53.39,122.4L53.39,122.4c-5.42-11.83-28.78-8.86-28.78-8.86s12.41,20.96,20.8,20.86l0-0.01
			c0.78,0.05,1.58,0,2.39-0.19c4.48-1.06,7.24-5.61,6.16-10.16C53.82,123.47,53.63,122.92,53.39,122.4z"/>
		<path class="st0" d="M109.4,122.4L109.4,122.4c-0.24,0.52-0.43,1.07-0.57,1.64c-1.08,4.55,1.68,9.1,6.16,10.16
			c0.8,0.19,1.6,0.24,2.39,0.19l0,0.01c8.39,0.1,20.8-20.86,20.8-20.86S114.82,110.58,109.4,122.4z"/>
		<path class="st0" d="M148.82,83.92c0,0,0-40.32-13.87-63.74c0,0-19.08,12.14-37.72,32.09l-15.18-0.43l-15.18,0.43
			C48.23,32.32,29.15,20.18,29.15,20.18C15.28,43.6,15.28,83.92,15.28,83.92c56.37,17.34,54.63,54.63,54.63,54.63h12.14h12.14
			C94.19,138.55,92.45,101.26,148.82,83.92z"/>
	</g>
</g>
<g id="태그라인_1_">
</g>
<g id="로고_1_">
</g>
</svg>
