<?xml version="1.0" encoding="utf-8"?>
<!-- Generator: Adobe Illustrator 25.0.1, SVG Export Plug-In . SVG Version: 6.00 Build 0)  -->
<svg version="1.1" id="레이어_1" xmlns="http://www.w3.org/2000/svg" xmlns:xlink="http://www.w3.org/1999/xlink" x="0px"
	 y="0px" viewBox="0 0 421 367" style="enable-background:new 0 0 421 367;" xml:space="preserve">
<style type="text/css">
	.st0{fill:#FFFFFF;}
	.st1{fill:#202020;}
</style>
<g>
	<path class="st0" d="M404.81,165.48c0-79.03-84.5-143.1-188.74-143.1S27.33,86.44,27.33,165.48c0,74.6,75.29,135.86,171.4,142.5
		l15.65,51.31l15.36-51.08C327.6,302.89,404.81,241.02,404.81,165.48z"/>
	<g>
		<g>
			<g>
				<g>
					<path class="st1" d="M406.14,165.48c-0.17-0.59-0.55-0.26-0.53,1.38l0.62,1.18L406.14,165.48z"/>
					<path class="st1" d="M404.31,176.43c0.15,1.94,0.46,4.23,1.21,3.06c-0.45-1.99-0.14-2.42-0.7-4.54
						c0.08-1.64,0.48-2.83,0.69-2.54c-0.15-0.59,0.23-2.55-0.16-3.45c-0.29,1.06-0.46,2.26-0.52,3.54
						c-0.14,1.28-0.17,2.66-0.09,4.09C404.54,177.18,404.42,176.58,404.31,176.43z"/>
					<path class="st1" d="M305.13,290.66c0.33-0.1,0.66-0.19,0.98-0.31C305.84,290.42,305.5,290.52,305.13,290.66z"/>
					<path class="st1" d="M222.52,327.75c0.2-0.72,0.23-1.04,0.18-1.1C222.54,327.34,222.41,327.9,222.52,327.75z"/>
					<path class="st1" d="M216.96,343.68c0.12-0.34,0.22-0.63,0.33-0.94C217.13,343.09,216.98,343.45,216.96,343.68z"/>
					<path class="st1" d="M305.13,290.66l-2.52,0.76C302.51,291.69,303.92,291.08,305.13,290.66z"/>
					<path class="st1" d="M401.52,198.42c0.13-0.55,0.2-1.01,0.24-1.44c-0.11,0.45-0.21,0.88-0.31,1.33
						C401.47,198.33,401.5,198.36,401.52,198.42z"/>
					<path class="st1" d="M342.84,269.66l0.65-0.46c0.15-0.2,0.27-0.4,0.38-0.6L342.84,269.66z"/>
					<path class="st1" d="M367.92,248.17c-0.54,0.52-0.32,1.09-0.34,1.47c0.13-0.46,0.44-0.94,0.87-1.44
						C368.38,248.12,368.22,248.1,367.92,248.17z"/>
					<path class="st1" d="M396.94,204.8l0.24-0.91C397.12,204.13,397.02,204.52,396.94,204.8z"/>
					<path class="st1" d="M322.51,281.83c-0.09-0.05-0.23-0.06-0.36-0.04C322.19,281.86,322.32,281.86,322.51,281.83z"/>
					<path class="st1" d="M400.54,126.66c-0.05-0.01-0.06,0.03-0.09,0.04C400.57,126.86,400.63,126.91,400.54,126.66z"/>
					<path class="st1" d="M404.66,165.48l-0.05-0.54c-0.11-0.06-0.21-0.11-0.32-0.11L404.66,165.48z"/>
					<path class="st1" d="M212.58,343.99c0.01,0.06,0.02,0.08,0.03,0.13C212.91,344.88,212.76,344.44,212.58,343.99z"/>
					<path class="st1" d="M29.66,165.33c-0.2,1.57-0.45,0.3-0.55-0.79c-0.13-1.08-0.28-1.98-0.64,0.4
						C28.63,164.51,29.45,169.25,29.66,165.33z"/>
					<path class="st1" d="M401.21,199.24c-0.13,0.44-0.23,0.9-0.4,1.33C401.04,199.98,401.13,199.56,401.21,199.24z"/>
					<path class="st1" d="M28.47,164.94L28.47,164.94l-0.07,0.49C28.43,165.23,28.45,165.12,28.47,164.94z"/>
					<path class="st1" d="M166.97,301.19c0.12,0.13,0.38,0.25,0.65,0.38C167.61,301.51,167.46,301.41,166.97,301.19z"/>
					<path class="st1" d="M206.21,326.98l-0.31-1.27C206,326.22,206.11,326.63,206.21,326.98z"/>
					<path class="st1" d="M140.45,294.91c-0.66-0.25-0.86-0.41-1.79-0.66c0.08,0.06,0.15,0.11,0.25,0.16
						C139.27,294.46,139.71,294.59,140.45,294.91z"/>
					<path class="st1" d="M114.21,284.13c0.12,0.11,0.28,0.22,0.42,0.33c0.26,0.12,0.56,0.25,0.82,0.37L114.21,284.13z"/>
					<path class="st1" d="M345.95,58.78c0.42,0.5,0.64,0.87,0.79,1.19C346.61,59.39,350.15,61.77,345.95,58.78z"/>
					<path class="st1" d="M401.22,198.34c0.09,0.2,0.09,0.46-0.01,0.9c0.08-0.32,0.16-0.63,0.24-0.94
						C401.39,198.2,401.32,198.15,401.22,198.34z"/>
					<path class="st1" d="M137.93,298.75l-4.3-1.64C134.82,297.6,136.38,298.19,137.93,298.75z"/>
					<path class="st1" d="M147.28,29.83l0.99-0.37C147.88,29.57,147.53,29.69,147.28,29.83z"/>
					<path class="st1" d="M120.9,292.13c-0.67-0.52-1.42-0.98-2.21-1.42c-0.19-0.04-0.41-0.09-0.55-0.09L120.9,292.13z"/>
					<path class="st1" d="M346.75,59.98c-0.01-0.01,0-0.01,0-0.01S346.74,59.98,346.75,59.98z"/>
					<path class="st1" d="M370.65,78.74c-1.49-1.63-2.05-1.81-2.26-1.72c-0.23,0.11-0.18,0.56-0.67,0.38
						c-3.91-3.49-1.37-2.07-2.39-3.59c-0.63-0.53-1.23-1.02-1.83-1.46c-0.62-0.41-1.21-0.8-1.78-1.17
						c-1.14-0.74-2.17-1.43-3.08-2.25c-0.06-0.21-0.39-0.56,0.13-0.31c-1.46-0.95-3.5-2.5-5.58-4.13c-2.05-1.66-4.29-3.19-6.13-4.06
						c-0.2-0.23-0.29-0.37-0.32-0.46c0.31,0.68,0.17,1.04-0.09,1.18c-1.59-1.13-3.19-1.75-3.53-2.55c0.98,0.68,1.16,0.6,1.7,0.8
						c-0.6-0.34-1.18-0.7-1.79-1c-0.58-0.79,0.05-0.46,0.84,0.03c0.78,0.51,1.73,1.18,1.87,0.97c-1.67-1.11-3.61-2.11-5.4-3.11
						c-1.8-0.98-3.42-2.02-4.71-2.85c-0.15-0.98,6.14,3.69,3.04,0.94l3.83,2.83c-2.44-2.89,2.38,1.65,0.22-1.14
						c-2.58-1.8-4.08-2.72-5.61-3.57c-1.55-0.82-3.1-1.65-5.74-3.33c-1.4-0.39,0.12,0.72-1.27,0.33c-8.1-3.6-5.3-4.92-11.59-6.96
						c-0.86-0.17-1.53-0.13-2.48-0.35c-0.94-0.24-2.18-0.69-4.22-1.81l1.76-0.07c-2.76-1.25-3.67-1.34-4.58-1.5
						c-0.92-0.14-1.81-0.42-4.67-1.78c0.58,0.07,1.71,0.43,2.59,0.74c0.87,0.34,1.5,0.6,1.1,0.37c-3.56-2.15-2.86-0.68-5.79-1.84
						l-0.37-0.87c-6.05-2.26-12.97-3.96-19.83-5.83c0.43-0.08,1.66,0.06,0.12-0.61c-8.76-2.07-18.63-4.64-27.17-6.41
						c-1.12,0.01-2.25,0.08-3.37,0.12c-0.76-0.11-1.38-0.45-0.54-0.46c-3.33-0.67-0.22,0.35-1.87,0.36
						c-1.91-0.22-2.48-0.68-1.24-0.69c-2.98-0.22-7.25-0.27-11.52-0.57c-2.14-0.13-4.29-0.18-6.29-0.33c-2-0.12-3.86-0.37-5.42-0.54
						l1.23-0.15c-4.89-0.34-5.54,1.09-10.06,0.46c0.29-0.04,0.58-0.06,0.87-0.09c-5.3-0.07-10.88,0.06-16.13,0.43
						c-1.31,0.07-2.61,0.13-3.88,0.2c-1.26,0.09-2.5,0.18-3.7,0.27c-2.4,0.16-4.66,0.21-6.69,0.24c-1.41,1.05-10.48,1-10.96,2.39
						c-6.06,0.51-4.41-0.17-12.86,1.28c-2.25,0.42-3.17,1.42-5.86,2.26l-0.22-0.58l-3.55,1.58l-2.17-0.2
						c-0.84,0.28-1.67,0.6-2.5,0.9c1.02-0.27,2.22-0.38,2.12-0.16c-3.87,1.45-9.78,2.45-9.96,2.26l-4.55,1.84l-2.27,0.92l-2.24,1
						c0.12-0.3,1.6-1.02,2.78-1.57c-4.68,2.42-1.12-0.28-5.4,1.98c0.65-0.1-0.19,0.47-0.25,0.62c-2.39,0.44-7.38,2.65-11,4.4
						l0.53-0.7c-6.65,2.98-13.76,6.84-20.72,11.13c2.62-1.33,2.41-0.35,0.4,0.93l-1.16-0.07c-1.12,1.13,2.27-1.07-0.19,0.97
						c-1.33,0.73-1.85,0.88-1.88,0.66c-0.04-0.22,0.42-0.78,1.12-1.31c-1.04,0.68-2.01,1.46-3.01,2.19
						c-0.29-0.04,0.38-0.61,0.44-0.94c-0.53,0.59-1.96,1.33-3.44,2.15c-0.74,0.41-1.5,0.84-2.16,1.28
						c-0.64,0.47-1.19,0.95-1.53,1.41l-0.28-0.04c-1.65,1.21-3.08,2.26-4.38,3.2c-1.27,0.98-2.36,1.93-3.44,2.81
						c-1.07,0.89-2.11,1.75-3.2,2.65c-1.06,0.94-2.16,1.94-3.41,3.05c0.29,0.53-1.81,2.09-2.91,3.81c-1.8,1.65-3.82,3.27-5.78,5.14
						c-0.97,0.94-1.96,1.92-2.96,2.92c-1,1-2.01,2.04-2.94,3.2c-2.47,3.35-0.42,1.24-1.37,2.87c-0.29-0.05-1.38,1.06-2.19,1.86
						c-0.76,0.84-1.25,1.36-0.47,0.02c-4.22,5.7-5.5,7.25-9.85,15.09c0.68-0.73,1.31-1.61,1.17-1.04c-0.76,1.43-2.07,3.06-2.17,2.73
						l0.17-0.4c-1.18,2.23-2.38,4.64-3.74,7.07c-0.34,0.6-0.69,1.21-1.04,1.82c-0.34,0.61-0.64,1.25-0.96,1.87
						c-0.65,1.25-1.3,2.5-1.94,3.74c-0.68,1.22-1.19,2.51-1.73,3.74c-0.54,1.24-1.05,2.45-1.51,3.63c-0.86,2.38-1.44,4.67-1.78,6.66
						l0.08-0.45c-0.35,1.35-0.56,2.73-0.79,4.11l-0.68,4.12c-0.44,1.86-0.38,1.29-0.41,0.57c0.04-0.71,0.08-1.54-0.4-0.19
						c-0.18,2.27-0.4,4.27-0.68,6.12c-0.07,0.46-0.14,0.92-0.21,1.36c-0.05,0.45-0.09,0.89-0.14,1.33c-0.1,0.87-0.2,1.72-0.29,2.55
						c-0.49,3.33-0.61,6.5-0.46,10.21c-0.75,2.86-0.64,8.01,0.07,13.34c0.08,0.67,0.13,1.34,0.25,2c0.12,0.66,0.23,1.33,0.35,1.99
						c0.22,1.32,0.44,2.63,0.65,3.9c0.46,2.52,0.96,4.84,1.13,6.8l0.25-0.52c0.38,0.94,0.48,1.54,0.54,2.08
						c0.05,0.55,0.03,1.05,0.19,1.77c0.21-0.28-0.29-2.18,0.24-1.03c2.41,8.14,5.46,16.36,9.35,24.27
						c3.88,7.91,8.56,15.51,13.9,22.41c1.91,2.56,2.92,2.89,3.91,3.49c0.5,0.3,1.02,0.65,1.7,1.33c0.69,0.68,1.49,1.74,2.74,3.3
						c-0.68-0.4-1.39-0.77-2.04-1.21c4.66,4.42,9.26,9.06,14.22,13.26c4.86,4.31,10.06,8.18,15.34,11.51
						c-0.7-0.29-0.82-0.15-1.81-0.87c0.91,1,2.96,2.33,4.78,3.41c1.83,1.08,3.43,1.89,3.56,1.72c1.64,1.04,0.2,0.53,1.12,1.32
						c2.13,1.6,5.99,2.92,7.01,3.96c0.17,0.18-0.73-0.22-1.17-0.42c1.63,0.63,7.02,3.91,5.83,2.63c4.05,2.36,8.08,3.84,11.36,5.62
						c1.24,0.21,3.02,1.12,4.66,1.86c1.65,0.71,3.11,1.31,3.63,1.05c-0.32,0.35,1.5,1.3,3.79,2.22c2.31,0.85,5.07,1.68,6.52,1.98
						c-1.02-0.07,2.33,1.12,1.12,1.1c3.22,1.01,6.22,1.79,5.8,1.16c5.64,2.89,12.21,2.57,15.29,4.68c1.23,0.23,2.45,0.46,3.66,0.69
						c1.22,0.19,2.42,0.37,3.62,0.56c2.39,0.35,4.73,0.8,7.06,1.05c2.32,0.3,4.62,0.59,6.89,0.88c2.27,0.22,4.53,0.44,6.76,0.66
						c-0.21,0.43-2.68,0.14-5.06-0.12c-2.39-0.23-4.66-0.65-4.55-0.13c1.06,0.12,2.07,0.24,3.04,0.32c0.97,0.06,1.9,0.11,2.8,0.17
						c1.79,0.1,3.48,0.19,5.15,0.28c1.68,0.09,3.35,0.11,5.13,0.23c0.83,0.06,1.68,0.12,2.57,0.19c0.21,0.02,0.43,0.04,0.66,0.07
						l0.17,0.02c0.02,0.05,0.03,0.11,0.05,0.17l0.09,0.35c0.09,0.5-0.05,0.37-0.21,0.19c-0.07-0.08-0.16-0.18-0.24-0.27
						c-0.12-0.02-0.28,0.05-0.34,0.07l0.25-0.01c0.04,0.05,0.06,0.13,0.1,0.19l0.09,0.21l0.04,0.11c0.02,0.04,0.02,0.04,0.07,0.2
						c0.32,0.99,0.63,1.97,0.95,2.94c0.6,1.96,1.19,3.88,1.77,5.78c1.15,3.8,2.28,7.48,3.62,11c-0.09,0-0.41-0.74-0.7-1.46
						c0.46,1.41,0.88,3.33,1.22,3.06l-0.53-1.35c-0.12-2.44,2.91,5.27,3.28,5.43c-1.86-2.06,1.88,7.19-0.7,3.8
						c0.36,0.91,0.9,2.02,1.1,1.73c0.35,1.41,0.33,1.89-0.4,0.58c0.88,2.51,1.29,3.28,1.65,3.99c0.18,0.36,0.35,0.71,0.56,1.25
						c0.11,0.27,0.22,0.59,0.35,0.99c0.06,0.2,0.14,0.42,0.21,0.66c0.1,0.32,0.2,0.66,0.32,1.04c-0.09,0.04-0.27-0.31-0.47-0.71
						c-0.16-0.27-0.34-0.6-0.52-0.8c0.13,0.28,0.27,0.55,0.4,0.83c0.18,0.44,0.36,0.88,0.55,1.33c0.37,0.9,0.72,1.78,1.07,2.72
						c0.71,1.89,1.39,3.93,2.22,6.97c-0.14-0.03,0.04,1.07-0.51-0.73c0.58,1.88,1.14,3.56,1.65,5.03c1.14-4.23,2.06-8.03,2.94-11.47
						c0.22-0.84,0.45-1.69,0.68-2.56c0.21-0.75,0.42-1.52,0.64-2.32c0.38-1.32,0.82-2.7,1.34-4.17c0.18,2.41,1.02-2.41,1.85-2.59
						l0.97-4.01l-0.82,1.48c1.05-3.45,1.45-6.66,2.58-9.56l-0.48,2.65l1.81-6.51l-1.37,3.58c0.68-3.6-1.02,0.1,0.56-4.43
						c-0.21,0.96,1.05-3.45,2.01-5.12l0,0.01c0.29-1.78,0.58-3.61,1.52-6.11c0.43-0.59,0.63,0.77,0.91,0.39
						c-0.02-0.47,0.11-1.21,0.32-2.09c0.19-0.72,0.4-1.57,0.62-2.43l0.07-0.26l0.03-0.13c0.03-0.03,0.08-0.02,0.12-0.02
						c0.17-0.02,0.35-0.04,0.52-0.06c0.38-0.05,0.75-0.1,1.1-0.15c0.97-0.13,1.8-0.29,2.34-0.49c-0.73,0.21-0.74,0.6-0.49,0.67
						l1.44-0.61c1.68,0.04,1.94,0.1,1.69,0.43c2.52-0.13,2.1-0.37,1.8-0.53c-0.3-0.17-0.48-0.3,2.52-0.43
						c-0.46,0.09-0.23,0.14-1.2,0.33c3-0.24,5.89-0.58,8.69-1.05c2.8-0.5,5.55-0.94,8.29-1.27c1.74,0.5-4.75,0.92-2.8,1.26
						c1.98-0.3,3.96-0.75,5.96-1.21c1.99-0.47,4.01-0.9,5.99-1.43c3.96-1.08,7.9-2.06,11.63-3.02l-1.41,0.29
						c0.75-1.32,5.71-0.88,9.29-2.57c-0.89,0.35-1.03,0.93-0.82,0.74c2.55-0.71,5.15-1.47,7.97-2.64c1.41-0.57,2.91-1.16,4.51-1.81
						c1.61-0.63,3.28-1.44,5.12-2.23l-0.83,0.61c1.49-0.47,3.43-1.14,5.36-1.93c1.92-0.81,3.86-1.65,5.43-2.27
						c0.81-0.63,2.57-1.41,1.35-1.27c2.49-0.77,4.84-1.75,7.09-2.82c2.22-1.13,4.31-2.4,6.37-3.63c4.07-2.57,7.93-5.14,12.12-7.15
						c-0.92,0.6-2.08,1.63-1.34,1.15c2.16-1.49,4.33-2.96,6.39-4.58c-0.77-0.02-1,0.37-2.55,1.02c0.66-0.8,2.33-2.25,3.91-3.36
						c-2.69,2.28,0.45,0.59,1.85-0.09c-0.29,0.03,0.04-0.39-0.15-0.44c3.76-1.81-0.01-1.15,4.74-4.12l-0.08,0.37
						c1.6-1.35,2.84-2.86,4.6-4.26c1.06-0.2-1.53,1.63-1.36,2.06c2.4-2.08,4.12-4.77,6.53-6.37c-0.89,1.02-2.27,2.37-3.23,3.32
						c1.41-0.76,2.11-1.29,2.71-1.78c0.6-0.49,1.08-0.96,1.97-1.71l-0.18,0.15c1.38-1.15,2.77-2.29,4.07-3.53l-1.08,0.86
						c0.9-1.92,2.26-3.4,3.79-4.97c1.49-1.6,3.07-3.36,4.5-5.64c-2.78,4.44-0.19,0.97,0.01,1.66c0.52-0.46,1.16-1.04,1.63-1.46
						c0.46-0.43,0.76-0.66,0.64-0.37c0.61-1.15,1.34-1.91,2.14-2.8c0.78-0.9,1.7-1.87,2.44-3.56c0.25-0.01,1.6-2.19,1.67-1.44
						c1.81-2.78-0.73,0.44-0.77,0.07c0.61-1.13,1.39-2.27,2.27-3.45c0.83-1.22,1.74-2.48,2.7-3.81c0.47-0.67,0.96-1.35,1.45-2.05
						c0.45-0.72,0.89-1.47,1.33-2.23c0.85-1.54,1.73-3.12,2.35-4.86c1.22-2.92,1.86-4.68,2.37-6.43c0.47-1.76,0.93-3.46,1.91-6.19
						c0.47-0.86,0.51-0.42,0.42,0.24c-0.12,0.65-0.38,1.51-0.38,1.51c0.79-1.39,1.27-2.7,1.73-3.99c0.46-1.29,0.85-2.58,1.24-4.03
						c-0.04,0.62,0.32,0.09,0.77-0.73c0.63-2.33-0.23-1.75,0.93-4.71c0.06,0.58,0.2,1.34,0.08,2.52c0.3-1.4,0.61-2.78,0.8-4.2
						c0.18-1.42,0.37-2.85,0.6-4.3c0.5-0.69,0.12,1.84,0.1,2.91c0.27-1.64,0.73-3.74,0.92-5.59c0.17-1.86,0.25-3.43,0.06-3.98
						l-0.52,2.05c0.16-1.19,0.55-0.54,0.51,0.36c0.01,2.88-0.96,3.97-1.16,4.09c0.11-0.69,0.23-1.37,0.32-2.06
						c-0.77,0.94-1.2,2.97-1.53,5.3c-0.08,0.58-0.17,1.18-0.26,1.78c-0.12,0.6-0.24,1.2-0.36,1.79c-0.24,1.18-0.5,2.34-0.81,3.34
						l-0.31-1.91l-0.27,2.16c-0.08,0.72-0.18,1.44-0.33,2.15c-0.51,0.79-1.16,1.22-0.59-0.75c-1.39,2.68-0.61,2.59-1.9,4.85
						c-0.16,0.24-0.16,0.11-0.1-0.15c-0.13,0.47-0.24,0.95-0.38,1.41l-0.46,1.39c0.06-0.59-0.73,0.22,0.08-1.37
						c-1.24,2.31-1.92,4.29-2.46,5.91c-0.61,1.59-1.09,2.79-1.8,3.53l0.15-0.41c-1.48,3.3-1.42,3.53-1.22,3.58
						c0.21,0.05,0.58-0.07-0.46,2.48l-3.12,2.44l0.17,0.93c-0.41,0.63-1.26,1.84-1.32,1.48c-1.15,2.57,0.48-0.26-0.06,1.31
						c-2.31,2.8-5.45,8.35-6.68,8.44c-0.39,1.33,2.3-2.59,0.31,0.74c-1.52,0.22-2.62,3.6-5.09,5.85c0.26-1.11,2.39-3.37-0.02-1.11
						c-0.28,1.06-1.4,2.21-2.63,3.39c-1.24,1.17-2.57,2.38-3.5,3.4c0.42,0.58-3.92,4.59-7.24,7.86c0.09-0.33-6.76,5.58-10.4,7.94
						l0.03-0.17c-0.21,1.09-3.8,3.76-6.41,5.7c-0.15-0.43,0.23-0.91,1.54-2.08l-2.48,1.76c-0.45,0.6-1.15,1.27-2.74,2.46
						c0.12-0.29,0.22-0.59,0.33-0.89c-3.37,2.24-6.47,5.06-11.2,7.33c-0.01,0.6,4.33-0.89-0.3,2.23c-0.32-0.14-0.73-0.44,0.47-1.28
						c-0.39,0.27-1.34,1.07-2.24,1.43c0.57-0.49,1.12-1.02,1.69-1.52c-2.16,1.02-0.87,1-2.58,1.86c-0.16-0.36-1.38,0.42-1.29,0.01
						c0.41-0.26,1.55-0.64,2.11-1.12c-1.93,0.96-4.33,1.97-5.22,2.11c0.27,0.11,0.25,0.47-1.12,1.26c-3.61,1.86-1.46,0.2-3.67,1.06
						c-0.76,0.67-3.22,1.54-3.03,2.11c-1.07,0.51-1.38,0.37-1.87,0.41c-1.82,1.07-8.97,3.99-6.55,3.62l0.51-0.18
						c-0.09,0.05-0.2,0.1-0.31,0.16c0.02-0.01,0,0,0.02-0.01l-0.02,0.01c-6.19,3.15-13.5,4.9-19.98,7.07l-0.05-0.19
						c-3.83,1.48-8.71,2.62-11.44,3.78c-1.17,0.33-2.86,0.32-2.41-0.02c-3.01,0.82-3.31,1.13-7.79,1.78c3-1-1.12-0.06,3.09-0.94
						c-3.99,0.76-4.96,0.5-9.14,1.86c1.37-0.77-3.1-0.04-4.99,0.33l2.87-0.06c-2.13,0.4-4.02,0.62-5.93,0.87l0.93-0.81
						c-4.14,0.26-7.81,0.93-11.25,1.6c-1.72,0.36-3.39,0.56-5.03,0.69c-0.82,0.06-1.63,0.09-2.43,0.08
						c-1.09-0.04-2.17-0.08-3.25-0.12c-1.63,0.35,0.24,0.3,1.99,0.26c0.17,0,0.33,0,0.5,0c0.14,0,0.28,0.01,0.41,0.01
						c0.26,0.01,0.49,0.02,0.65,0.05c0.32,0.05,0.38,0.14-0.1,0.31l-0.72,0.03l-0.8,0.01c-0.69,0.01-1.37,0.01-2.04,0.02l-0.52,0
						l-0.26,0c-0.04,0-0.09-0.01-0.13,0l-0.04,0.11c-0.12,0.29-0.24,0.58-0.35,0.87c-0.25,0.6-0.49,1.18-0.72,1.74
						c-0.13,0.34-0.2,0.44-0.29,0.64c-0.08,0.18-0.17,0.35-0.25,0.51c-0.16,0.33-0.3,0.63-0.44,0.91c-0.26,0.55-0.46,0.99-0.54,1.28
						c-1.87,4.93-0.48,4.98-2.31,10.18c0.43-0.61,1.23-1.06,0.26,2.94c-1.19,3.65-2.31,4.24-1.8,1.86c0.25-0.89,0.45-1.29,0.51-1.23
						c0.28-1.21,0.65-2.8-0.04-1.42l0.08,0.55c-0.78,1.76-2.28,6.83-2.29,5.52c-0.62,2.85,0.02,1.3,0.75-0.72
						c-1.75,4.62-2.23,7.37-3.91,12.16c0.36-0.73,0.84-1.37,0.6-0.6c-1.21,3.52-1.34,4.34-1.33,4.88c0,0.27,0.04,0.48-0.01,0.92
						c-0.02,0.21-0.08,0.52-0.14,0.85c-0.05,0.25-0.12,0.58-0.23,1.01c-0.42,0.78-0.51,0.31-0.61,0.2
						c-0.11-0.11-0.15-0.12-0.44,1.37c-0.28,0.52-0.33,0.13-0.34-0.36c0-0.28,0.01-0.95,0.01-1.4c-0.06,0.88-0.29,1.54-0.42,1.61
						c-0.2-1.11-0.21-2.05-0.23-2.3c0.07,0,0.12-0.06,0.15-0.15c-0.07,0.16-0.12-0.03-0.16-0.15c-0.08,0.27-0.15,0.6-0.19,0.99
						c-0.06-0.5-0.14-0.75,0.01-0.93c-0.16,0.02-0.31,0.21-0.45,0.44c-0.16,0.21-0.31,0.48-0.73-0.18
						c-0.01-0.07-0.02-0.14-0.03-0.21l-0.02-0.11l-0.05-0.2c-0.08-0.28-0.17-0.58-0.26-0.89c-0.2-0.61-0.41-1.27-0.61-1.88
						c-0.39-1.23-0.69-2.33-0.49-2.74c1.54,5.8,0.41-0.82,1.99,4.01c-0.36-0.91-0.7-2.06-1.04-3.45c0-0.23,0.18,0.16,0.33,0.52
						c-1.13-5.65-1.45-2.31-3.17-8.01c0.56,0.62,0.24-1.51-0.11-2.42c0.69,2.29-0.23,1.27-1.13-0.75c-0.85-3.73-1.41-3.9-1.96-5.82
						l0.54,2.22c-0.56-0.64-1.08-2.47-1.96-4.98c0.2-0.3,0.89,2.25,0.73,1.31c-1.46-2.64-1.33-6.57-2.93-10.38
						c-0.33-1.89,0.58-0.37,0.25-2.02c-0.45-1.07-0.73-1.91-0.94-2.64c-0.1-0.37-0.18-0.7-0.26-1.03c-0.13-0.55-0.26-1.07-0.39-1.6
						c-0.14-0.56-0.28-1.13-0.43-1.73c-0.04-0.15-0.08-0.3-0.12-0.46c-0.02-0.03-0.01-0.09-0.04-0.1l-0.12-0.01l-0.24-0.03
						c-0.32-0.04-0.65-0.08-1-0.12c-0.7-0.07-1.49-0.15-2.37-0.21c-0.26-0.01-0.54-0.03-0.84-0.04c-0.27-0.01-0.55-0.01-0.85-0.02
						c1.34,0.6,1.59,0.5-1.82,0.67l1.98,0.09l2.39,0.12l1.6,0.1l0.8,0.05c0.1,0.23,0.17,0.49,0.26,0.73l0.96,2.86l-0.14-0.31
						l-0.19-0.48l-0.37-0.93l-0.36-0.9l-0.18-0.44l-0.09-0.21l-0.04-0.11c-0.03-0.02-0.08,0-0.12-0.01l-2,0
						c-0.64,0-1.34,0-1.68,0.03c0.36,0.03,0.73,0.06,1.11,0.09l1.32,0.08l0.66,0.04l0.33,0.02l0.17,0.01
						c0.03,0.04,0.04,0.1,0.06,0.14c0.14,0.4,0.28,0.8,0.41,1.18c0.25,0.73,0.49,1.42,0.71,2.04c0.16,0.46,0.29,0.88,0.38,1.23
						c-0.55-1.13-0.75-1.55-0.88-1.74c-0.05-0.05-0.06,0.04-0.05,0.25c0,0.16-0.01,0.4-0.01,0.7c-0.02-0.21-0.04-0.42-0.07-0.62
						c-0.04-0.24-0.1-0.53-0.16-0.79c-0.13-0.54-0.27-1.09-0.44-1.62l-0.12-0.4c-0.01-0.03-0.02-0.07-0.04-0.09l-0.11-0.01
						l-0.21-0.01l-0.85-0.05c-0.56-0.02-1.13-0.04-1.7-0.06c-1.73-0.02-3.47-0.01-5.34-0.41l0.23-1.17
						c-5.57-1.12-10.09-0.51-17.32-2.04l2.31,0.58c-1.05,0.3-4.51-0.63-6.88-0.96c0.29-0.34-1.14-0.78-2.09-1.22
						c0.03,0.16-1.29-0.11-2.72-0.34c-1.43-0.23-2.95-0.51-3.37-0.19l-3.08-1.27c-2.88-0.76-4.56-1-6.26-1.15
						c-1.68-0.19-3.37-0.26-6.09-1.2c1.78,0.09-0.64-0.89,3.13-0.13c-1.85-0.48-3.44-1.13-3.56-0.86c-0.98-0.59-5.22-1.07-6.76-2.02
						c-0.81-0.11-1.2,0.19-3.21-0.57c-0.19-0.15,0.07-0.18,0.07-0.18c-0.07,0.18-3.26-0.89-1.64,0.16
						c-0.64-0.39-1.37-0.78-2.15-1.15c-0.78-0.38-1.61-0.79-2.48-1.17c-1.74-0.78-3.64-1.51-5.51-2.26
						c-3.68-1.62-7.34-3.11-9.37-4.78c-1.88-0.89-4.01-1.78-6-2.84c-1.99-1.05-3.94-2.07-5.62-2.96c0.27,0.01,0.11-0.17,0.72,0.21
						c-4.32-2.95-3.35-0.64-8.24-4.09c-1.1-1.11-0.39-0.74,0.41-0.26c0.81,0.47,1.73,1.02,0.98,0.43c-0.02-0.74-1.53-1.7-3.42-2.81
						c-0.94-0.55-1.98-1.15-2.96-1.78c-0.98-0.63-1.86-1.37-2.57-2.1l0.83,0.5c-1.11-1.07-2.68-2.06-4.49-3.15
						c-1.76-1.15-3.72-2.45-5.66-4.03c0,0,0.26,0.06,0.15-0.13c-1.55-0.8-3.52-2.29-5.64-3.88c-1.07-0.79-2.1-1.69-3.11-2.57
						c-1.01-0.88-1.99-1.75-2.9-2.54c1.44,0.67,1.77,1.31,1.47,0.31c-0.81-0.71-0.84-0.46-1.07-0.38c-0.22,0.06-0.7,0.02-2.23-1.5
						c-0.78-1.21-2.75-3.62-2.63-4.28l2.82,2.89c-0.91-1.99-3.67-3.72-4.94-5.45l0.41,0c-4.15-4.57-4.77-4.19-8.8-9.51l0.21,0.7
						c-2.75-2.53-1.41-2.75-4-5.39l0.07-1.37c-0.73-0.96-2-2.65-3.42-4.52c-1.32-1.94-2.73-4.12-3.86-5.97
						c1.73,1.87,4.37,6.15,6.42,8.53c-0.32-0.5-0.75-1.17-1.23-1.92c-0.24-0.37-0.5-0.76-0.76-1.15c-0.24-0.4-0.49-0.81-0.73-1.21
						c-0.97-1.6-1.91-3.06-2.39-3.51c0.54,0.8,1.29,1.76,1.65,2.64c-0.97-1.13-2.05-2.47-3.05-4.11c-0.97-1.66-2.01-3.56-3.02-5.72
						c0.86,0.07-0.25-2.81-1.6-6.16c-1.17-3.42-2.57-7.33-2.39-9.16c-2.88-7.84-3.65-16.12-4.2-25.73
						c-1.08,3.49-0.12-2.82-1.33-2.19c-0.16-2.27-0.16-3.14-0.05-3.35l0.97-6.85c0.27-0.79,0.25-0.26,0.28,0.46
						c0.03,0.72,0.05,1.61,0.19,1.51c0.09-2.46,0.38-2.96,0.54-3.25c0.19-0.29,0.39-0.38,0.71-1.97c-0.25,0.31-0.36-0.13-0.36-0.99
						c0.03-0.86,0.07-2.16,0.41-3.53c-0.44,1.26-0.67,2.56-1.01,3.85c-0.04-3.48,0.57-4.91,1.05-6.34c0.54-1.43,0.89-2.87,1.43-6.3
						l-0.13,2.21c0.15-0.87,0.41-2.11,0.72-3.52c0.31-1.41,0.62-3.02,1.1-4.58c0.43-1.58,0.84-3.16,1.15-4.58
						c0.32-1.41,0.66-2.63,0.72-3.54c0.35-0.54,0.96-1.2,0.49,0.29c0.79-1.98,1.48-4.12,2.39-6.21c0.87-2.11,1.63-4.31,2.64-6.33
						c0.48-1.02,0.95-2.03,1.42-3.02c0.24-0.49,0.47-0.98,0.7-1.46c0.26-0.46,0.52-0.92,0.77-1.36c1.03-1.78,2.04-3.39,3.02-4.74
						l-0.08,0.72c0.74-1.41,1.06-2.62,2.42-4.12c0.04,0.16-0.11,0.7,0.32,0.1c0.19-0.38,0.68-1.33,1.28-2.4
						c0.61-1.06,1.43-2.17,2.13-2.97l-0.82,1.64c1.34-1.6,2.45-3.07,3.42-4.46c1.01-1.37,1.95-2.61,2.82-3.87
						c1.7-2.54,3.46-4.84,5.79-7.49c0.56,0.56,5.49-3.81,7.98-5.92l0,0.17c1.85-1.58,3.51-3.08,5.08-4.54
						c1.62-1.4,3.16-2.74,4.67-4.1c1.48-1.39,3.07-2.61,4.66-3.94c0.8-0.65,1.62-1.31,2.45-1.99c0.83-0.68,1.74-1.29,2.66-1.96
						c1.31-0.57,2.96-1.49,4.84-2.61c1.93-1.04,4.08-2.28,6.31-3.58c2.25-1.27,4.66-2.49,6.96-3.71c2.32-1.2,4.66-2.18,6.73-3.06
						c-1.31,0.46-0.09-0.72,1.32-1.5c2-0.72,5.13-2.91,5.14-2.05l-0.7,0.29c0.89,0.04,2.31-0.42,3.89-1.05
						c1.6-0.59,3.4-1.32,4.98-1.93l0.15-1.19c1.11-0.21,2.26-0.55,3.48-0.88c1.22-0.32,2.48-0.7,3.75-1.11
						c1.27-0.42,2.56-0.87,3.85-1.33c1.3-0.43,2.59-0.85,3.86-1.27c5.03-1.76,9.71-3.02,12.22-2.98c2.01-0.81,4.63-1.29,6.66-2.02
						l0,0.58c1.46-0.27,2.74-0.54,3.95-0.74c1.21-0.19,2.36-0.38,3.54-0.57c2.37-0.38,4.9-0.91,8.54-1.42l-1.43,0.6
						c2.05-0.26,3.29-0.84,4.5-1.42c1.21-0.58,2.38-1.2,4.29-1.38l1.24,0.73c1.8-0.18,3.62-0.31,5.43-0.43
						c1.81-0.13,3.64-0.11,5.45-0.19c1.82-0.05,3.62-0.16,5.43-0.27c1.8-0.07,3.6-0.2,5.39-0.43c-0.12,0.13-0.32,0.37-1.5,0.43
						c1.7,0.01,5-0.01,7.71,0.09c2.71,0.05,4.85-0.06,4.25-0.66c0.03,0.4,1.9,0.39,4.25,0.41c2.35,0.02,5.19-0.07,7.16-0.13
						l-0.65,0.52c1.68-0.28,2.54-0.41,3.57-0.47c1.03-0.06,2.21-0.05,4.53,0.08c1.09,0.18,0.91,0.54-0.52,0.25
						c3.6,0.64,2.9-0.29,7.26,0.61l-1.68,0.13c3.72,0.55,3.44,0.32,5.56,0.18c1.19,0.02,2.95,0.35,4.46,0.76
						c1.52,0.39,2.79,0.84,3.02,1.13c0.55-0.19,2.67-0.32,4.81,0.32c0.25,0.25-0.56,0.2-0.96,0.17c3.03,0.85,5.35,1.18,7.42,1.48
						c2.08,0.3,3.88,0.7,5.91,1.49c0.04,0.2,0.29,0.36,0.62,0.5c-2.42-0.62-4.59-1.22-6.12-1.58c-1.54-0.35-2.43-0.56-2.24-0.54
						c-0.11,0.5,3.79,1.43,0.52,1.45c1.62,0.12,3.8,0.38,6.06,0.72c2.25,0.36,4.6,0.73,6.44,1.45c0.17,0.1,0.33,0.2,0.45,0.32
						l-0.4-0.06c0.85,0.31,1.64,0.49,2.4,0.63c1.17,0.44,1.92,0.73,3.06,1.08c0.33,0.49,4.3,1.66,6.19,2.33
						c0.03-0.59,2.48,0.35,0.31-0.88c0.29,0.14-0.38-0.06-1.65-0.47c-0.29-0.08-0.63-0.19-0.83-0.22c0.04,0,0.09,0,0.15,0
						c-1.25-0.41-2.88-0.98-4.76-1.5c0.8,0.1,1.62,0.18,2.49,0.41c0.86,0.24,1.77,0.57,2.78,1.08c1.09-0.01,2.29,0.01,2.96,0.05
						c0.59,0.41,1.33,0.85,2.13,1.29c0.79,0.46,1.62,0.93,2.39,1.38c1.55,0.88,2.87,1.64,3.12,2c0.72,0.25,1.48,0.5,2.26,0.77
						c0.76,0.3,1.54,0.61,2.33,0.92c1.58,0.63,3.19,1.26,4.73,1.88c3.08,1.24,5.89,2.41,7.88,2.77c1.64,0.63,1.65,1.19,2.15,1.63
						c-0.93-0.4-1.99-0.95-2.55-1.04c1.64,0.61,3.89,1.88,5.92,2.85c1.01,0.5,1.96,0.94,2.72,1.25c0.75,0.33,1.31,0.52,1.58,0.47
						c3.61,2.54-2.46-0.68,2.79,2.31l-0.82-0.22c1.2,0.89,2.37,1.67,3.51,2.41c1.12,0.77,2.23,1.48,3.33,2.14
						c1.1,0.66,2.19,1.28,3.29,1.89c1.07,0.64,2.13,1.28,3.2,1.92c1.07,0.65,2.15,1.31,3.25,1.98c1.09,0.69,2.14,1.49,3.24,2.31
						c1.09,0.83,2.2,1.72,3.32,2.7c1.1,1.01,2.18,2.14,3.3,3.36c-0.62-0.67-0.94-1-1-1.22c5.52,5.1,11.05,10.51,16.17,16.26
						c5.16,5.72,9.69,12.01,13.06,18.6c0.98,1.86,1.63,2.82,2.24,3.58c0.57,0.78,1.09,1.35,1.85,2.41l-0.12,1.09
						c0.86,1.2,1.81,2.36,2.6,3.61c0.75,1.37,1.32,2.71,1.81,4.06c0.24,0.67,0.49,1.34,0.67,2.03c0.18,0.69,0.35,1.39,0.53,2.1
						c0.36,1.41,0.75,2.86,1.28,4.4c0.45,1.56,1,3.22,1.81,5.03l0.09-1.09c0.19,0.68,0.46,1.56,0.75,2.48
						c0.28,0.92,0.5,1.92,0.72,2.81c0.43,1.78,0.72,3.17,0.44,2.99c0.13,0.27,0.65,0.81,0.65,1.94l-0.3,0.15l1.67,6.77
						c0.31,5.39-1.33-0.67-0.61,7.09c0.22,2.87,1.2,8.24,1.37,7.15c-0.02-1.18,0.1-3.02,0.41-3.12l0.25,2.69
						c0.94,0.47,1.97,2.62,2.4-4.15c-0.24-1.56-0.46-3.12-0.85-4.65l0.3-1.55c0.12,1.31,0.32,2.62,0.38,3.94
						c0.28-2.27-0.3-3.67-0.69-5.22c0.2-0.4,0.3-1.08,0.3-2.02c-0.45-1.5-1.07-2.96-1.59-4.43c0.27-0.62,1.06,1.93,0.74-1.17
						c-0.76-2.06-0.46,2.18-1.32-1.29c0.04-1.15,0.11-1.57,0.1-2.02c-0.01-0.45-0.13-0.94-0.61-2.18c0.15-0.41,0.43,0.09,0.77,1.09
						c-0.82-2.23-1.52-6.05-2.43-7.04c-0.09-1.19-0.7-3.08-1.17-4.67c-0.51-1.58-0.97-2.83-0.5-2.88c-0.23-0.31-0.75-1.22-1.32-2.3
						c-0.57-1.08-1.15-2.34-1.64-3.3c2.56,3.19-3.18-7.41-1.83-6.9c-1.11-1.09-2.39-3.39-3.82-5.93c-0.77-1.24-1.57-2.54-2.36-3.8
						c-0.79-1.26-1.58-2.47-2.43-3.45c0.22,0.2,0.67,0.58,0.88,0.99c-1.56-2.45-1.79-3.31-2.69-4.96c-0.44,0.08-1.27-0.83-2.35-1.87
						c-1.06-1.06-2.23-2.34-3.16-3.15c-1.55-3.29,2.03,1.15,1.93-0.18c-0.2,0.26-1.26-0.87-2.23-1.91c-1.01-1-1.95-1.89-1.76-1.26
						c-1.39-2.37-1.33-1.93-1.75-3.42c-0.52,0.14-0.96-0.32-1.51-0.97c-0.55-0.65-1.27-1.45-2.25-2.08
						c-2.34-3.19-0.02-1.38-3.21-4.31c-0.63-0.82-0.2-0.62,0.4-0.22C369.93,78.1,370.65,78.74,370.65,78.74z M281.98,29.8
						c0-0.01,0-0.01,0-0.01c0.84,0.24,1.56,0.44,2.02,0.57C283.59,30.24,283,30.08,281.98,29.8z M273.7,27.66
						c1,0.28,2.26,0.61,3.59,0.94c0.24,0.26-0.12,0.38-0.95,0.15C276.82,28.74,274.9,28.13,273.7,27.66z M289.9,36.29
						c-1.28-0.37-1.68-0.58-1.82-0.74c0.61,0.16,1.31,0.38,2.23,0.66c0.04-0.01,0.13,0,0.17-0.01
						C290.33,36.25,290.17,36.3,289.9,36.29z"/>
					<path class="st1" d="M292.4,36.37c0.19,0.05,0.29,0.06,0.53,0.14c-0.24-0.14-0.47-0.26-0.71-0.38c-0.17,0-0.35,0.01-0.5,0.01
						C291.95,36.22,292.19,36.3,292.4,36.37z"/>
					<path class="st1" d="M306.27,290.29l-0.17,0.06c0.14-0.04,0.28-0.07,0.37-0.08C306.36,290.29,306.35,290.28,306.27,290.29z"/>
					<polygon class="st1" points="156.44,27.06 156.49,27.19 157.19,26.89 					"/>
					<path class="st1" d="M348.01,269.14c0.1-0.01,0.28-0.07,0.59-0.24C348.56,268.88,348.31,269,348.01,269.14z"/>
					<path class="st1" d="M363.74,256.22l2.25-1.82C365,255.17,364.29,255.75,363.74,256.22z"/>
					<path class="st1" d="M374.83,245.13c0.06-0.21,0.04-0.3,0.02-0.39l-0.02,0.02L374.83,245.13z"/>
					<path class="st1" d="M202.92,329.1c-0.06-0.2-0.13-0.39-0.2-0.57C202.21,327.22,202.53,328.13,202.92,329.1z"/>
					<path class="st1" d="M227.11,319.91c-0.13,0.78-0.25,1.54-0.43,2.34C227.1,321.01,227.4,320.04,227.11,319.91z"/>
					<path class="st1" d="M138.4,298.92c0.01,0,0,0,0.01-0.01c-0.17-0.05-0.32-0.11-0.48-0.17L138.4,298.92z"/>
					<path class="st1" d="M225.69,325.52c0.48-1.22,0.78-2.28,0.99-3.27C226.34,323.27,225.92,324.46,225.69,325.52z"/>
					<path class="st1" d="M404.85,184.75l0.14-0.75c-0.04,0.01-0.06-0.04-0.07-0.1L404.85,184.75z"/>
					<path class="st1" d="M404.92,183.89l0.07-0.84C404.92,183.43,404.88,183.76,404.92,183.89z"/>
					<path class="st1" d="M405.13,181.27l-0.14,1.77C405.08,182.44,405.22,181.69,405.13,181.27z"/>
					<path class="st1" d="M399.14,204.8l0.11,0.3C399.26,204.96,399.22,204.86,399.14,204.8z"/>
					<path class="st1" d="M396.83,210.7c0.32-0.69,0.79-1.52,1.27-2.43c0.24-0.46,0.49-0.93,0.71-1.42c0.2-0.5,0.38-1.01,0.53-1.52
						l-0.09-0.24C399.26,206.17,397.08,209.25,396.83,210.7z"/>
					<path class="st1" d="M381.83,232.23c0.52-0.69,1.08-1.37,1.57-2.08l1.47-2.15c-0.67,0.65-1.56,1.49-0.33-0.52
						c-2.04,2.57-1.75,2.35-1.43,2.21C383.41,229.52,383.87,229.5,381.83,232.23z"/>
					<path class="st1" d="M371.54,244.65c1.78-2.16-0.26-0.18-0.25-0.38C370.27,245.72,370.02,246.08,371.54,244.65z"/>
					<path class="st1" d="M271.41,300.97l0.16-0.56C269.48,300.95,271.59,300.61,271.41,300.97z"/>
					<polygon class="st1" points="249.81,307.64 251.96,307.64 252.89,307.03 					"/>
					<polygon class="st1" points="236.26,305.44 237.19,305.3 233.62,305.74 					"/>
					<path class="st1" d="M118.97,285.86l0.33,0.84C120.68,287.19,121.24,286.67,118.97,285.86z"/>
					<path class="st1" d="M52.86,234.95c-0.28-0.94-1.48-2.98-2.58-3.99C51.34,232.53,52.23,234.21,52.86,234.95z"/>
					<path class="st1" d="M136.29,38.41c-0.51,0.26-1.03,0.48-1.52,0.76c0.97-0.43,1.97-0.81,2.95-1.22L136.29,38.41z"/>
				</g>
			</g>
		</g>
	</g>
</g>
</svg>
